<?xml version="1.0" encoding="utf-8"?>
<!-- Generator: Adobe Illustrator 19.2.0, SVG Export Plug-In . SVG Version: 6.00 Build 0)  -->
<svg version="1.1" id="Слой_1" xmlns="http://www.w3.org/2000/svg" xmlns:xlink="http://www.w3.org/1999/xlink" x="0px" y="0px"
	 viewBox="0 0 437.3 101.7" style="enable-background:new 0 0 437.3 101.7;" xml:space="preserve">
<style type="text/css">
	.st0{opacity:5.098039e-02;}
	.st1{fill-rule:evenodd;clip-rule:evenodd;fill:#0D0F0F;}
	.st2{fill-rule:evenodd;clip-rule:evenodd;fill:#D0DEEF;}
	.st3{fill:#0D0F0F;}
	.st4{fill-rule:evenodd;clip-rule:evenodd;fill:#FFFFFF;}
	.st5{fill:none;}
	.st6{fill:#495987;}
</style>
<g>
	<g id="Эллипс_4_копия_2_" class="st0">
		<g>
			<path class="st1" d="M65.5,86.7c-13.8,0-25.8,1.7-31.7,4.1c-2.2-0.1-4.5-0.1-6.8-0.1c-14.9,0-27,1.6-27,3.5
				c0,1.9,12.1,3.5,27,3.5c2.4,0,4.7,0,6.8-0.1c5.9,2.4,17.8,4.1,31.7,4.1c19.6,0,35.5-3.4,35.5-7.5C101,90.1,85.1,86.7,65.5,86.7z"
				/>
		</g>
	</g>
	<g id="Прямоугольник_x2C__скругл._углы_1_копия_2_">
		<g>
			<path class="st2" d="M72.3,77.4c-1.3,0-2.6-0.3-3.7-1l-27.7-16c-1.7-1-3-2.6-3.5-4.6c-0.5-1.9-0.3-4,0.7-5.7l16-27.7
				c1.3-2.3,3.8-3.8,6.5-3.8c1.3,0,2.6,0.3,3.7,1l27.7,16c3.6,2.1,4.8,6.7,2.7,10.2l-16,27.7C77.4,76,74.9,77.4,72.3,77.4
				C72.3,77.4,72.3,77.4,72.3,77.4z"/>
		</g>
		<g>
			<path class="st3" d="M60.6,21.2c0.8,0,1.7,0.2,2.5,0.7l27.7,16c2.4,1.4,3.2,4.4,1.8,6.8l-16,27.7c-0.9,1.6-2.6,2.5-4.3,2.5
				c-0.8,0-1.7-0.2-2.5-0.7L42,58.3c-2.4-1.4-3.2-4.4-1.8-6.8l16-27.7C57.1,22.1,58.8,21.2,60.6,21.2 M60.6,16.2
				c-3.6,0-6.9,1.9-8.7,5l-16,27.7c-1.3,2.3-1.7,5-1,7.6c0.7,2.6,2.3,4.7,4.7,6.1l27.7,16c1.5,0.9,3.2,1.3,5,1.3
				c3.6,0,6.9-1.9,8.7-5l16-27.7c1.3-2.3,1.7-5,1-7.6c-0.7-2.6-2.3-4.7-4.7-6.1l-27.7-16C64,16.7,62.3,16.2,60.6,16.2L60.6,16.2z"/>
		</g>
	</g>
	<g id="Эллипс_1_копия_2_2_">
		<g>
			<ellipse transform="matrix(0.5 -0.866 0.866 0.5 3.8155 93.2847)" class="st1" cx="82.7" cy="43.3" rx="4" ry="4"/>
		</g>
	</g>
	<g id="Эллипс_1_копия_6_2_">
		<g>
			<ellipse transform="matrix(0.5 -0.866 0.866 0.5 -7.6371 81.9338)" class="st1" cx="67.1" cy="47.6" rx="4" ry="4"/>
		</g>
	</g>
	<g id="Эллипс_1_копия_3_2_">
		<g>
			<ellipse transform="matrix(0.5 -0.866 0.866 0.5 -20.0558 70.3232)" class="st1" cx="50.9" cy="52.5" rx="4" ry="4"/>
		</g>
	</g>
	<g id="Эллипс_1_копия_4_2_">
		<g>
			<ellipse transform="matrix(0.5 -0.866 0.866 0.5 3.5616 69.8859)" class="st1" cx="62.3" cy="31.9" rx="4" ry="4"/>
		</g>
	</g>
	<g id="Эллипс_1_копия_5_2_">
		<g>
			<ellipse transform="matrix(0.5 -0.866 0.866 0.5 -20.3652 93.4975)" class="st1" cx="70.8" cy="64.4" rx="4" ry="4"/>
		</g>
	</g>
	<g>
		<path class="st4" d="M18.8,77.6c-3.4,0-6.4-2.3-7.2-5.6L3.3,41.2c-0.5-1.9-0.3-4,0.7-5.7c1-1.7,2.6-3,4.6-3.5l31.9-8.5
			c0.6-0.2,1.3-0.3,1.9-0.3c3.4,0,6.4,2.3,7.2,5.6l8.3,30.9c1.1,4-1.3,8.1-5.3,9.2l-31.9,8.5C20.1,77.6,19.4,77.6,18.8,77.6z"/>
	</g>
	<g id="Фигура_2_2_">
		<g>
			<path class="st1" d="M43.3,54.7c-0.3-1.1-1.4-1.7-2.4-1.4c-0.7,0.2-1.3,1-1.7,1.5c0,0-1.7,2.5-6.2,3.7c-4.2,1.1-6.8,0.1-7.3-0.1
				c-0.7-0.5-1.4-0.7-2.2-0.4c-1.1,0.3-1.7,1.4-1.4,2.4c0.2,0.8,0.7,1.2,1.5,1.7c0,0,4.7,1.9,10.4,0.3c5.8-1.5,8.9-5.5,8.9-5.5
				C43.4,56.2,43.5,55.4,43.3,54.7z"/>
		</g>
	</g>
	<g id="Фигура_4_2_">
		<g>
			<circle class="st1" cx="21.6" cy="47.2" r="4"/>
		</g>
	</g>
	<g id="Фигура_4_копия_3">
		<g>
			<circle class="st1" cx="37.6" cy="43.2" r="4"/>
		</g>
	</g>
	<g id="Прямоугольник_x2C__скругл._углы_3_2_">
		<path class="st1" d="M26.1,27.8L24,20.1c-0.3-1.1-1-2.6-2-2.4c-1.1,0.3-1.4,1.1-1.1,2.2l2.3,8.7c0.3,1.1,1.1,0.7,2.2,0.4
			C26.5,28.7,26.4,28.9,26.1,27.8z"/>
	</g>
	<g>
		<path class="st4" d="M19.9,17.5c-3.4,0-6.4-2.3-7.2-5.6c-0.5-1.9-0.3-4,0.7-5.7c1-1.7,2.6-3,4.6-3.5c0.6-0.2,1.3-0.3,1.9-0.3
			c3.4,0,6.4,2.3,7.2,5.6c0.5,1.9,0.3,4-0.7,5.7c-1,1.7-2.6,3-4.6,3.5C21.2,17.4,20.6,17.5,19.9,17.5z"/>
	</g>
	<g>
		<path class="st5" d="M47.2,29.4c-0.6-2.2-2.6-3.7-4.8-3.7c-0.4,0-0.9,0.1-1.3,0.2L9.2,34.4c-2.7,0.7-4.3,3.5-3.5,6.1L14,71.4
			c0.6,2.2,2.6,3.7,4.8,3.7c0.4,0,0.9-0.1,1.3-0.2L52,66.4c2.7-0.7,4.3-3.5,3.5-6.1L47.2,29.4z"/>
		<path class="st3" d="M60.3,59l-8.3-30.9c-1.2-4.4-5.1-7.4-9.7-7.4c-0.9,0-1.7,0.1-2.6,0.3L7.9,29.6c-2.6,0.7-4.7,2.3-6.1,4.7
			c-1.3,2.3-1.7,5-1,7.6l8.3,30.9c1.2,4.4,5.1,7.4,9.7,7.4c0.9,0,1.7-0.1,2.6-0.3l31.9-8.5c2.6-0.7,4.7-2.3,6.1-4.7
			C60.7,64.3,61,61.6,60.3,59z M52,66.4L20.1,75c-0.4,0.1-0.9,0.2-1.3,0.2c-2.2,0-4.2-1.5-4.8-3.7L5.7,40.5
			c-0.7-2.7,0.9-5.4,3.5-6.1l31.9-8.5c0.4-0.1,0.9-0.2,1.3-0.2c2.2,0,4.2,1.5,4.8,3.7l8.3,30.9C56.2,63,54.6,65.7,52,66.4z"/>
	</g>
	<path class="st3" d="M19.9,20c0.9,0,1.7-0.1,2.6-0.3c5.3-1.4,8.5-6.9,7.1-12.2C28.4,3,24.4,0,19.9,0c-0.9,0-1.7,0.1-2.6,0.3
		C14.8,1,12.6,2.7,11.3,5c-1.3,2.3-1.7,5-1,7.6C11.4,17,15.4,20,19.9,20z M18.6,5.2C19.1,5.1,19.5,5,19.9,5c2.2,0,4.2,1.5,4.8,3.7
		c0.7,2.7-0.9,5.4-3.5,6.1c-0.4,0.1-0.9,0.2-1.3,0.2c-2.2,0-4.2-1.5-4.8-3.7C14.4,8.6,16,5.9,18.6,5.2z"/>
	<g>
		<path class="st3" d="M139,26.3c3.5-0.1,6.5-0.2,9-0.2c2.5,0,4.4-0.1,5.9-0.1c4.9,0,8.7,1.1,11.4,3.2s4,5.2,4,9.1
			c0,2.1-0.6,4-1.7,5.7c-1.1,1.7-2.7,3-4.6,3.7c1.1,0.4,2.2,0.9,3.3,1.7c1,0.7,1.9,1.7,2.7,2.7c0.8,1.1,1.4,2.2,1.8,3.5
			c0.4,1.3,0.6,2.6,0.6,3.9c0,4.4-1.4,7.7-4.3,10c-2.9,2.3-7,3.5-12.3,3.5c-1.7,0-3.8,0-6.5-0.1c-2.6,0-5.8-0.1-9.5-0.2l-0.5-0.4
			V26.7L139,26.3z M147.6,32.6V45h5.9c4.5,0,6.8-2.1,6.8-6.3c0-1.7-0.3-3-1-3.9c-0.7-0.9-1.6-1.5-2.8-1.8c-1.2-0.3-2.6-0.5-4.1-0.4
			C150.9,32.7,149.3,32.7,147.6,32.6z M154.3,51.8h-6.7v14.8c0.9,0,1.8-0.1,2.9,0c1.1,0,2.2,0,3.3,0c1.1,0,2.2-0.1,3.2-0.3
			c1-0.2,1.9-0.5,2.7-1.1s1.4-1.4,1.9-2.3c0.5-1,0.7-2.2,0.7-3.7c0-1-0.2-1.9-0.5-2.8s-0.8-1.7-1.4-2.3c-0.6-0.7-1.5-1.2-2.5-1.6
			C156.9,52,155.7,51.8,154.3,51.8z"/>
		<path class="st3" d="M201.4,41.9c3.2,3.2,4.8,7.9,4.8,14c0,2.7-0.3,5.2-1,7.4c-0.7,2.2-1.7,4.1-3,5.6c-1.3,1.5-2.9,2.7-4.8,3.6
			c-1.9,0.8-4.1,1.3-6.5,1.3c-2.4,0-4.5-0.4-6.4-1.3c-1.9-0.8-3.5-2-4.8-3.6c-1.3-1.5-2.3-3.4-3-5.6c-0.7-2.2-1-4.7-1-7.4
			c0-5.5,1.3-9.8,3.9-13c2.6-3.2,6.4-4.8,11.2-4.8C195.3,38.1,198.7,39.4,201.4,41.9z M191,44.7c-4,0-6,3.7-6,11.2
			c0,7.4,2,11.1,6,11.1c4,0,6.1-3.7,6.1-11.1C197,48.5,195,44.7,191,44.7z"/>
		<path class="st3" d="M234.3,39c0.3,1.1,0.4,2.2,0.4,3.2c0,1-0.1,2.1-0.4,3.2l-8.2-0.1v17.9c0,2.1,1,3.1,2.9,3.1h4.2
			c0.5,1.4,0.7,2.7,0.7,3.9c0,1.2-0.1,2-0.2,2.4c-2.8,0.4-5.5,0.6-8.2,0.6c-5.4,0-8.2-2.8-8.2-8.3V45.3l-5.2,0.1
			c-0.2-0.9-0.3-2-0.3-3.2s0.1-2.3,0.3-3.2l5.2,0.1v-4.9c0-2,0.4-3.4,1.1-4.2c0.7-0.8,2-1.2,3.7-1.2h3.4l0.5,0.4v10L234.3,39z"/>
		<path class="st3" d="M268.4,60.7l-4.8,0.1h-9.1l-4.8-0.1l-3.9,12.2c-0.6,0.1-1.3,0.2-2.2,0.2c-0.9,0-1.7-0.1-2.7-0.3l-0.1-0.2
			l15.6-46.2c0.8-0.1,1.8-0.2,3.1-0.2c1.3,0,2.2,0.1,2.8,0.2l15.6,46.2c-0.7,0.5-1.6,0.7-2.7,0.7s-1.9-0.2-2.3-0.5
			c-0.5-0.4-0.8-1.1-1.2-2.2L268.4,60.7z M251.2,56.2l3.9-0.1h7.8c0,0,0.6,0,1.7,0c1.1,0,1.8,0,2.3,0l-4.3-12.9
			c-1.7-5.3-2.9-9.1-3.5-11.4h-0.3c-0.9,3.4-1.6,6.1-2.3,8.1L251.2,56.2z"/>
		<path class="st3" d="M303.3,39.4c0.1,0.7,0.2,1.3,0.2,1.9c0,0.6-0.1,1.3-0.2,1.9l-8.6-0.1V66c0,1.9,0.9,2.9,2.7,2.9h5.2
			c0.3,0.8,0.5,1.5,0.5,2.3c0,0.8,0,1.2-0.1,1.4c-2.1,0.3-4.2,0.4-6.5,0.4c-4.4,0-6.6-1.9-6.6-5.6V43.2l-4.8,0.1
			c-0.1-0.7-0.2-1.3-0.2-1.9c0-0.6,0.1-1.3,0.2-1.9l4.8,0.1v-7.1c0-1.2,0.2-2.1,0.5-2.6c0.4-0.5,1.1-0.8,2.1-0.8h1.8l0.4,0.4v10.2
			L303.3,39.4z"/>
		<path class="st3" d="M329.2,39.4c0.1,0.7,0.2,1.3,0.2,1.9c0,0.6-0.1,1.3-0.2,1.9l-8.6-0.1V66c0,1.9,0.9,2.9,2.7,2.9h5.2
			c0.3,0.8,0.5,1.5,0.5,2.3c0,0.8,0,1.2-0.1,1.4c-2.1,0.3-4.2,0.4-6.5,0.4c-4.4,0-6.6-1.9-6.6-5.6V43.2l-4.8,0.1
			c-0.1-0.7-0.2-1.3-0.2-1.9c0-0.6,0.1-1.3,0.2-1.9l4.8,0.1v-7.1c0-1.2,0.2-2.1,0.5-2.6c0.4-0.5,1.1-0.8,2.1-0.8h1.8l0.4,0.4v10.2
			L329.2,39.4z"/>
		<path class="st3" d="M364.9,70.7c-0.5,1.3-1.3,2.1-2.3,2.6c-2.2-0.8-3.6-2.4-4.2-4.8c-3.5,3.4-6.9,5.1-10.3,5.1
			c-1.7,0-3.2-0.3-4.5-0.8c-1.3-0.5-2.3-1.3-3.2-2.2c-0.8-0.9-1.5-1.9-1.9-3.1s-0.6-2.4-0.6-3.7c0-1.8,0.3-3.4,0.9-4.8
			c0.6-1.4,1.5-2.5,2.5-3.4c1.1-0.9,2.3-1.6,3.8-2c1.5-0.5,3-0.7,4.7-0.7c3.4,0,6.2,0.2,8.3,0.6V50c0-4.7-2-7-6.1-7
			c-3.1,0-6.8,1-11.1,2.9c-1.2-1-1.8-2.4-1.8-3.9c4.9-2.1,9.3-3.2,13.3-3.2c7,0,10.5,3.8,10.5,11.4v14c0,1.6,0.1,3,0.4,4
			C363.7,69.2,364.2,70,364.9,70.7z M358.1,63.9v-6.8c-1.1-0.2-2.2-0.3-3.4-0.4s-2.4-0.1-3.7-0.1c-2.6,0-4.5,0.6-5.9,1.8
			s-2,2.8-2,4.7c0,1.9,0.5,3.4,1.4,4.5c0.9,1.1,2.2,1.7,3.9,1.7c1.7,0,3.4-0.5,5.1-1.4C355.2,67,356.7,65.6,358.1,63.9z"/>
		<path class="st3" d="M394.7,51.2v-0.7c0-1-0.1-2-0.4-2.9c-0.3-1-0.7-1.8-1.3-2.5c-0.6-0.7-1.3-1.3-2.2-1.7
			c-0.9-0.4-1.9-0.6-3.2-0.6c-2.6,0-4.6,1.2-6.1,3.5c-1.5,2.4-2.3,5.7-2.3,10.1c0,4.4,0.7,7.6,2.2,9.8c1.5,2.2,3.5,3.2,6,3.2
			c2.7,0,5.8-1.3,9.2-3.8c1.2,0.7,2,1.8,2.4,3.2c-3.5,3.3-7.4,4.9-11.8,4.9c-2.2,0-4.1-0.4-5.7-1.3c-1.6-0.9-3-2-4.1-3.5
			c-1.1-1.5-2-3.2-2.6-5.2c-0.6-2-0.8-4.2-0.8-6.5c0-3.1,0.4-5.9,1.1-8.2c0.7-2.3,1.7-4.3,2.9-5.8c1.2-1.5,2.7-2.7,4.4-3.4
			c1.7-0.7,3.5-1.1,5.4-1.1c1.9,0,3.6,0.3,5.1,0.9c1.5,0.6,2.7,1.4,3.6,2.3s1.7,2,2.2,3.1c0.5,1.1,0.7,2.2,0.7,3.2
			c0,2.2-0.9,3.3-2.7,3.3C396.3,51.4,395.5,51.3,394.7,51.2z"/>
		<path class="st3" d="M431.4,60.6l2.7,6c1.2,2.7,2.3,4.4,3.3,5.1c-0.7,1-1.7,1.5-3,1.5c-1.3,0-2.2-0.3-2.7-0.8
			c-0.5-0.5-1.1-1.5-1.6-2.7l-3.1-7.1c-0.9-2-1.7-3.3-2.7-4c-0.9-0.7-2.1-1-3.6-1s-2.9,0.1-4.2,0.3v15c-0.7,0.1-1.5,0.2-2.5,0.2
			c-1,0-1.8-0.1-2.5-0.2V23.2l0.4-0.4h1.8c1.1,0,1.8,0.3,2.2,0.8c0.4,0.5,0.5,1.4,0.5,2.6v27.3l2.9-0.1c0.6,0,1.2-0.3,1.6-1
			l7.3-10.7c0.6-0.9,1.1-1.6,1.6-1.9c0.5-0.4,1.1-0.6,1.8-0.6c0.7,0,1.7,0,2.9,0.1l0.4,0.5l-8.6,12.6c-0.6,0.9-1.1,1.5-1.6,1.9
			c1.5,0.3,2.8,1,3.9,1.9C429.6,57.2,430.5,58.7,431.4,60.6z"/>
	</g>
	<g id="Эллипс_4_копия_2_2_">
		<path class="st6" d="M192,18.7c1.7,0,3,1.3,3,3c0,1.7-1.3,3-3,3c-1.7,0-3-1.3-3-3C189,20.1,190.3,18.7,192,18.7 M192,14.7
			c-3.9,0-7,3.1-7,7s3.1,7,7,7c3.9,0,7-3.1,7-7S195.9,14.7,192,14.7L192,14.7z"/>
	</g>
</g>
<image style="overflow:visible;" width="1090" height="1391" xlink:href="../../../cassino logo/3.jpg"  transform="matrix(1 0 0 1 1345.5046 -1074)">
</image>
</svg>
