<?xml version="1.0" encoding="utf-8"?>
<!-- Generator: Adobe Illustrator 17.1.0, SVG Export Plug-In . SVG Version: 6.00 Build 0)  -->
<!DOCTYPE svg PUBLIC "-//W3C//DTD SVG 1.1//EN" "http://www.w3.org/Graphics/SVG/1.1/DTD/svg11.dtd">
<svg version="1.1" id="Layer_1" xmlns="http://www.w3.org/2000/svg" xmlns:xlink="http://www.w3.org/1999/xlink" x="0px" y="0px"
	 width="164.8px" height="74.3px" viewBox="25.9 2.4 164.8 74.3" enable-background="new 25.9 2.4 164.8 74.3" xml:space="preserve"
	>
<g>
	<g>
		<path fill="#A02F17" d="M76.3,20.4C72.5,8.2,59.9,0.4,47.3,2.9c-7,1.3-12.4,4.6-16.1,9.6c-1.8,2.3-3.2,5-4.2,7.9
			c-3.1,9.8,0.2,20.4,7.7,26.9c0,0,0,0,0,0c7,6.1,16.9,8.2,26.2,4.7C73.5,47.1,80.4,33.2,76.3,20.4z M67.1,20.4
			c0.1,0.6-0.2,0.8-0.8,0.8c-1.9,0-3.9,0-5.8,0c-1.8,0-3.6,0-5.4,0c-0.8,0-1.2-0.2-1.1-1.1c0-0.1,0-0.2,0-0.3c0-1.8,0-1.8,1.7-1.8
			c3.4,0,6.8,0,10.2,0c1,0,1.3,0.2,1.2,1.2C67,19.6,67,20,67.1,20.4z M37.5,12.5c4.7,0.1,9.5,0,14.2,0c4.7,0,9.5,0,14.2,0
			c1,0,1.4,0.2,1.2,1.2c-0.1,0.4,0,0.8,0,1.2c0,0.5-0.1,0.7-0.6,0.7c-0.2,0-0.4,0-0.6,0c-9.4,0-18.8,0-28.3,0
			c-1.5,0-1.2-0.8-1.3-1.7C36.2,13,36.3,12.5,37.5,12.5z M36.3,19.2c-0.1-0.9,0.2-1.2,1.1-1.1c1.8,0.1,3.6,0,5.4,0
			c1.8,0,3.7,0,5.5,0c0.7,0,1,0.1,1,0.9c0,2.2,0.1,2.2-2.1,2.2c-3.2,0-6.4-0.1-9.7,0c-1.1,0-1.5-0.3-1.3-1.4
			C36.3,19.6,36.3,19.4,36.3,19.2z M47.3,43.6c-3.3,0-6.5,0-9.8,0c-1,0-1.4-0.3-1.2-1.2c0-0.3,0-0.5,0-0.8c-0.2-1,0.3-1.1,1.2-1.1
			c1.8,0.1,3.6,0,5.4,0c1.8,0,3.7,0,5.5,0c0.7,0,0.9,0.2,0.9,0.9C49.3,43.6,49.4,43.6,47.3,43.6z M49.3,36c-0.1,0.4,0,0.8,0,1.2
			c0.1,0.6-0.2,0.8-0.8,0.8c-1.9,0-3.9,0-5.8,0c-1.8,0-3.6,0-5.4,0c-0.8,0-1-0.1-1-1c0-2.1,0-2.1,2.1-2.1c3.3,0,6.5,0,9.8,0
			C49,34.8,49.5,35,49.3,36z M47.9,32.4c-3.5-0.1-7-0.1-10.5,0c-0.9,0-1.3-0.2-1.1-1.1c0-0.3,0-0.7,0-1c-0.1-0.7,0.2-0.9,0.9-0.9
			c1.9,0,3.8,0,5.7,0c1.8,0,3.7,0,5.5,0c0.8,0,1.1,0.2,1,1c0,0.2,0,0.4,0,0.6C49.5,32.1,49.1,32.4,47.9,32.4z M51.6,26.8
			c-4.7,0-9.5,0-14.2,0c-0.9,0-1.2-0.3-1.1-1.2c0-1.9,0-1.9,1.9-1.9c9.2,0,18.5,0,27.7,0c1.2,0,1.3,0.4,1.2,1.4
			c-0.1,0.8,0.4,1.8-1.2,1.7C61.1,26.7,56.3,26.8,51.6,26.8z M65,32.4c-1.5,0-3,0-4.5,0c-1.7,0-3.4-0.1-5,0
			c-1.5,0.1-1.5-0.6-1.5-1.7c0-1.1,0.3-1.4,1.4-1.4c3.6,0.1,7.2,0,10.8,0c0.7,0,1,0.2,1,0.9C67.1,32.4,67.1,32.4,65,32.4z
			 M67.1,42.6c0.1,0.8-0.2,1-1,1c-3.7,0-7.3,0-11,0c-0.9,0-1.3-0.3-1.1-1.2c0-0.3,0-0.5,0-0.8c-0.1-0.9,0.2-1.2,1.1-1.2
			c1.8,0.1,3.6,0,5.4,0c1.9,0,3.7,0,5.6,0c0.9,0,1.2,0.2,1,1.1C67,41.9,67,42.3,67.1,42.6z M67.1,36c-0.1,0.4,0,0.8,0,1.2
			c0.1,0.6-0.2,0.8-0.8,0.8c-1.9,0-3.9,0-5.8,0c-1.8,0-3.5,0-5.3,0c-0.9,0-1.3-0.1-1.3-1.2c0.1-1.9,0-1.9,2-1.9c3.3,0,6.6,0,9.9,0
			C66.8,34.8,67.3,35,67.1,36z"/>
		<path fill="#626162" d="M123.4,25.3c0-6.7,0-13.3,0-20c0-1,0.2-1.4,1.3-1.4c3.1,0.1,3.1,0,3.1,3.2c0,1.5,0.1,2.9,0,4.4
			c0,0.8,0.3,1,1,1c1.2-0.1,2.3,0,3.5,0c2.8,0.1,4.6,1.8,4.6,4.6c0,9.5,0,19,0,28.5c0,0.8-0.2,1.1-1.1,1.1c-3.4,0-3.4,0.1-3.4-3.4
			c0-8.4,0-16.9,0-25.3c0-1-0.3-1.3-1.3-1.2c-1.1,0.1-2.5-0.3-3.1,0.2c-0.7,0.6-0.2,2.1-0.2,3.2c0,8.4,0,16.8,0,25.2
			c0,1.1-0.3,1.4-1.4,1.3c-3.1-0.1-3.1,0-3.1-3.1C123.4,37.5,123.4,31.4,123.4,25.3z"/>
		<path fill="#626162" d="M154.8,31.4c0,4.7,0,9.4,0,14.1c0,1-0.3,1.3-1.2,1.2c-2.5-0.1-4.9,0-7.4,0c-3.2,0-5-1.8-5-5
			c0-4.6,0-9.2,0-13.8c0-3.2,1.8-5,5-5.1c1.3,0,3,0.4,3.7-0.2c0.8-0.7,0.2-2.5,0.3-3.8c0-0.2,0-0.4,0-0.6c0.2-1-0.2-1.3-1.2-1.3
			c-1.9,0.1-3.8,0-5.7,0c-0.7,0-1-0.1-1-0.9c-0.1-3.5-0.1-3.5,3.4-3.5c1.4,0,2.8,0,4.3,0c2.9,0,4.7,1.8,4.8,4.8
			C154.8,21.9,154.8,26.6,154.8,31.4z M150.3,34.6c0-2.2,0-4.4,0-6.6c0-0.7-0.2-0.9-0.9-0.9c-0.9,0.1-1.8,0.1-2.7,0
			c-0.9-0.1-1.1,0.3-1.1,1.1c0,3.4,0,6.9,0,10.3c0,3.7,0,3.7,3.7,3.6c0.8,0,0.9-0.3,0.9-1C150.3,39,150.3,36.8,150.3,34.6z"/>
		<path fill="#626162" d="M99.3,31.4c0,4.6,0,9.3,0,13.9c0,1-0.2,1.4-1.3,1.3c-2.4-0.1-4.9,0-7.4,0c-3.2,0-5-1.9-5.1-5
			c0-4.6,0-9.2,0-13.8c0-3.2,1.9-5,5-5.1c0.1,0,0.2,0,0.3,0c1.2-0.1,2.5,0.2,3.7-0.2c0-1.8,0.1-3.6,0.1-5.4c0-0.6-0.6-0.4-0.9-0.4
			c-1.9,0-3.9,0-5.8,0c-0.8,0-1.1-0.2-1.1-1c0-3.4,0-3.4,3.3-3.4c1.5,0,2.9,0,4.4,0c2.9,0,4.7,1.9,4.7,4.8
			C99.3,21.9,99.3,26.6,99.3,31.4z M94.8,34.7c0-2.2,0-4.5,0-6.7c0-0.6-0.2-0.9-0.9-0.9c-0.9,0.1-1.9,0.1-2.8,0
			c-0.8,0-0.9,0.3-0.9,1c0,4.4,0,8.8,0,13.1c0,0.7,0.2,0.9,0.9,0.9c0.9,0,1.9-0.1,2.8,0c0.8,0,0.9-0.2,0.9-1
			C94.7,39,94.8,36.9,94.8,34.7z"/>
		<path fill="#626162" d="M159,29.5c0-5.3,0-10.7,0-16c0-0.9,0.3-1.1,1.1-1.1c3.3,0,3.3,0,3.3,3.3c0,8.4,0,16.8,0,25.2
			c0,1,0.2,1.4,1.3,1.3c1.1-0.1,2.5,0.3,3.1-0.2c0.7-0.6,0.2-2.1,0.3-3.2c0-8.3,0-16.7,0-25c0-1.1,0.3-1.4,1.3-1.4
			c3.2,0.1,3.2,0,3.2,3.3c0,8.5,0,17,0,25.6c0,3.7-1.7,5.4-5.4,5.4c-2.3,0-4.6-0.1-6.8,0c-1.2,0.1-1.4-0.4-1.4-1.4
			C159.1,40,159,34.7,159,29.5z"/>
		<path fill="#626162" d="M186,36.9c0-1.4,0-2.8,0-4.3c0-0.8-0.2-1.1-1-1c-1.1,0.1-2.2,0-3.4,0c-2.6-0.1-4.5-1.5-4.6-4.1
			c-0.2-3.3-0.4-6.6,0.1-9.9c0.6-3.7,3.6-5.8,7.3-5.6c3.2,0.2,5.9,3.1,6.1,6.6c0.1,2.5,0.1,2.5-2.4,2.5c-2.2,0-2.2,0-2.2-2.3
			c0-2.2,0-2.2-2.1-2.2c-2.4,0-2.4,0-2.4,2.4c0,2.2,0.1,4.5,0,6.7c0,1.1,0.3,1.3,1.3,1.3c1-0.1,2,0,3,0c2.7,0.1,4.6,1.6,4.8,4.2
			c0.2,3.3,0.4,6.7-0.1,10c-0.4,3-3.4,5.6-6.6,5.5c-3.4-0.1-6.1-2.4-6.7-5.4c-0.7-3.7,0-4.4,3.7-3.9c0.5,0.1,0.6,0.3,0.6,0.7
			c0,0.9,0.1,1.7,0,2.6c-0.1,0.9,0.3,1.2,1.2,1.1c1.1-0.1,2.6,0.5,3.2-0.3c0.5-0.6,0.2-2,0.2-3.1C186,38.1,186,37.5,186,36.9z"/>
		<path fill="#626162" d="M112.3,23.6c0-6.2,0-12.4,0-18.6c0-0.9,0.2-1.2,1.1-1.2c3.3,0,3.3,0,3.3,3.3c0,1.4,0.1,2.8,0,4.1
			c0,0.9,0.3,1.1,1.1,1.1c0.9-0.1,1.7,0,2.6,0c0.7,0,0.9,0.2,0.9,0.9c0.1,3.5,0.2,3.5-3.4,3.5c-1,0-1.2,0.3-1.2,1.2
			c0,9.3,0,18.5,0,27.8c0,1.5-0.1,1.5-1.4,1c-1.9-0.7-3-2.4-3-4.6C112.3,35.9,112.3,29.8,112.3,23.6z"/>
		<path fill="#626162" d="M108.1,25.5c0,6.8,0,13.5,0,20.3c0,1-0.2,1.4-1.3,1c-1.9-0.6-3.3-2.3-3.3-4.4c0-12.5,0-25.1,0-37.6
			c0-0.8,0.3-0.9,1-0.9c3.6-0.1,3.6-0.1,3.6,3.5C108.1,13.4,108.1,19.4,108.1,25.5z"/>
	</g>
	<g>
		<path fill="#575755" d="M156.5,57.9c0-2.2-1.2-3.6-3.4-3.6c-2.1,0-3.2,1.4-3.2,3.5c-0.1,4,0,8,0,11.9c0,1.6,0.9,2.4,2.4,2.6
			c0.9,0.1,2.1-0.4,2,1.3c-0.2,1.7-1.5,0.8-2.3,1c-0.4,0.1-0.9-0.1-1.3,0c-1.1,0.3-1.1,1.5-0.6,1.8c1.5,0.8,3.3,0.5,4.9,0.2
			c1.2-0.2,1.5-1.3,1.5-2.5c0-2.7,0-5.3,0-8C156.5,63.4,156.6,60.7,156.5,57.9z M153.1,70.1c-0.8,0-1-0.5-1-1.2c0-3.7,0-7.4,0-11.1
			c0-0.7,0.3-1.1,1.1-1.2c1,0,1.2,0.5,1.2,1.3c0,1.9,0,3.7,0,5.6c0,1.8,0,3.5,0,5.3C154.4,69.7,154.1,70.2,153.1,70.1z"/>
		<path fill="#575755" d="M189.4,59c0-4.4-0.4-4.7-4.9-4.7c-1.5,0-2,0.4-2,1.9c0.1,3,0,6,0,9c0,3.2,0,6.4,0,9.5c0,0.8-0.5,1.9,1,2
			c1.7,0.1,1.2-1.2,1.2-2c0-1.5,0.1-2.5,2-2.4c1.9,0.1,2.6-1.2,2.5-3C189.4,65.8,189.4,62.4,189.4,59z M186.1,70.1
			c-1.5,0-1.3-1.1-1.3-2c0-1.6,0-3.2,0-4.8c0-1.7,0-3.3,0-5c0-0.8-0.2-1.8,1.2-1.9c1.4,0,1.3,0.8,1.3,1.7c0,3.3,0,6.7,0,10
			C187.3,69.1,187.5,70.1,186.1,70.1z"/>
		<path fill="#575755" d="M180.4,56.1c0-0.9,0.2-1.9-1.2-1.8c-1.3,0.1-0.9,1.1-0.9,1.8c0,3.9,0,7.8,0,11.7c0,0.8,0.6,2.2-1,2.2
			c-1.6,0.1-1.1-1.3-1.2-2.1c0-3.9,0-7.8,0-11.7c0-0.8,0.3-1.8-1.1-1.9c-1.4,0-1.2,0.9-1.2,1.8c0,2.4,0,4.8,0,7.2s0,4.8,0,7.2
			c0,0.6-0.2,1.5,0.4,1.7c1.6,0.5,3.3,0.5,4.9,0c1.3-0.4,1.5-1.5,1.5-2.8C180.4,64.9,180.4,60.5,180.4,56.1z"/>
		<path fill="#575755" d="M171.4,57.8c-0.1-2.1-1.2-3.4-3.3-3.4c-2-0.1-3.3,1.1-3.4,3.1c-0.2,3.9-0.2,7.8,0,11.7
			c0.1,2,1.5,3.3,3.5,3.2c2-0.1,3.1-1.5,3.1-3.6c0-1.8,0-3.5,0-5.3C171.4,61.5,171.4,59.6,171.4,57.8z M168.1,69.8
			c-0.8,0-1.1-0.3-1.1-1.1c0-3.5,0-7.1,0-10.6c0-0.8,0.2-1.3,1.2-1.3c0.8,0,1,0.5,1,1.2c0,1.8,0,3.5,0,5.3c0,1.8,0,3.5,0,5.3
			C169.2,69.4,169,69.8,168.1,69.8z"/>
		<path fill="#575755" d="M162.3,54.3c-2.1-0.3-3.4,0.6-3.5,2.9c-0.1,2.2,0,4.4,0,6.6c0,2.2,0,4.4,0,6.6c0,0.8-0.3,1.9,1.1,2
			c1.6,0.1,1.3-1.1,1.3-2c0-3.9,0-7.8,0-11.7c0-1-0.3-2.2,1.4-2.2c0.9,0,0.8-0.8,0.8-1.4C163.3,54.4,162.8,54.4,162.3,54.3z"/>
	</g>
</g>
</svg>
