<?xml version="1.0" encoding="utf-8"?>
<!-- Generator: Adobe Illustrator 17.1.0, SVG Export Plug-In . SVG Version: 6.00 Build 0)  -->
<!DOCTYPE svg PUBLIC "-//W3C//DTD SVG 1.1//EN" "http://www.w3.org/Graphics/SVG/1.1/DTD/svg11.dtd">
<svg version="1.1" id="Layer_1" xmlns="http://www.w3.org/2000/svg" xmlns:xlink="http://www.w3.org/1999/xlink" x="0px" y="0px"
	 width="235.8px" height="59.3px" viewBox="-11.1 9.6 235.8 59.3" enable-background="new -11.1 9.6 235.8 59.3"
	 xml:space="preserve">
<g>
	<path fill="#15172F" d="M-11.1,44.8c1,0.3,1.8,0.9,2.7,1.4c3.6,2,7.1,4.1,10.6,6.1C2.7,52.6,3,52.9,3,53.5c0,5.1,0,10.2,0,15.3
		c-0.5,0.1-0.8-0.3-1.2-0.5c-4-2.3-7.9-4.6-11.9-6.8c-0.3-0.2-0.6-0.5-1.1-0.5C-11.1,55.6-11.1,50.2-11.1,44.8z"/>
	<path fill="#15172F" d="M-11.1,22.8c0.6,0,1,0.4,1.5,0.7c3.9,2.2,7.9,4.5,11.8,6.8C2.6,30.6,3,30.8,3,31.5c0,5.1,0,10.2,0,15.3
		c-0.5,0.1-0.8-0.3-1.2-0.5c-4-2.3-7.9-4.5-11.9-6.8c-0.3-0.2-0.6-0.5-1.1-0.5C-11.1,33.7-11.1,28.2-11.1,22.8z"/>
	<path fill="#16182F" d="M76,39.9c0.7,0.2,1.1,0.4,1.5,0.5c2.5,1.1,4.1,2.9,4.4,5.6c0.2,2.5,0.3,5.1-0.2,7.6
		c-0.7,3.7-3.3,5.9-7.1,6.3c-3.1,0.3-6.2,0.1-9.3,0.1c-3.9,0-7.8,0-11.7,0c-1.6,0-2-0.3-2-1.9c0-11,0-22.1,0-33.1
		c0-1.6,0.3-1.9,1.9-1.9c5.7,0,11.4,0,17.1,0c1,0,2.1,0.1,3.1,0.3c3.3,0.8,5.3,2.8,6,6.2c0.4,1.8,0.4,3.6,0.2,5.3
		C79.5,37.2,78.3,38.9,76,39.9z M65.5,54C65.5,54,65.5,54,65.5,54c2.2,0,4.4,0,6.6,0c2,0,3.2-1,3.3-3c0.1-1.5,0.1-2.9,0-4.4
		c-0.2-2-1.4-3.1-3.5-3.1c-4.3,0-8.7,0-13,0c-0.7,0-0.8,0.3-0.8,0.9c0,2.9,0,5.9,0,8.8c0,0.7,0.2,0.9,0.9,0.8
		C61.1,54,63.3,54,65.5,54z M64.3,37.4c1.7,0,3.4,0,5.1,0c1.1,0,2.3-0.1,3-1.1c1.2-1.6,1.1-3.4,0.6-5.1c-0.5-1.6-1.8-2-3.3-2
		c-3.7,0-7.3,0-11,0c-0.6,0-0.7,0.2-0.7,0.8c0,2.2,0,4.5,0,6.7c0,0.6,0.2,0.8,0.8,0.8C60.6,37.4,62.5,37.4,64.3,37.4z"/>
	<path fill="#171930" d="M104.7,57.2c-1.6,3-4.1,3.6-6.9,3.4c-1.4-0.1-2.8,0-4.2-0.2c-3.2-0.5-5.1-2.3-5.7-5.5
		c-0.3-1.9-0.3-3.7,0-5.6c0.7-3.4,3-5.3,7.1-5.4c2.9-0.1,5.9-0.1,8.8,0c0.9,0,1-0.3,1-1.1c0-4.2-0.8-5-4.9-5c-0.8,0-1.6,0-2.4,0
		c-1.5,0.1-2.3,0.8-2.6,2.3c-0.3,1.8-0.4,1.9-2.2,1.9c-0.7,0-1.4,0-2,0c-1.1,0-1.5-0.6-1.5-1.7c0-4.7,2.8-7.7,7.5-7.8
		c2.7-0.1,5.3-0.3,8,0.2c3.3,0.6,5.3,2.8,5.7,6.2c0.3,2,0.2,4,0.2,6c0,4.3,0,8.7,0,13c0,1.7-0.4,2-2,2c-0.3,0-0.6,0-1,0
		C105,60.1,105,60.1,104.7,57.2z M100.2,49c-1.3,0-2.5,0-3.8,0c-2,0.1-2.9,1-2.9,3.1c0,2.2,0.8,3.2,2.9,3.3c1.1,0,2.2,0,3.3,0
		c3.7,0,5.4-1.9,5.2-5.6c0-0.6-0.2-0.8-0.8-0.7C102.8,49,101.5,49,100.2,49z"/>
	<path fill="#16182F" d="M178.5,45.7c0.1-1.6-0.3-4.2,0.2-6.8c0.6-3.6,2.6-5.6,6.1-6c3.8-0.4,7.7-0.4,11.6,0
		c3.8,0.4,5.8,2.6,6.1,6.6c0.4,4.8,0.4,9.6,0,14.3c-0.3,4.2-2.6,6.3-6.7,6.7c-3.5,0.3-7.1,0.4-10.6,0c-4.1-0.4-6.5-3-6.6-7.2
		C178.4,51.1,178.5,48.9,178.5,45.7z M184.2,46.6C184.2,46.6,184.2,46.6,184.2,46.6c0,1.8,0,3.6,0,5.4c0,2,1.1,3.2,3.1,3.3
		c2.1,0.1,4.3,0.1,6.4,0c2-0.1,3.1-1.3,3.1-3.4c0-3.5,0-7.1,0-10.6c0-2.1-1.2-3.3-3.3-3.4c-2,0-4,0-6,0c-2.2,0-3.3,1.2-3.4,3.4
		C184.1,43.1,184.2,44.9,184.2,46.6z"/>
	<path fill="#171930" d="M148.6,46.6c0-2.3-0.1-4.6,0-6.9c0.2-3.7,2.3-6.2,5.9-6.7c3.9-0.5,7.9-0.5,11.8,0c3.2,0.5,5.1,2.6,5.6,5.8
		c0.2,1.1,0.2,2.1,0.2,3.2c0,1-0.5,1.5-1.6,1.5c-0.8,0-1.6,0-2.4,0c-1.3,0-1.7-0.3-1.7-1.7c0-0.6-0.1-1.1-0.2-1.7
		c-0.3-1.3-1.4-2.1-2.9-2.2c-2,0-4-0.1-6,0c-1.8,0-3,1.1-3,2.9c-0.1,3.8-0.1,7.6,0,11.5c0,1.7,1,2.8,2.7,2.9c2.2,0.2,4.4,0.2,6.6,0
		c1.8-0.2,2.7-1.3,2.9-3.3c0.1-2,0.3-2.1,2.3-2.1c0.4,0,0.8,0,1.2,0c2,0,2.3,0.3,2.3,2.3c0,0.9-0.1,1.8-0.2,2.6
		c-0.7,3.4-2.8,5.4-6.2,5.8c-3.5,0.4-7.1,0.4-10.6,0c-3.9-0.4-6.3-2.9-6.5-6.9C148.5,51.3,148.6,48.9,148.6,46.6z"/>
	<path fill="#171930" d="M123.7,35.8c1.6-2.7,4-3.3,6.9-3.1c1.5,0.1,3-0.1,4.4,0.1c3.9,0.5,6.3,3,6.4,6.9c0.2,6.3,0.1,12.7,0.1,19
		c0,1-0.5,1.4-1.4,1.4c-0.8,0-1.5,0-2.3,0c-1.7,0-2-0.4-2-2c0-5.2,0-10.4,0-15.6c0-0.4,0-0.8,0-1.2c-0.1-2.1-1.2-3.2-3.3-3.3
		c-1.4,0-2.8,0-4.2,0c-3,0-4.7,1.7-4.7,4.8c0,5,0,10,0,15c0,2.2-0.2,2.4-2.4,2.4c-3.3,0-3.3,0-3.3-3.4c0-7.1,0-14.2,0-21.4
		c0-1.9,0.3-2.2,2.2-2.2c0.3,0,0.6,0,0.8,0C123.4,33.2,123.4,33.2,123.7,35.8z"/>
	<path fill="#16182F" d="M27.6,42.2c0,2.4,0,4.7,0,7.1c0,2.7,0,5.5,0,8.2c0,0.6-0.1,0.9-0.7,1.2C21,62,15.1,65.4,9.2,68.8
		c-0.1,0.1-0.2,0.1-0.3,0.1c-0.3-0.3-0.2-0.6-0.2-0.9c0-4.8,0-9.5,0-14.3c0-0.5,0.1-0.9,0.6-1.3c5.9-3.4,11.9-6.7,17.8-10.1
		C27.3,42.3,27.4,42.3,27.6,42.2z"/>
	<path fill="#16182F" d="M22.9,22.7c0,4.7-0.1,9.2,0.1,13.7c0.1,2-0.6,3-2.3,3.9c-4,2.1-7.8,4.4-11.7,6.6c-0.4-0.2-0.2-0.4-0.2-0.6
		c0-4.9,0-9.7,0-14.6c0-0.5-0.1-0.9,0.5-1.2C13.7,28,18.2,25.4,22.9,22.7z"/>
	<path fill="#16182F" d="M20.6,17.6c-4.7,2.7-9.1,5.3-13.6,7.8c-0.3,0.2-0.6,0.3-1,0c-4.4-2.6-8.8-5.2-13.2-7.8
		c0.1-0.5,0.5-0.5,0.8-0.7c4-2.4,8.1-4.7,12.1-7.1c0.4-0.2,0.7-0.5,1.2-0.2C11.4,12.3,15.9,14.9,20.6,17.6z"/>
	<path fill="#171A32" d="M215.6,35.9c1.8-3.4,4.9-3.3,8-3.2c0.7,0,1.1,0.5,1.1,1.2c0,1,0,1.9,0,2.9c0,1-0.5,1.5-1.5,1.5
		c-1.2,0-2.3,0-3.5,0c-2.4,0.1-4.1,1.5-4.3,3.9c-0.2,2-0.1,4-0.1,6c0,3.4,0,6.8,0,10.1c0,1.5-0.3,1.8-1.8,1.9c-0.7,0-1.4,0-2.1,0
		c-1.4,0-1.7-0.4-1.8-1.8c0-1.2,0-2.5,0-3.7c0-6.4,0-12.8,0-19.2c0-1.9,0.3-2.2,2.1-2.2c0.5,0,1,0,1.4,0c1.9,0,2.1,0.2,2.2,2.1
		c0,0.1,0,0.3,0,0.4C215.4,35.7,215.5,35.8,215.6,35.9z"/>
</g>
</svg>
