<?xml version="1.0" encoding="utf-8"?>
<!-- Generator: Adobe Illustrator 17.1.0, SVG Export Plug-In . SVG Version: 6.00 Build 0)  -->
<!DOCTYPE svg PUBLIC "-//W3C//DTD SVG 1.1//EN" "http://www.w3.org/Graphics/SVG/1.1/DTD/svg11.dtd">
<svg version="1.1" id="Layer_1" xmlns="http://www.w3.org/2000/svg" xmlns:xlink="http://www.w3.org/1999/xlink" x="0px" y="0px"
	 width="149.9px" height="69.1px" viewBox="0 0 149.9 69.1" enable-background="new 0 0 149.9 69.1" xml:space="preserve">
<g>
	<path fill="#D46F32" d="M1.4,48.7c-0.7-4.4,1.7-8.3,6-10c3.1-1.2,6.4-1.2,9.7-0.7c2.9,0.5,5.6,1.6,8,3.3c0.4,0.3,0.5,0.5,0.2,0.9
		c-1.2,1.6-2.3,3.3-3.5,4.9c-0.3,0.4-0.5,0.5-0.9,0.2c-2.3-1.5-4.8-2.5-7.6-2.6c-0.7,0-1.5,0-2.1,0.3c-0.7,0.3-1.2,0.8-1.3,1.6
		c-0.1,0.8,0.4,1.4,1.1,1.7c1.4,0.7,2.9,1,4.4,1.4c2.1,0.5,4.2,1.1,6.2,2c6.9,3.1,5.7,11.8,1.5,14.8c-1.2,0.9-2.5,1.6-4,1.9
		c-1.8-2.1-3.7-4.2-5.5-6.3c0.8,0,1.7,0.1,2.5-0.2c0.4-0.1,0.7-0.2,1.1-0.4c1.1-0.7,1.1-2.2,0-3c-0.9-0.6-1.8-0.8-2.8-1.1
		c-2-0.5-4-0.9-5.9-1.6c-0.3-0.1-0.5-0.2-0.8-0.3c-0.1,0-0.1-0.1-0.2-0.1c0,0,0,0,0,0c0-0.3-0.2-0.5-0.4-0.7
		c-0.7-0.8-1.4-1.6-2.1-2.3C3.7,51.2,2.7,49.8,1.4,48.7z"/>
	<path fill="#66B3CF" d="M57.6,6.5c2.2-3.1,5.2-5,8.9-5.9C66.5,0.9,66.8,0.9,67,1C72.3,3.5,77.6,5.9,83,8.3c1,0.4,1.9,1.1,3,1.3
		c1.5,3.5,1.7,7.1,0.6,10.7c-2,6.7-8.2,11.2-15.4,11.3c-0.9,0-1.9,0.1-2.8-0.2c-0.3-1.2-0.9-2.3-1.4-3.5c-2-4.6-4-9.1-6-13.7
		C59.8,11.7,58.7,9.1,57.6,6.5z M70.9,24c1.2,0,2.4-0.3,3.4-0.8c3-1.5,4.7-5,4.2-8.8c-0.8-5.9-7.6-8.9-12.2-5.3
		c-2.7,2-3.5,4.9-3.1,8.1C63.8,21.1,67,24,70.9,24z"/>
	<path fill="#5DA3AC" d="M87.2,68.6c-3.7,1-7.3,0.8-10.9-0.6c-4.5-1.8-7.5-5-9.1-9.6c-0.1-0.2-0.1-0.3-0.1-0.5
		c0.5-0.2,1.1-0.5,1.6-0.7c2.1-0.9,4.2-2,6.4-2.8c0.1,0.3,0.1,0.6,0.2,0.8c0.8,3.6,3.7,6.2,7.3,6.3c3.5,0.1,6.6-2.1,7.6-5.7
		c0.8-2.7,0.3-5.3-1.3-7.7c2.6-1.1,5.1-2.3,7.7-3.4c1.5,2.2,2.2,4.6,2.4,7.2c-0.1,0.2-0.3,0.3-0.4,0.5c-3.4,4.7-6.8,9.3-10.1,14
		C88.1,67.2,87.4,67.7,87.2,68.6z"/>
	<path fill="#83C6E5" d="M75.1,54.4c-2.2,0.8-4.3,1.9-6.4,2.8c-0.5,0.2-1.1,0.5-1.6,0.7c-1.6-5.7-0.4-10.9,3.6-15.2
		c6.8-7.3,19.4-6.6,25.3,1.3c0.2,0.3,0.5,0.6,0.6,0.9c-2.6,1.1-5.1,2.3-7.7,3.4c-0.1-0.1-0.2-0.2-0.3-0.3c-2-2.3-4.5-3.1-7.4-2.6
		c-2.9,0.6-4.7,2.4-5.6,5.1C75.1,51.7,75.1,53.1,75.1,54.4z"/>
	<path fill="#5DA3AC" d="M43.5,57c-0.6,0-1.3,0.1-1.9,0c-0.5,0-0.7,0.1-0.7,0.6c0,0.7,0,1.4,0,2.2c-0.8,0.6-1.4,1.4-2,2.1
		c-2,2.2-4,4.4-6,6.6c-0.2,0-0.4,0.1-0.4-0.2c0-0.2,0-0.3,0-0.5c0-9.6,0-19.2,0-28.8c0-0.7,0.2-0.8,0.8-0.8c2.3,0,4.6,0,7,0
		c0.5,0,0.6,0.1,0.6,0.6c0,3.3,0,6.6,0,9.9c0,0.7,0.2,0.8,0.8,0.8c2.8,0,5.6,0,8.3,0c-1.5,1.7-3,3.3-4.5,5C44.8,55.4,44,56,43.5,57z
		"/>
	<path fill="#88118E" d="M142.4,8.6c-1.3,1.5-2.6,3.1-4,4.6c-0.3,0.4-0.3,0.6-0.1,1c1.7,2.4,3.3,4.8,4.9,7.2c-0.1,1-0.2,2.1-0.3,3.1
		c-0.7-0.3-1.4-0.1-2.1-0.2c-2-0.2-4-0.3-5.9-0.5c-0.8-1.2-1.6-2.3-2.4-3.5c-0.4-0.6-0.6-0.6-1-0.1c0,0.1-0.1,0.1-0.2,0.2
		c0-0.1-0.1-0.2-0.1-0.3c-2.4-5.1-4.8-10.1-7.1-15.2c-0.7-1.4-1.5-2.8-2-4.4c1.5,0,3,0,4.6,0c0.7,0.5,1.5,0.9,2.3,1.1
		c0,3.6,0,7.3,0,10.9c0.1,0,0.1,0,0.2,0c2.2-2.5,4.3-5.1,6.5-7.6c0.1,0.3,0.3,0.4,0.5,0.5c0.9,0.5,1.8,1,2.8,1.4
		C140.1,7.5,141.2,8.3,142.4,8.6z"/>
	<path fill="#83C6E5" d="M43.5,57c0.5-1,1.4-1.6,2-2.4c1.5-1.7,3-3.3,4.5-5c0.5-0.1,1.2,0.2,1.5-0.1c0.3-0.3,0.1-1,0.1-1.5
		c0-0.1,0-0.1,0-0.2c1.7-1.7,3.3-3.6,5-5.4c1.1-1.2,2.3-2.4,3.4-3.6c0,0.2,0,0.4,0,0.6c0,7.1,0,14.2,0,21.2c0,0.2,0,0.4,0,0.6
		c-1,0.4-1.9,0.8-2.9,1.3c-1.8,0.8-3.7,1.6-5.5,2.4c0-2.2,0-4.4,0-6.7c0-1,0-1-1-1C48.3,57,45.9,57,43.5,57z"/>
	<path fill="#BA50AF" d="M130.2,41.6c1,3,2,6.1,3.1,9.1c0.5,1.6,1.1,3.2,1.7,5c0.9-3,1.8-5.8,2.7-8.6c1.1,1.4,2.1,2.8,3.2,4.2
		c0.9,1.1,1.6,2.3,2.6,3.3c-0.7,2.5-1.6,5.1-2.5,7.6c-0.2,0-0.3-0.1-0.5-0.1c-3.2-1.8-6.4-3.5-9.6-5.3c-1.5-0.8-3-1.6-4.5-2.4
		c-0.4-0.9-0.7-1.9-1.1-2.9c-0.3,0.7-0.5,1.2-0.7,1.8c-0.6-0.1-1-0.5-1.6-0.7c-1.1-0.6-2.1-1.4-3.4-1.7l0,0c-0.1,0-0.1-0.1-0.2-0.1
		c-0.1,0-0.2-0.1-0.3-0.1c0,0,0-0.1,0-0.1c1.2-1,2.4-2,3.6-2.9C125.3,45.4,127.8,43.5,130.2,41.6z"/>
	<path fill="#4F8B9F" d="M31.9,23.4c0-1.8,0-3.5,0-5.3c0.2-0.2,0.3-0.3,0.5-0.5c2.6-3.1,5.3-6.2,7.9-9.3c0,4.6,0,9.2,0,13.8
		c0,1.5,0,1.5,1.5,1.5c4.1,0,8.2,0,12.3,0c0.8,0,0.9,0.2,0.9,0.9c0,1.9,0,3.9,0,5.8c0,0.6-0.2,0.7-0.7,0.7c-1.3,0-2.7,0-4,0
		c-1-0.6-2.2-1-3.3-1.4c-3.7-1.5-7.3-3-11-4.5C34.7,24.4,33.3,23.8,31.9,23.4z"/>
	<path fill="#5EA4C5" d="M119.3,50.4c0.1,0,0.2,0.1,0.3,0.1c0.1,0,0.1,0.1,0.2,0.1c0,0,0,0,0,0c1.5,1.3,2.9,2.7,4.4,4
		c-0.9,2.7-1.8,5.4-2.8,8.1c-0.6,1.8-1.2,3.6-1.8,5.3c-0.1,0.5-0.3,0.7-0.9,0.6c-2.1,0-4.1,0-6.2,0c-0.3,0-0.6,0-0.7-0.4
		c-1-3.2-2.1-6.5-3.2-9.7c1.1-0.9,2.2-1.8,3.3-2.6c1.1-0.8,2-1.8,3.3-2.5c0.4,0.5,0.4,1.3,0.8,1.9c0.5-1.4,0.9-2.7,1.4-4
		c0.3,0,0.5-0.2,0.7-0.3C118.5,50.9,118.8,50.6,119.3,50.4z"/>
	<path fill="#4F8B9F" d="M57.6,6.5c1.1,2.6,2.2,5.1,3.4,7.7c2,4.6,4,9.1,6,13.7c0.5,1.1,1.1,2.2,1.4,3.5c-3.4-0.4-6.3-1.7-8.8-4
		c-5.8-5.2-6.8-14.2-2.3-20.5C57.4,6.7,57.5,6.6,57.6,6.5z"/>
	<path fill="#66B3CF" d="M96.1,2.8c2.3-1.7,4.9-2.5,7.7-2.7c2.7-0.2,5.4,0,7.9,1.2c0,0,0.1,0.1,0.1,0.1c0,0,0,0,0,0
		c1.5,2.2,3.2,4.1,4.8,6.2c-1.5,1.2-3,2.3-4.4,3.5c-0.4,0.3-0.5,0-0.7-0.2c-1.7-1.9-3.7-3.1-6.3-3c-2.3,0-4.1,1.1-5.6,2.8
		c-0.2-0.1-0.4-0.1-0.6-0.2C98.1,7.8,97.1,5.3,96.1,2.8z"/>
	<path fill="#4F8B9F" d="M115.2,53.6c-1.2,0.7-2.2,1.6-3.3,2.5c-1.1,0.9-2.2,1.7-3.3,2.6c-1.3-3.8-2.6-7.7-3.9-11.5
		c-0.3-0.8-0.5-1.5-0.7-2.3c0.6-0.5,1-1.2,1.4-1.8c0.7-1,1.6-1.9,2.1-3l0,0c0.1-0.1,0.1-0.1,0.2-0.2l0,0c0.1,0.1,0.2,0.1,0.3,0.2
		c0.2,0.2,0.5,0.4,0.7,0.6c1.3,1.1,2.5,2.3,3.8,3.4c0.9,3,1.9,6.1,2.8,9.1C115.3,53.3,115.2,53.5,115.2,53.6z"/>
	<path fill="#60A7B2" d="M99,10.3c0.2,0.1,0.4,0.1,0.6,0.2c-1.6,2.5-2.1,5.1-1.3,8c1.2,4.4,5.5,6.5,9.9,4.9c0.1,0,0.2-0.1,0.3-0.1
		c0.3,0,0.5,0.3,0.6,0.5c1.4,1.9,2.8,3.8,4.2,5.7c-2.4,1.5-5.1,2.1-7.9,2.2c-1.6,0-3.3-0.1-4.9-0.6c0-0.2,0-0.3-0.1-0.5
		c-0.8-2.7-1.6-5.5-2.5-8.2c-0.8-2.7-1.7-5.4-2.5-8c0-0.1,0-0.2,0-0.3c0.5-0.4,0.9-0.8,1.3-1.3C97.5,11.9,98.3,11.1,99,10.3z"/>
	<path fill="#DD902E" d="M10.3,12.4c-1.9-1-3.8-1.9-5.7-2.9C3.8,9,3.1,8.6,2.2,8.3c0-2.4,0-4.8-0.1-7.2c0-0.5,0.3-0.4,0.6-0.4
		c2.2,0,4.3,0,6.5,0c1.2,0,2.3,0,3.5,0c1,1.4,2,2.7,3,4.1c0.7,1,1.5,1.8,2.1,2.9c-2.3-0.4-4.7-0.1-7-0.2c-0.5,0-0.4,0.3-0.4,0.6
		C10.4,9.4,10.4,10.9,10.3,12.4z"/>
	<path fill="#DD902E" d="M13.4,62.1c1.8,2.1,3.7,4.2,5.5,6.3c-2.2,0.7-4.5,0.8-6.8,0.6C7.9,68.7,4,67.4,0.6,64.7
		c-0.7-0.6-0.7-0.6-0.2-1.3c1.3-1.5,2.5-3,3.8-4.5c0.3-0.3,0.4-0.4,0.8-0.1C7.5,60.7,10.3,61.8,13.4,62.1z"/>
	<path fill="#DD902E" d="M40.3,8.3c-2.6,3.1-5.2,6.2-7.9,9.3c-0.2,0.2-0.3,0.4-0.5,0.5c0-3.3,0-6.5,0-9.8c0-2.4,0-4.8,0-7.2
		c0-0.5,0.1-0.6,0.6-0.6c2.4,0,4.8,0,7.2,0c0.3,0,0.6,0,0.6,0.5C40.3,3.5,40.3,5.9,40.3,8.3z"/>
	<path fill="#D46F32" d="M17.8,7.6c-0.5-1.1-1.4-1.9-2.1-2.9c-1-1.4-2-2.7-3-4.1c3,0,6-0.3,9,0.4c0.4,0.1,0.8,0.2,1.2,0.4
		c1.1,3.9,2.2,7.8,3.3,11.6c-0.7,0.9-1.7,1.5-2.7,1.9c-1.3-1.7-2.4-3.4-3.8-5C19.6,8.8,18.9,8,17.8,7.6z"/>
	<path fill="#5EA4C5" d="M95.5,14.3c0.8,2.7,1.7,5.4,2.5,8c0.8,2.7,1.7,5.5,2.5,8.2c0,0.2,0.1,0.3,0.1,0.5c-3.8-1-6.7-3.2-8.8-6.4
		c-0.9-1.4-1.6-2.9-1.9-4.5c0.1-0.1,0.3-0.1,0.4-0.2c1.1-1.2,2.1-2.4,3.2-3.6C94.1,15.6,94.6,14.7,95.5,14.3z"/>
	<path fill="#4F8B9F" d="M129.1,23.1c0,2.4,0,4.8,0,7.2c0,0.5-0.1,0.7-0.7,0.7c-2.4,0-4.8,0-7.2,0c-0.3,0-0.6,0-0.6-0.5
		c0-3.6,0-7.2,0-10.7c1.6,0.4,3,1.3,4.5,1.8c1.3,0.5,2.5,1.2,3.8,1.5C129,23.1,129,23.1,129.1,23.1z"/>
	<path fill="#5DA3AC" d="M31.9,23.4c1.4,0.3,2.8,1,4.1,1.6c3.7,1.5,7.3,3,11,4.5c1.1,0.5,2.3,0.8,3.3,1.4c-3.2,0-6.3,0-9.5,0
		c-2.9,0-5.9,0-8.8,0c0,0-0.1-0.1-0.1-0.1C31.9,28.4,31.9,25.9,31.9,23.4z"/>
	<path fill="#963099" d="M143.5,54.6c-1-1-1.7-2.2-2.6-3.3c-1.1-1.4-2.2-2.8-3.2-4.2c0.7-2.4,1.4-4.8,2.2-7.2c0.8,0,1.6,0,2.4,0
		c0.7,1.6,1.4,3.3,2.1,4.9c0.1,0.3,0.3,0.6,0.7,0.7c0.5,0.2,0.9,0.4,1.4,0.6C145.4,48.9,144.5,51.8,143.5,54.6z"/>
	<path fill="#963099" d="M126.5,54.3c1.5,0.8,3,1.6,4.5,2.4c3.2,1.8,6.4,3.5,9.6,5.3c0.1,0.1,0.3,0.1,0.5,0.1c-0.7,2-1.3,4-2,6
		c-1.5-1.4-3.1-2.8-4.6-4.2c-2.2-2-4.4-4-6.6-5.9C127.3,56.8,126.8,55.6,126.5,54.3z"/>
	<path fill="#AF2FA5" d="M142.4,8.6c-1.2-0.3-2.3-1.1-3.5-1.6c-0.9-0.4-1.8-0.9-2.8-1.4c-0.2-0.1-0.4-0.2-0.5-0.5
		c1.2-1.4,2.4-2.8,3.5-4.2c0.1-0.2,0.3-0.3,0.5-0.3c3.2,0,6.3,0,9.7,0C147.1,3.4,144.8,6,142.4,8.6z"/>
	<path fill="#5EA4C5" d="M85.9,9.6c-1.1-0.2-2-0.8-3-1.3C77.6,5.9,72.3,3.5,67,1c-0.2-0.1-0.5-0.1-0.6-0.4c3.4-1,6.7-0.8,10,0.3
		c4.1,1.4,7.2,4,9.1,8C85.8,9.1,85.8,9.4,85.9,9.6z"/>
	<path fill="#BA50AF" d="M122.2,0.7c0.5,1.5,1.3,2.9,2,4.4c2.4,5.1,4.7,10.1,7.1,15.2c0.1,0.1,0.1,0.2,0.1,0.3
		c-0.7,0.9-1.5,1.7-2.3,2.5c0,0-0.1-0.1-0.1-0.1l0,0c-0.1-0.2-0.1-0.4-0.2-0.6c-1.5-3.6-3.1-7.3-4.6-10.9c-1.2-2.7-2.3-5.5-3.5-8.2
		c0-0.7,0-1.3,0-2c0-0.4,0.1-0.6,0.5-0.6C121.5,0.6,121.8,0.6,122.2,0.7z"/>
	<path fill="#905FB2" d="M130.2,41.6c-2.4,1.9-4.9,3.9-7.3,5.8c-1.2,1-2.4,2-3.6,2.9c-0.4-0.3-0.8-0.6-1.1-0.9c1-3.2,2-6.3,3.1-9.5
		c2.8,0,5.6,0,8.4,0C129.9,40.4,130.1,41,130.2,41.6z"/>
	<path fill="#5EA4C5" d="M99,10.3c-0.7,0.8-1.5,1.6-2.2,2.4c-0.4,0.4-0.8,0.9-1.3,1.3c-0.3,0-0.6-0.2-0.9-0.3
		c-1.6-0.7-3.2-1.4-4.8-2.2c1-3.7,3-6.6,6.2-8.7C97.1,5.3,98.1,7.8,99,10.3z"/>
	<path fill="#DD902E" d="M19.7,10c1.4,1.6,2.5,3.3,3.8,5c0,0.2,0.3,0.2,0.4,0.3c0.1,0.2,0.1,0.4,0.2,0.5c1,1.4,2.1,2.8,3.2,4.2
		c0.4,0.4,0.6,1,1.3,1.4c-0.3-1-0.5-1.9-0.8-2.8c-0.1-0.3-0.2-0.5,0-0.8c0.9,1,1.3,2.2,1.4,3.6c-0.1,0.1-0.3,0.2-0.4,0.4
		c-0.2,0-0.5,0-0.7-0.1c-5.5-2.8-10.9-5.7-16.4-8.5c-0.2-0.1-0.4-0.2-0.5-0.4c0.3,0,0.7,0,1,0c1.5,0,2.9,0.1,4.4-0.1
		C19,12.4,19.5,11.4,19.7,10z"/>
	<path fill="#4F8B9F" d="M87.2,68.6c0.2-0.8,0.8-1.4,1.3-2.1c3.4-4.7,6.8-9.4,10.1-14c0.1-0.2,0.3-0.3,0.4-0.5
		c0.8,6.8-3.5,13.6-10.3,16.1C88.3,68.3,87.8,68.5,87.2,68.6z"/>
	<path fill="#5DA3AC" d="M51.7,64.7c1.8-0.8,3.7-1.6,5.5-2.4c1-0.4,1.9-0.8,2.9-1.3c0,2.4,0,4.7,0,7.1c0,0.4-0.2,0.4-0.5,0.4
		c-2.5,0-5,0-7.5,0c-0.4,0-0.5-0.1-0.5-0.5C51.7,66.9,51.7,65.8,51.7,64.7z"/>
	<path fill="#4F8B9F" d="M113.4,29.4c-1.4-1.9-2.8-3.8-4.2-5.7c-0.2-0.2-0.3-0.5-0.6-0.5c1.2-0.7,2.3-1.5,3.2-2.6
		c0.3-0.4,0.5-0.3,0.8-0.1c1.8,1.3,3.6,2.6,5.4,3.9c0.2,0.2,0.5,0.3,0.2,0.7C116.8,26.8,115.3,28.3,113.4,29.4z"/>
	<path fill="#5EA4C5" d="M127.8,58.1c2.2,2,4.4,4,6.6,5.9c1.5,1.4,3.1,2.8,4.6,4.2c0,0.5-0.3,0.6-0.8,0.6c-2.1,0-4.1,0-6.2,0
		c-0.3,0-0.6,0-0.7-0.4C130.2,65,129,61.5,127.8,58.1z"/>
	<path fill="#5DA3AC" d="M60.1,38.7c-1.1,1.2-2.3,2.4-3.4,3.6c-1.7,1.8-3.2,3.7-5,5.4c0-3,0-6,0-9.1c0-0.4,0.1-0.5,0.5-0.5
		c2.5,0,5,0,7.5,0C60,38.2,60.2,38.3,60.1,38.7z"/>
	<path fill="#AF2FA5" d="M143,24.6c0.1-1,0.2-2.1,0.3-3.1c1.7,2.4,3.4,4.8,4.9,7.2c-0.6,0.5-1.2,1.1-1.8,1.6
		c-0.4,0.3-0.2,0.5,0.1,0.7c-2.1,0-4.2,0-6.3,0c-0.3,0-0.5-0.1-0.7-0.3c-0.8-1.2-1.7-2.5-2.5-3.7c0.4,0,0.7,0.2,1.1,0.3
		c1.3,0.6,2.6,1.1,3.8,1.7c0.3,0.1,0.7,0.3,0.7-0.3C142.8,27.3,142.9,25.9,143,24.6z"/>
	<path fill="#83C6E5" d="M120.7,3.2c1.2,2.7,2.3,5.5,3.5,8.2c1.5,3.6,3.1,7.3,4.6,10.9c0.1,0.2,0.1,0.4,0.2,0.6
		c-0.3-0.1-0.4-0.3-0.5-0.6c-2.6-3.2-5.2-6.5-7.8-9.7C120.7,9.5,120.7,6.4,120.7,3.2z"/>
	<path fill="#83C6E5" d="M32.9,68.6c2-2.2,4-4.4,6-6.6c0.6-0.7,1.2-1.5,2-2.1c0,2.7,0,5.5,0,8.2c0,0.4-0.1,0.5-0.5,0.5
		C37.9,68.6,35.4,68.6,32.9,68.6z"/>
	<path fill="#66B3CF" d="M120.7,12.6c2.6,3.2,5.2,6.5,7.8,9.7c0.2,0.2,0.3,0.5,0.5,0.6c0,0,0,0,0,0c0,0.1,0,0.1,0,0.2
		c-1.3-0.3-2.5-1-3.8-1.5c-1.5-0.6-2.9-1.4-4.5-1.8C120.6,17.4,120.6,15,120.7,12.6z"/>
	<path fill="#DD902E" d="M26.2,13.1C25.1,9.2,24,5.3,22.9,1.4C27.9,2.8,29.8,9.5,26.2,13.1z"/>
	<path fill="#66B3CF" d="M89.8,11.5c1.6,0.7,3.2,1.4,4.8,2.2c0.3,0.1,0.5,0.3,0.9,0.3c0,0.1,0,0.2,0,0.3c-0.9,0.5-1.4,1.3-2,2
		c-1.1,1.2-2.2,2.4-3.2,3.6C90.2,20,90,20,89.8,20.1C89,17.2,89,14.4,89.8,11.5z"/>
	<path fill="#963099" d="M143,24.6c-0.1,1.3-0.2,2.7-0.3,4c0,0.6-0.4,0.4-0.7,0.3c-1.3-0.5-2.6-1.1-3.8-1.7
		c-0.4-0.2-0.7-0.3-1.1-0.3c0,0,0,0,0,0c0,0-0.1-0.1-0.1-0.1c-0.7-1-1.4-1.9-2-2.9c2,0.2,4,0.3,5.9,0.5
		C141.6,24.4,142.3,24.3,143,24.6z"/>
	<path fill="#88118E" d="M146.3,46.1c-0.5-0.2-0.9-0.4-1.4-0.6c-0.3-0.1-0.5-0.4-0.7-0.7c-0.7-1.6-1.4-3.3-2.1-4.9c0,0,0,0,0,0
		c2.1,0,4.1,0,6.2,0C147.8,41.9,147.1,44,146.3,46.1z"/>
	<path fill="#60A7B2" d="M129.7,39.9c-2.8,0-5.6,0-8.4,0c0.5-1.8,0.5-1.8,2.3-1.8c1.6,0,3.2,0,4.8,0c0.6,0,0.8,0.2,0.9,0.7
		C129.4,39.2,129.5,39.5,129.7,39.9z"/>
	<path fill="#83C6E5" d="M103.1,42c-0.4-1.1-0.8-2.3-1.2-3.4c-0.1-0.4,0-0.5,0.4-0.4c0.5,0,1.1,0,1.6,0c0.3,0.1,0.6,0.3,0.9,0.4
		c1,0.4,2,0.7,2.9,1.3c0,0,0,0,0,0c-0.1,0.1-0.1,0.1-0.2,0.2c0,0,0,0,0,0C106,40.6,104.5,41.3,103.1,42z"/>
	<path fill="#83C6E5" d="M116.6,7.5c-1.6-2-3.4-4-4.8-6.2c2.5,1,4.4,2.7,6,4.8c0.2,0.2,0.2,0.4-0.1,0.5C117.4,6.9,117,7.2,116.6,7.5
		z"/>
	<path fill="#AF2FA5" d="M148.4,39.8c-2.1,0-4.1,0-6.2,0c-0.2-0.5-0.4-1.1-0.7-1.6c2.4,0,4.9,0,7.3,0
		C148.8,38.8,148.6,39.3,148.4,39.8z"/>
	<path fill="#DD902E" d="M1.4,48.7c1.3,1.1,2.3,2.5,3.4,3.7c0.7,0.7,1.4,1.5,2.1,2.3c0.2,0.2,0.5,0.4,0.4,0.7
		c-3-1.1-5.3-2.9-5.9-6.3C1.4,49,1.4,48.8,1.4,48.7z"/>
	<path fill="#60A7B2" d="M107.7,40c-0.9-0.5-1.9-0.8-2.9-1.3c-0.3-0.1-0.6-0.3-0.9-0.4c2.1,0,4.3,0,6.4,0c0.3,0,0.4,0.1,0.5,0.4
		c0.1,0.4,0.2,0.9,0.3,1.3c-0.7,0-1.5,0-2.2,0c-0.3,0-0.7-0.1-1,0.2C107.9,40.1,107.8,40,107.7,40z"/>
	<path fill="#5DA3AC" d="M103.1,42c1.4-0.8,2.9-1.4,4.4-2c-0.5,1.1-1.4,2-2.1,3c-0.4,0.6-0.8,1.3-1.4,1.8
		C103.7,44,103.4,43,103.1,42z"/>
	<path fill="#D46F32" d="M27.8,17.9c-0.2,0.3-0.1,0.6,0,0.8c0.2,0.9,0.5,1.7,0.8,2.8c-0.7-0.4-0.9-1-1.3-1.4
		c-1.1-1.4-2.1-2.8-3.2-4.2c-0.1-0.1-0.2-0.3-0.2-0.5C25.4,15.9,26.8,16.6,27.8,17.9z"/>
	<path fill="#905FB2" d="M107.9,40.1c0.3-0.3,0.7-0.2,1-0.2c0.7,0,1.5,0,2.2,0c0.5,1.4,0.9,2.8,1.3,4.2c-1.3-1.1-2.5-2.3-3.8-3.4
		C108.4,40.5,108.2,40.3,107.9,40.1z"/>
	<path fill="#963099" d="M146.5,30.9c-0.3-0.2-0.4-0.4-0.1-0.7c0.6-0.5,1.2-1.1,1.8-1.6c0.5,0.7,1.1,1.5,1.7,2.3
		C148.7,30.9,147.6,30.9,146.5,30.9z"/>
	<path fill="#963099" d="M124.2,54.7c-1.5-1.3-2.9-2.7-4.4-4c1.2,0.4,2.2,1.2,3.4,1.7c0.5,0.3,1,0.6,1.6,0.7
		C124.6,53.7,124.4,54.2,124.2,54.7z"/>
	<path fill="#4F8B9F" d="M141.6,38.2c0.2,0.5,0.4,1.1,0.7,1.6c0,0,0,0,0,0c-0.8,0-1.6,0-2.4,0c0-0.2,0.1-0.3,0.1-0.5
		C140.2,38.2,140.2,38.2,141.6,38.2z"/>
	<path fill="#D46F32" d="M29.2,21.4c-0.1,0.1-0.3,0.2-0.4,0.4c-0.2,0-0.5,0-0.7-0.1c-5.5-2.8-10.9-5.7-16.4-8.5
		c-0.2-0.1-0.4-0.2-0.5-0.4c-0.3-0.2-0.8,0.2-0.9-0.4c-1.9-1-3.8-1.9-5.7-2.9C3.8,9,3.1,8.6,2.2,8.3c0,0.1,0,0.2,0,0.3
		c0,7.3,0,14.6,0,21.8c0,0.5,0.2,0.6,0.7,0.6c5.1,0,10.3,0,15.4,0c2.3,0,4.5-0.3,6.6-1.3c1.8-0.8,3.2-2,3.9-3.9c0,0,0,0,0,0
		C29.3,24.4,29.4,22.9,29.2,21.4z M19.7,23.6c-0.8,0.5-1.8,0.6-2.7,0.6c-0.9,0-1.8,0-2.8,0c-1.1,0-2.2,0-3.3,0
		c-0.4,0-0.6-0.1-0.6-0.5c0-1.5,0-3,0-4.5c0-0.3,0-0.5,0.4-0.5c2.5,0.1,4.9-0.1,7.4,0.1c0.5,0.1,1,0.2,1.4,0.5
		C21.3,20.1,21.4,22.5,19.7,23.6z M28.7,22.8c-0.1,0.8-0.1,1.7-0.1,2.5C28.7,24.5,28.7,23.6,28.7,22.8z"/>
	<path fill="#4F8B9F" d="M118.2,49.4c0.4,0.3,0.8,0.6,1.1,0.9c0,0,0,0.1,0,0.1c-0.5,0.2-0.8,0.5-1.2,0.8c-0.2,0.2-0.4,0.3-0.7,0.3
		C117.6,50.8,117.9,50.1,118.2,49.4z"/>
	<path fill="#AF2FA5" d="M129,1.8c-0.9-0.2-1.6-0.6-2.3-1.1c0.4,0,0.8,0,1.2,0C129.1,0.6,129.1,0.6,129,1.8z"/>
	<path fill="#83C6E5" d="M128.9,23.1c0-0.1,0-0.1,0-0.2c0,0,0.1,0.1,0.1,0.1c0,0,0,0.1,0,0.1C129,23.1,129,23.1,128.9,23.1z"/>
	<path fill="#DD902E" d="M7.3,55.4c0.1,0,0.1,0.1,0.2,0.1C7.4,55.5,7.3,55.5,7.3,55.4z"/>
	<path fill="#83C6E5" d="M111.8,1.3c0,0-0.1-0.1-0.1-0.1C111.7,1.2,111.8,1.2,111.8,1.3z"/>
	<path fill="#4F8B9F" d="M31.9,30.8c0,0,0.1,0.1,0.1,0.1C31.9,31,31.9,30.9,31.9,30.8z"/>
	<path fill="#AF2FA5" d="M136.9,26.8c0,0,0,0.1,0.1,0.1C137,26.8,137,26.8,136.9,26.8z"/>
	<path fill="#963099" d="M119.8,50.7c-0.1,0-0.1-0.1-0.2-0.1C119.6,50.6,119.7,50.7,119.8,50.7z"/>
	<path fill="#5DA3AC" d="M107.5,40.1c0.1-0.1,0.1-0.1,0.2-0.2C107.6,40,107.6,40.1,107.5,40.1z"/>
</g>
</svg>
