<?xml version="1.0" encoding="utf-8"?>
<!-- Generator: Adobe Illustrator 17.1.0, SVG Export Plug-In . SVG Version: 6.00 Build 0)  -->
<!DOCTYPE svg PUBLIC "-//W3C//DTD SVG 1.1//EN" "http://www.w3.org/Graphics/SVG/1.1/DTD/svg11.dtd">
<svg version="1.1" id="Layer_1" xmlns="http://www.w3.org/2000/svg" xmlns:xlink="http://www.w3.org/1999/xlink" x="0px" y="0px"
	 width="226.8px" height="34.7px" viewBox="0 0 226.8 34.7" enable-background="new 0 0 226.8 34.7" xml:space="preserve">
<g>
	<path fill="#3F6FB5" d="M124.5,16c-1.7-4.2-3.4-8.3-5.1-12.4c-0.1,0.2-0.2,0.3-0.2,0.4c-3.1,7.7-6.3,15.3-9.4,23
		c-0.1,0.3-0.3,0.4-0.6,0.4c-1,0-2.1,0-3.1,0c0-0.1,0.1-0.3,0.1-0.4c3.7-8.8,7.5-17.7,11.2-26.5c0.1-0.3,0.3-0.4,0.6-0.4
		c1.1,0,2.1,0,3.2,0c0.2,0,0.4,0.1,0.4,0.3c3.8,8.8,7.5,17.7,11.3,26.5c0,0.1,0.1,0.2,0.1,0.4c-0.8,0-1.6,0-2.3,0
		c-0.4,0-0.8,0-1.1,0c-0.3,0-0.4-0.1-0.5-0.3c-1.1-2.6-2.1-5.2-3.2-7.8c-0.1-0.3-0.3-0.5-0.7-0.5c-2.7,0-5.3,0-8,0
		c-0.2,0-0.3,0-0.5,0c0.2-0.7,0.4-1.3,0.6-1.9c0.3-0.8,0.3-0.8,1.2-0.8c1.8,0,3.6,0,5.5,0C124.1,16,124.3,16,124.5,16z"/>
	<path fill="#3F6FB5" d="M39.7,25.4c-0.5,0.3-0.9,0.5-1.4,0.8c-2,1-4,1.3-6.2,1.2c-1.1-0.1-2.2-0.3-3.2-0.7
		c-1.8-0.8-2.6-2.3-2.9-4.2c-0.1-1.1-0.1-2.2,0.3-3.2c0.6-1.8,1.9-2.8,3.7-3.4c1.2-0.4,2.4-0.5,3.6-0.5c1.8,0,3.5,0,5.3,0.3
		c0.2,0,0.3,0,0.5,0c-0.1-1.1,0.2-2.1-0.2-3.1c-0.3-0.7-0.8-1.2-1.5-1.6c-0.8-0.4-1.6-0.6-2.4-0.6C32.8,10,30.4,10.4,28,11
		c-0.1,0-0.2,0-0.3,0.1c0-0.3,0-0.6,0-0.9c0-0.5,0-1,0-1.5c0-0.3,0.1-0.4,0.4-0.5c1.4-0.4,2.8-0.6,4.2-0.7c2-0.1,4-0.1,5.9,0.4
		c1.2,0.3,2.3,0.8,3.2,1.7c0.9,0.9,1.3,1.9,1.4,3.1c0.1,1,0.1,2.1,0.1,3.1c0,3.7,0,7.4,0,11.1c0,0.3-0.1,0.4-0.4,0.4
		c-0.4,0-0.8,0-1.1,0c-0.3,0-0.4-0.1-0.6-0.3C40.4,26.5,40,25.9,39.7,25.4z M39.4,20.5c0-0.5,0-1.1,0-1.6c0-0.6,0-0.6-0.6-0.6
		c-0.9-0.1-1.8-0.2-2.7-0.2c-1.2-0.1-2.5-0.1-3.7,0.1c-1.7,0.3-2.6,1.1-2.8,2.6c-0.2,1.7,0.4,3.4,2.5,3.7c1.1,0.2,2.1,0.1,3.2-0.1
		c1.4-0.2,2.7-0.8,3.9-1.6c0.1-0.1,0.2-0.3,0.2-0.5C39.4,21.7,39.4,21.1,39.4,20.5z"/>
	<path fill="#3F6FB5" d="M184,23.9c0,0.8,0,1.7,0,2.5c0,0.1-0.2,0.2-0.3,0.3c-1,0.2-2,0.4-3,0.5c-1.2,0.1-2.5,0.2-3.8,0.1
		c-1.6,0-3.1-0.3-4.6-0.9c-2.1-0.9-3.6-2.4-4.3-4.6c-1-3-1-6-0.1-9.1c0.9-2.9,2.9-4.6,5.8-5.1c2-0.4,4-0.4,6,0.1
		c2.8,0.7,4.4,2.6,5,5.4c0.3,1.6,0.3,3.2,0.1,4.9c0,0.3-0.2,0.4-0.4,0.4c-4.4,0-8.8,0-13.2,0c-0.5,0-0.5,0-0.5,0.5
		c0.1,1.6,0.5,3,1.7,4.1c0.9,0.8,2,1.2,3.2,1.4c1.7,0.3,3.4,0.2,5.1,0C181.8,24.3,182.9,24.1,184,23.9z M170.8,15.5
		c0.2,0,0.3,0,0.4,0c1.9,0,3.7,0,5.6,0c1.5,0,3,0,4.5,0c0.2,0,0.4,0,0.3-0.3c-0.1-0.5-0.1-0.9-0.2-1.4c-0.4-1.9-1.5-3.1-3.4-3.5
		c-1-0.2-2-0.2-3-0.1C172.3,10.6,170.8,12.6,170.8,15.5z"/>
	<path fill="#3F6FB5" d="M21.8,4c-0.4-0.1-0.8-0.2-1.1-0.4c-2.4-0.8-5-1-7.5-0.9C11.4,2.9,9.6,3.2,8,4.1c-2.2,1.2-3.5,3-4.1,5.3
		c-0.8,3-0.7,6,0.2,8.9c1.1,3.4,3.4,5.3,6.8,6c3.6,0.8,7.1,0.4,10.5-0.8c0.1,0,0.2-0.1,0.2-0.1c0,0,0,0,0.1,0c0,0.1,0,0.1,0,0.2
		c0,0.8,0,1.6,0,2.4c0,0.2-0.1,0.3-0.3,0.4c-1.4,0.4-2.8,0.8-4.2,0.9c-1.6,0.1-3.2,0.2-4.7,0.1c-2.6-0.1-5.1-0.7-7.4-2.1
		c-2.5-1.6-3.9-3.9-4.6-6.6c-0.4-1.4-0.5-2.8-0.6-4.2c-0.1-2.1,0-4.1,0.6-6.1c1.1-4.2,3.9-6.7,8.1-7.8C10,0.2,11.3,0,12.6,0
		c1.5,0,3,0,4.4,0.1c1.5,0.1,3,0.4,4.5,0.9c0.1,0,0.3,0.1,0.3,0.2C21.8,2.1,21.8,3.1,21.8,4z"/>
	<path fill="#3F6FB5" d="M88.8,9.9c0.1-0.1,0.2-0.1,0.3-0.2c2.2-1.8,4.8-2.5,7.6-2.3c1.4,0.1,2.8,0.5,4,1.4c1.3,1,1.9,2.3,2.1,3.9
		c0.1,0.6,0.2,1.3,0.2,1.9c0,4.1,0,8.2,0,12.3c0,0.5,0,0.5-0.5,0.5c-0.9,0-1.7,0-2.6,0c-0.3,0-0.4-0.1-0.4-0.4c0-4,0-8.1,0-12.1
		c0-0.7-0.1-1.4-0.3-2.1c-0.4-1.4-1.7-2.3-3.2-2.5c-2.5-0.3-4.6,0.6-6.4,2.2c-0.2,0.2-0.3,0.4-0.3,0.7c0,4.3,0,8.6,0,12.8
		c0,0.3,0,0.6,0,1c0,0.2-0.1,0.3-0.3,0.3c-0.9,0-1.9,0-2.8,0c-0.3,0-0.3-0.1-0.3-0.3c0-1.2,0-2.5,0-3.7c0-5.1,0-10.2,0-15.3
		c0-0.5,0-0.5,0.6-0.5c0.5,0,0.9,0,1.4,0c0.3,0,0.4,0.1,0.5,0.4c0.1,0.6,0.3,1.2,0.4,1.8C88.7,9.7,88.7,9.8,88.8,9.9z"/>
	<path fill="#3F6FB5" d="M136.5,32.4c0.9-0.6,1.7-1.1,2.4-1.7c1-0.8,1.7-1.8,2.3-3c0.1-0.2,0-0.4,0-0.6c-1.5-3.8-2.9-7.7-4.4-11.5
		c-1-2.6-2-5.2-3-7.8c0-0.1-0.1-0.2-0.1-0.3c0.1,0,0.2,0,0.3,0c1,0,2,0,3,0c0.3,0,0.4,0.1,0.5,0.4c1.8,4.9,3.5,9.8,5.3,14.7
		c0.1,0.2,0.1,0.3,0.3,0.5c0-0.1,0.1-0.2,0.1-0.3c1.8-4.9,3.7-9.8,5.5-14.7c0.1-0.4,0.3-0.5,0.7-0.5c1,0,2.1,0,3.1,0
		c-0.1,0.2-0.1,0.3-0.1,0.4c-2.7,6.7-5.4,13.5-8.1,20.2c-0.8,1.9-1.8,3.6-3.4,5c-0.9,0.7-1.8,1.3-2.9,1.7c-0.2,0.1-0.4,0.1-0.5-0.2
		C137.3,33.7,136.9,33,136.5,32.4z"/>
	<path fill="#3F6FB5" d="M73.6,7.4c-0.3,0.7-0.5,1.3-0.8,2c-2.4,5.8-4.7,11.6-7.1,17.5c-0.2,0.4-0.4,0.6-0.8,0.5c-0.7,0-1.5,0-2.2,0
		c-0.3,0-0.5-0.1-0.6-0.4c-1.7-4.4-3.4-8.8-5-13.2c-0.8-2-1.5-4-2.3-5.9c0-0.1-0.1-0.2-0.1-0.4c0.2,0,0.3,0,0.4,0c1,0,1.9,0,2.9,0
		c0.3,0,0.4,0.1,0.5,0.4c1.6,4.5,3.3,8.9,4.9,13.4c0.2,0.6,0.4,1.2,0.7,1.9c0.1-0.2,0.2-0.3,0.2-0.5c1.8-4.9,3.6-9.9,5.4-14.8
		c0.1-0.3,0.3-0.4,0.6-0.4c1,0,1.9,0,2.9,0C73.3,7.4,73.4,7.4,73.6,7.4z"/>
	<path fill="#3F6FB5" d="M48.4,13.7c0-4.4,0-8.8,0-13.2c0-0.4,0.1-0.5,0.5-0.5c0.9,0,1.7,0,2.6,0c0.3,0,0.4,0.1,0.4,0.4
		c0,3.1,0,6.2,0,9.3c0,5.7,0,11.4,0,17c0,0.3-0.1,0.5-0.4,0.4c-0.9,0-1.7,0-2.6,0c-0.4,0-0.5-0.1-0.5-0.5c0-3.8,0-7.6,0-11.4
		C48.4,14.9,48.4,14.3,48.4,13.7z"/>
	<path fill="#3F6FB5" d="M158.7,9.9c0.4-0.3,0.7-0.6,1.1-0.9c1.4-1,3.1-1.6,4.9-1.6c0.3,0,0.4,0.1,0.4,0.3c0,0.7,0,1.4,0,2.2
		c0,0.3-0.1,0.3-0.3,0.4c-2,0.1-3.7,0.8-5.1,2.2c-0.2,0.2-0.3,0.5-0.3,0.8c0,4.5,0,9,0,13.5c0,0.7,0.1,0.6-0.6,0.6
		c-0.9,0-1.7,0-2.6,0c-0.3,0-0.3-0.1-0.3-0.3c0-6.4,0-12.8,0-19.3c0-0.3,0.1-0.4,0.4-0.4c0.6,0,1.1,0,1.7,0c0.2,0,0.3,0.1,0.4,0.3
		c0.1,0.7,0.3,1.3,0.5,1.9C158.6,9.7,158.6,9.8,158.7,9.9z"/>
	<path fill="#3F6FB5" d="M80,17.3c0,3.2,0,6.4,0,9.6c0,0.3-0.1,0.4-0.4,0.4c-0.9,0-1.8,0-2.7,0c-0.3,0-0.4-0.1-0.4-0.4
		c0-6.4,0-12.8,0-19.3c0-0.3,0.1-0.4,0.3-0.4c0.9,0,1.8,0,2.8,0C80,7.4,80,7.5,80,7.8C80,11,80,14.2,80,17.3z"/>
	<path d="M214.3,17c-0.6,0-1.2,0-1.8,0c0-3.3,0-6.6,0-9.9c0.4,0,0.8,0,1.2,0c0.1,0.4,0.2,0.8,0.3,1.2c0.9-0.8,1.9-1.2,3.1-1.2
		c1.2,0,2.2,0.3,2.9,1.3c0.5-0.3,1-0.6,1.5-0.9c0.9-0.5,1.9-0.5,2.8-0.3c1.3,0.3,2.1,1.2,2.3,2.6c0.1,0.3,0.1,0.7,0.1,1
		c0,2,0,3.9,0,5.9c0,0.1,0,0.3,0,0.4c-0.6,0-1.2,0-1.8,0c0-0.2,0-0.3,0-0.4c0-1.9,0-3.8,0-5.7c0-0.4-0.1-0.8-0.2-1.2
		c-0.2-0.6-0.7-1-1.3-1.1c-1.2-0.1-2.1,0.4-2.9,1.2c-0.1,0.1-0.1,0.3-0.1,0.4c0,2.2,0,4.3,0,6.5c0,0.1,0,0.3,0,0.4
		c-0.6,0-1.2,0-1.8,0c0-0.1,0-0.3,0-0.4c0-1.9,0-3.9,0-5.8c0-0.4-0.1-0.9-0.2-1.3c-0.2-0.6-0.6-0.9-1.2-0.9
		c-1.2-0.2-2.2,0.3-2.9,1.2c-0.1,0.1-0.1,0.3-0.1,0.4c0,2.1,0,4.3,0,6.4C214.3,16.7,214.3,16.8,214.3,17z"/>
	<path d="M200.7,12c0.1-0.7,0.2-1.5,0.4-2.2c0.4-1.4,1.4-2.3,2.8-2.6c1.1-0.3,2.2-0.3,3.2,0c1.6,0.4,2.6,1.5,2.9,3.1
		c0.3,1.2,0.3,2.4,0,3.6c-0.4,1.6-1.4,2.6-3,3c-1.2,0.3-2.4,0.3-3.5-0.1c-1.6-0.5-2.4-1.8-2.7-3.4C200.8,12.9,200.8,12.4,200.7,12
		C200.8,12,200.7,12,200.7,12z M202.5,12C202.5,12,202.6,12,202.5,12c0.1,0.3,0.1,0.6,0.1,0.9c0.2,1.7,1,2.6,2.7,2.7
		c1.6,0.1,2.7-0.5,3.1-2.2c0.2-1,0.2-1.9,0-2.9c-0.3-1-0.8-1.7-1.9-1.9c-0.5-0.1-1-0.1-1.6-0.1c-1.2,0.1-1.9,0.8-2.2,2
		C202.6,11,202.6,11.5,202.5,12z"/>
	<path d="M199.3,8.7c-1.2-0.2-2.4-0.4-3.6-0.2c-1.5,0.2-2.4,1-2.6,2.6c-0.1,0.7,0,1.5,0.2,2.3c0.3,1.2,1.2,2,2.5,2.1
		c1.2,0.1,2.3,0,3.5-0.2c0,0.5,0,0.9,0,1.5c-0.6,0.1-1.3,0.2-2,0.2c-0.8,0-1.7,0-2.5-0.2c-2-0.4-3.2-1.8-3.4-3.8
		c-0.1-0.8-0.1-1.6,0-2.4c0.3-1.9,1.5-3.1,3.5-3.4c1.4-0.3,2.8-0.2,4.1,0.1c0.2,0,0.3,0.1,0.3,0.3C199.2,7.9,199.3,8.3,199.3,8.7z"
		/>
	<path fill="#3F6FB5" d="M78.3,3.4c-0.5,0-1,0-1.4,0c-0.2,0-0.3-0.1-0.3-0.3c0-0.9,0-1.8,0-2.7c0-0.2,0.1-0.3,0.3-0.3
		c1,0,1.9,0,2.9,0c0.2,0,0.3,0.1,0.3,0.3c0,0.9,0,1.8,0,2.7c0,0.2-0.1,0.3-0.3,0.3C79.2,3.4,78.7,3.4,78.3,3.4z"/>
	<path d="M187.8,15.2c0.6,0,1.1,0,1.6,0c0,0,0.1,0,0.2,0c0,0.6,0,1.1,0,1.7c-0.6,0-1.2,0-1.7,0C187.8,16.4,187.8,15.8,187.8,15.2z"
		/>
</g>
</svg>
