<?xml version="1.0" encoding="utf-8"?>
<!-- Generator: Adobe Illustrator 17.1.0, SVG Export Plug-In . SVG Version: 6.00 Build 0)  -->
<!DOCTYPE svg PUBLIC "-//W3C//DTD SVG 1.1//EN" "http://www.w3.org/Graphics/SVG/1.1/DTD/svg11.dtd">
<svg version="1.1" id="Layer_1" xmlns="http://www.w3.org/2000/svg" xmlns:xlink="http://www.w3.org/1999/xlink" x="0px" y="0px"
	 width="262.4px" height="29.2px" viewBox="0 0 262.4 29.2" enable-background="new 0 0 262.4 29.2" xml:space="preserve">
<g>
	<path fill="#DA5030" d="M139.1,10.4c2-2.4,4.3-3.5,7.3-3c0.8,0.1,1,0.5,1,1.3c0,1.5,0,3.1,0,5c0.9-1.4,1.6-2.5,2.6-3.5
		c4.7-4.5,14.2-3.7,17.6,1.5c1.5,2.3,1.9,4.9,2,7.6c0,0.8-0.4,0.8-1,0.8c-4.3,0-8.6,0-12.9,0c-1.5,0-1.6,0.1-1,1.5
		c1,2.4,4.1,3.2,6.2,1.6c0.7-0.5,1.3-0.7,2.1-0.7c1.7,0,3.4,0.1,5.1,0c1,0,1,0.3,0.6,1.1c-1.7,3.3-4.6,4.9-8.1,5.4
		c-4.3,0.6-8.3-0.1-11.4-3.4c-2.4-2.6-2.9-5.8-2.4-9.2c0.2-1.8,0.3-1.8-1.4-2.1c-3.3-0.6-5.3,0.9-5.8,4.1c-0.4,2.8-0.2,5.6-0.1,8.5
		c0,1.2-0.2,1.9-1.7,1.8c-1.8-0.2-3.6-0.1-5.3,0c-0.8,0-1.1-0.2-1.1-1.1c0-6.2,0-12.5,0-18.7c0-0.9,0.3-1.1,1.1-1
		c1.7,0,3.4,0.1,5.1,0c1.3-0.1,1.8,0.3,1.6,1.6C139.1,9.7,139.1,10,139.1,10.4z M158.2,15.9c0.9,0,1.8,0,2.7,0
		c0.9,0,1.1-0.3,0.8-1.1c-0.5-1.5-1.9-2.4-3.7-2.3c-1.7,0.1-3.2,1.3-3.5,2.7c-0.2,0.7,0.2,0.7,0.7,0.7
		C156.2,15.9,157.2,15.9,158.2,15.9z"/>
	<path fill="#DA5030" d="M238.4,19.9c0.7-3.5,1.5-7,2.2-10.6c0.2-1.2,0.6-1.7,1.9-1.6c1.6,0.1,3.3,0.1,4.9,0c0.8,0,1.1,0.2,1.3,1
		c0.7,3.6,1.5,7.1,2.3,10.7c0,0.2,0.1,0.3,0.1,0.5c0.5-0.1,0.4-0.4,0.5-0.7c0.8-3.5,1.6-6.9,2.3-10.4c0.2-0.8,0.4-1.1,1.2-1.1
		c2.1,0,4.3,0,6.4,0c0.8,0,1,0.2,0.7,1c-2,6.2-4,12.5-6,18.7c-0.3,0.9-0.7,1.1-1.6,1.1c-2-0.1-4-0.1-6,0c-0.9,0-1.2-0.3-1.4-1.1
		c-0.8-3.4-1.6-6.7-2.4-10.1c-0.1-0.3,0-0.6-0.5-0.8c-0.5,2-1,3.8-1.4,5.7c-0.4,1.8-0.9,3.5-1.3,5.3c-0.2,0.7-0.4,1-1.2,1
		c-2.1,0-4.3-0.1-6.4,0c-1,0-1.1-0.6-1.3-1.2c-1.7-5.5-3.5-11-5.2-16.5c-0.2-0.7-0.4-1.4-0.7-2.1c-0.2-0.7-0.1-1,0.7-1
		c2.2,0,4.4,0,6.6,0c0.9,0,1,0.6,1.1,1.2c0.8,3.4,1.6,6.7,2.5,10.1C238,19.3,237.9,19.7,238.4,19.9z"/>
	<path fill="#232323" d="M89.7,10.2c2.6-2.7,5.5-3.4,8.8-2.7c3.1,0.7,5.2,3.1,5.2,6.4c0.1,4.6,0,9.1,0,13.7c0,0.8-0.3,1-1,1
		c-2,0-4-0.1-6,0c-1,0-1.1-0.4-1.1-1.2c0-3.6,0-7.3-0.1-10.9c-0.1-2.3-1.3-3.2-3.4-2.7c-1.4,0.4-2,1.4-2.1,2.7
		c-0.1,2.3-0.1,4.6-0.1,7c0,1.4,0,2.7,0,4.1c0,0.7-0.1,1-0.9,1c-2.1,0-4.3,0-6.4,0c-0.7,0-0.8-0.2-0.8-0.8c0-6.3,0-12.7,0-19
		c0-0.8,0.2-1,1-1c1.8,0,3.6,0.1,5.5,0c1.1,0,1.5,0.2,1.4,1.3C89.7,9.4,89.7,9.6,89.7,10.2z"/>
	<path fill="#232323" d="M46,28.6c-2.6,0-5-0.1-7.4,0c-1.3,0-0.8-1-1.2-1.7c-2.7,2.3-5.9,2.6-9.1,1.9c-3-0.6-4.8-2.7-4.9-5.6
		c-0.1-3.2,1.3-5.3,4.4-6.2c2.3-0.7,4.6-0.9,7-1.3c0.5-0.1,1.1-0.2,1.6-0.4c0.6-0.2,1-0.7,1-1.4c0-0.6-0.2-1.1-0.8-1.5
		c-1.4-0.9-3.8-0.4-4.6,1.1c-0.2,0.4-0.5,0.5-0.8,0.5c-2,0-4,0-6,0c-0.6,0-0.8-0.1-0.7-0.9c0.4-2.8,2.1-4.4,4.6-5.2
		c4-1.2,8-1.2,12-0.1c2.7,0.7,4,2.6,4.1,5.5c0.1,3.5,0,7.1,0,10.7C45.1,25.6,45.2,27.1,46,28.6z M37.3,20.7c-0.3-0.2,0.5-1.3-0.6-1
		c-1.4,0.3-2.7,0.7-4,1.2c-0.7,0.2-1.1,0.8-1.1,1.6c0,0.7,0.3,1.2,0.9,1.5c1.1,0.7,2.1,0.5,3.2,0C37,23.2,37.2,22,37.3,20.7z"/>
	<path fill="#232323" d="M117.5,29.1c-4.4-0.1-8.1-1.4-10.2-5.6c-2.8-5.7-1-15.1,8.1-16.1c4.1-0.5,7.9,0,10.8,3.1
		c3.3,3.7,3.6,8,1.8,12.5c-1.7,4.2-5.3,5.8-9.6,6.1C118.1,29.1,117.8,29.1,117.5,29.1z M114.2,18.2c-0.1,1,0.1,1.9,0.3,2.8
		c0.4,1.5,1.6,2.3,3,2.3c1.4,0,2.5-0.8,2.9-2.2c0.6-2,0.7-3.9,0-5.9c-0.5-1.4-1.6-2.2-3-2.1c-1.4,0-2.6,0.9-3,2.4
		C114.3,16.3,114.1,17.2,114.2,18.2z"/>
	<path fill="#DA5030" d="M219.3,20.1c-2.2,0-4.4,0-6.6,0c-0.9,0-1,0.3-0.8,1c0.7,2.7,4.2,3.8,6.5,2c0.6-0.4,1.1-0.6,1.7-0.6
		c1.8,0,3.6,0,5.5,0c0.8,0,0.9,0.2,0.6,0.9c-1.6,3.4-4.5,5-8.1,5.5c-4.4,0.6-8.5-0.1-11.6-3.6c-2.9-3.3-3.3-8.5-1.1-12.6
		c2-3.8,6.5-6,11.2-5.5c3.8,0.4,7,1.6,8.9,5.2c1.1,2.1,1.4,4.4,1.5,6.7c0,0.8-0.4,0.9-1,0.9C223.8,20.1,221.6,20.1,219.3,20.1
		C219.3,20.1,219.3,20.1,219.3,20.1z M215.5,15.9c1,0,1.9,0,2.9,0c0.9,0,1-0.4,0.8-1.1c-0.4-1.3-1.6-2.2-3.2-2.3
		c-1.7-0.1-3.1,0.7-3.7,2.1c-0.4,0.9-0.4,1.4,0.8,1.3C213.8,15.8,214.7,15.9,215.5,15.9z"/>
	<path fill="#232323" d="M51,21.7c0.6,0,1.3,0,1.9,0c1-0.1,1.8,0,2.3,1.2c0.7,1.5,3.7,1.7,4.8,0.5c0.6-0.6,0.4-1.6-0.5-2
		c-0.9-0.4-1.8-0.6-2.7-0.8c-2.2-0.3-4.3-0.8-6.3-1.8c-2-1-3.1-2.5-3.1-4.7c-0.1-2.3,0.9-4.1,2.9-5.2c2.7-1.6,5.7-1.8,8.7-1.6
		c1.7,0.1,3.4,0.4,5,1.2c1.8,0.9,3,2.2,3.4,4.2c0.2,0.7,0.1,1.2-0.9,1.2c-1.8-0.1-3.6,0-5.5,0c-0.5,0-0.8-0.2-1.1-0.6
		c-0.8-1.4-2-1.8-3.5-1.4c-0.7,0.2-1.2,0.5-1.3,1.2c-0.1,0.8,0.5,1.2,1.1,1.3c1.6,0.4,3.1,0.6,4.7,1c1.3,0.3,2.6,0.7,3.9,1.3
		c4.5,2.1,3.9,8.2,0.5,10.5c-3.9,2.6-11.8,2.6-15.6-0.1c-1.6-1.1-2.5-2.6-2.8-4.5c-0.1-0.7,0.1-0.9,0.8-0.9
		C48.9,21.8,49.9,21.7,51,21.7z"/>
	<path fill="#232323" d="M18.3,15.8c-0.5,0-1.1,0-1.6,0c-1.1,0-2.1,0.2-2.7-1.4c-0.7-1.8-4-1.7-5,0.2c-1.2,2.2-1,4.6-0.3,6.9
		c0.4,1.3,1.6,1.9,2.9,1.9c1.3,0,2.4-0.7,2.8-2c0.3-0.9,0.8-1,1.6-1c1.8,0.1,3.6,0.1,5.3,0c1.1,0,1.2,0.4,0.9,1.3
		C21,25.9,18,28.3,13.7,29c-4.8,0.7-8.9-0.5-11.8-4.6C-2.5,18,1.2,8.9,8.9,7.6c4-0.7,7.8-0.2,10.9,2.8c1.3,1.2,1.9,2.7,2.2,4.4
		c0.2,0.9-0.1,1.1-1,1.1C20.1,15.7,19.2,15.8,18.3,15.8z"/>
	<path fill="#DA5030" d="M181.3,19.8c0.9-3.5,1.9-6.9,2.7-10.4c0.3-1.2,0.7-1.7,2-1.6c1.8,0.1,3.6,0.1,5.3,0c1.1,0,1.4,0.2,1,1.3
		c-1.8,5.3-3.6,10.6-5.3,15.9c0,0.1-0.1,0.3-0.1,0.4c-1.1,3.2-1.1,3.3-4.6,3.2c-1.6,0-3.3-0.1-4.9,0c-0.8,0-1.1-0.2-1.4-1
		c-1.8-5.5-3.7-11.1-5.5-16.6c-0.3-0.8-0.5-1.6-0.8-2.3c-0.3-0.7-0.1-1,0.7-1c2.2,0,4.5,0.1,6.7,0c0.8,0,1,0.4,1.1,1
		c0.8,3.3,1.7,6.6,2.6,9.9c0.1,0.3,0.2,0.7,0.3,1C181.1,19.8,181.2,19.8,181.3,19.8z"/>
	<path fill="#232323" d="M78.5,18.3c0,3.1,0,6.1,0,9.2c0,1-0.3,1.2-1.2,1.2c-2-0.1-3.9-0.1-5.9,0c-0.8,0-1-0.2-1-1
		c0-6.3,0-12.6,0-18.9c0-0.8,0.2-1,1-1c2,0,4,0.1,6,0c0.9,0,1,0.3,1,1.1C78.4,12,78.5,15.2,78.5,18.3z"/>
	<path fill="#DA5030" d="M201.5,18.3c0,3,0,6.1,0,9.1c0,0.8-0.1,1.2-1.1,1.2c-2-0.1-3.9-0.1-5.9,0c-0.8,0-1.1-0.1-1.1-1
		c0-6.3,0-12.6,0-18.8c0-0.8,0.3-1,1-1c2,0,4,0.1,6,0c0.9,0,1.1,0.3,1.1,1.1C201.5,12,201.5,15.2,201.5,18.3z"/>
	<path fill="#DA5030" d="M197.4,5.7c-1,0-2.1,0-3.1,0c-0.6,0-1-0.2-0.9-0.8c0-1.3,0.1-2.6,0-3.8c0-0.8,0.4-1,1.1-1c2,0,4,0,6,0
		c0.8,0,1,0.3,1,1c0,1.2-0.1,2.5,0,3.7c0,0.8-0.3,1-1.1,1C199.4,5.7,198.4,5.7,197.4,5.7C197.4,5.7,197.4,5.7,197.4,5.7z"/>
	<path fill="#232323" d="M74.2,5.7c-1.1-0.1-2.8,0.6-3.5-0.3C70,4.7,70.6,3,70.4,1.7c-0.2-1.4,0.3-1.8,1.7-1.7
		c1.8,0.1,3.6,0.1,5.4,0c0.7,0,1,0.2,0.9,0.9c0,1.3,0,2.6,0,3.9c0,0.6-0.2,0.8-0.8,0.8C76.6,5.7,75.5,5.7,74.2,5.7z"/>
</g>
</svg>
