<?xml version="1.0" encoding="utf-8"?>
<!-- Generator: Adobe Illustrator 17.1.0, SVG Export Plug-In . SVG Version: 6.00 Build 0)  -->
<!DOCTYPE svg PUBLIC "-//W3C//DTD SVG 1.1//EN" "http://www.w3.org/Graphics/SVG/1.1/DTD/svg11.dtd">
<svg version="1.1" id="Layer_1" xmlns="http://www.w3.org/2000/svg" xmlns:xlink="http://www.w3.org/1999/xlink" x="0px" y="0px"
	 width="60px" height="59.7px" viewBox="0 0 60 59.7" enable-background="new 0 0 60 59.7" xml:space="preserve">
<g>
	<path fill="#A0001E" d="M60,30c-0.4,15.9-12.3,29.8-30,29.8c-18,0-30-14.2-30-30C0,14.3,12,0,30.1,0C47.2,0,59.7,13.5,60,30z
		 M38.6,31.6c1.9,0,3.7,0,5.5,0c0.9,0,1.3-0.2,1.3-1.2c-0.1-1.4,0-2.9,0-4.3c-0.1-2.6-2-4.2-4.8-4.2c-2.8,0-4.8,1.6-4.9,4.2
		c-0.1,3.4,0,6.7,0,10.1c0,1.4,0.6,2.5,1.8,3.3c1.7,1.2,4.6,1.2,6.3,0c1.5-1.1,2.1-3.1,1.5-5.4c-0.9,0-1.8,0-2.7,0
		c0,0.4-0.1,0.7-0.1,1c0,0.3,0,0.7,0,1c-0.1,1.1-0.7,1.8-1.8,1.8c-1.1,0-1.9-0.6-1.9-1.7C38.6,34.7,38.6,33.3,38.6,31.6z M32.9,37.7
		c0-3.7,0-7.3,0-10.9c0-0.8-0.1-1.6-0.3-2.3c-0.6-2.2-2.8-3.1-4.8-2c-0.5,0.3-0.9,0.7-1.4,1c-0.1,0.1-0.2,0.1-0.3,0.1
		c-0.1-0.4-0.1-0.8-0.2-1.1c-1.4,0-2.7,0-4,0c0,0.7,0,1.3,0,2c0.5,0.1,1,0.1,1.5,0.2c0,4.4,0,8.7,0,13c-0.5,0.1-0.9,0.2-1.2,0.2
		c0,0.7,0,1.4,0,2c1.4,0,2.8,0,4.2,0c0-0.6,0-1,0-1.5c0-3.9,0-7.8,0-11.8c0-1.5,0.6-2.2,1.7-2.3c1.2,0,1.7,0.7,1.7,2.2
		c0,4,0,7.9,0,11.9c0,0.5,0,0.9,0.1,1.4c1.6,0,3.1,0,4.7,0c0-0.7,0-1.3,0-2C34.1,37.8,33.5,37.7,32.9,37.7z M16.3,27.9
		c0-0.5,0.1-0.9,0.1-1.4c0-2.9-1.8-4.6-4.8-4.7c-3.1,0-4.9,1.7-5,4.6c0,3,0,6.1,0,9.1c0,2,0.8,3.5,2.6,4.2c2.1,0.8,4.1,0.7,5.9-0.8
		c1.6-1.4,1.2-3.3,1.2-5c-1.1,0-2,0-2.9,0c0,0.4,0,0.7-0.1,1c0,0.3,0,0.7,0,1c-0.1,1.1-0.8,1.8-1.9,1.7c-1,0-1.8-0.5-1.8-1.6
		c0-3.3,0-6.6,0-9.9c0-1,0.8-1.7,1.9-1.7c1.1,0,1.7,0.6,1.8,1.8c0,0.5,0.1,1,0.1,1.6C14.4,27.9,15.2,27.9,16.3,27.9z M50.6,22.4
		c0-1.6,0-3,0-4.5c-1,0-2,0-2.9,0c0,0.4-0.1,0.7-0.1,1c0,5.5,0,11,0,16.5c0,0.7,0,1.6,0.3,2.2c0.4,0.8,1,1.8,1.8,2
		c1.3,0.4,2.8,0.3,4.2,0.4c0-0.9,0-1.5,0-2.2c-0.4,0-0.7-0.1-1.1-0.1c-2-0.1-2.2-0.3-2.2-2.3c0-2.5,0-5,0-7.4c0-1.1,0-2.2,0-3.5
		c1,0,1.9,0,2.7,0c0-0.8,0-1.4,0-2.1C52.5,22.4,51.6,22.4,50.6,22.4z M18.3,13.7c0,11.5,0,22.9,0,34.4c0.7,0,1.3,0,2,0
		c0-11.5,0-23,0-34.4C19.6,13.7,19,13.7,18.3,13.7z"/>
	<path fill="#FFFFFF" d="M38.6,31.6c0,1.7,0,3.1,0,4.5c0,1.1,0.8,1.7,1.9,1.7c1.1,0,1.8-0.7,1.8-1.8c0-0.3,0-0.7,0-1
		c0-0.3,0-0.6,0.1-1c1,0,1.8,0,2.7,0c0.6,2.3,0.1,4.3-1.5,5.4c-1.7,1.2-4.6,1.2-6.3,0c-1.2-0.8-1.8-1.9-1.8-3.3
		c0-3.4-0.1-6.7,0-10.1c0.1-2.6,2-4.2,4.9-4.2c2.8,0,4.8,1.7,4.8,4.2c0,1.4,0,2.9,0,4.3c0,0.9-0.4,1.2-1.3,1.2
		C42.3,31.6,40.5,31.6,38.6,31.6z M42.3,29.3c0-1.2,0-2.2,0-3.3c-0.1-1-0.8-1.4-1.7-1.5c-0.9-0.1-1.8,0.2-2,1.3
		c-0.1,1.1,0,2.3,0,3.5C39.9,29.3,41.1,29.3,42.3,29.3z"/>
	<path fill="#FFFFFF" d="M32.9,37.7c0.6,0.1,1.2,0.1,1.8,0.2c0,0.7,0,1.3,0,2c-1.6,0-3.1,0-4.7,0c0-0.5-0.1-1-0.1-1.4
		c0-4,0-7.9,0-11.9c0-1.5-0.6-2.3-1.7-2.2c-1.2,0-1.7,0.8-1.7,2.3c0,3.9,0,7.8,0,11.8c0,0.5,0,0.9,0,1.5c-1.5,0-2.8,0-4.2,0
		c0-0.6,0-1.3,0-2c0.3-0.1,0.7-0.2,1.2-0.2c0-4.3,0-8.6,0-13c-0.5-0.1-1-0.1-1.5-0.2c0-0.7,0-1.3,0-2c1.3,0,2.6,0,4,0
		c0.1,0.3,0.1,0.7,0.2,1.1c0.1,0,0.2,0,0.3-0.1c0.5-0.3,0.9-0.7,1.4-1c2-1.1,4.2-0.2,4.8,2c0.2,0.7,0.3,1.5,0.3,2.3
		C32.9,30.4,32.9,34,32.9,37.7z"/>
	<path fill="#FFFFFF" d="M16.3,27.9c-1,0-1.9,0-2.9,0c0-0.6-0.1-1.1-0.1-1.6c-0.1-1.2-0.7-1.8-1.8-1.8c-1.1,0-1.9,0.7-1.9,1.7
		c0,3.3,0,6.6,0,9.9c0,1.2,0.8,1.6,1.8,1.6c1.1,0.1,1.8-0.6,1.9-1.7c0-0.3,0-0.7,0-1c0-0.3,0-0.6,0.1-1c0.9,0,1.8,0,2.9,0
		c0,1.8,0.4,3.6-1.2,5c-1.8,1.6-3.8,1.6-5.9,0.8c-1.9-0.7-2.7-2.2-2.6-4.2c0-3,0-6.1,0-9.1c0-2.9,1.9-4.7,5-4.6c3,0,4.8,1.8,4.8,4.7
		C16.3,27,16.3,27.4,16.3,27.9z"/>
	<path fill="#FFFFFF" d="M50.6,22.4c1,0,1.8,0,2.8,0c0,0.7,0,1.3,0,2.1c-0.8,0-1.7,0-2.7,0c0,1.3,0,2.4,0,3.5c0,2.5,0,5,0,7.4
		c0,2,0.2,2.2,2.2,2.3c0.3,0,0.7,0.1,1.1,0.1c0,0.7,0,1.3,0,2.2c-1.4-0.1-2.9,0-4.2-0.4c-0.8-0.2-1.4-1.2-1.8-2
		c-0.3-0.6-0.3-1.4-0.3-2.2c0-5.5,0-11,0-16.5c0-0.3,0-0.6,0.1-1c1,0,1.9,0,2.9,0C50.6,19.4,50.6,20.8,50.6,22.4z"/>
	<path fill="#FFFFFF" d="M18.3,13.7c0.7,0,1.3,0,2,0c0,11.5,0,22.9,0,34.4c-0.7,0-1.3,0-2,0C18.3,36.6,18.3,25.2,18.3,13.7z"/>
	<path fill="#A0001E" d="M42.3,29.3c-1.3,0-2.4,0-3.7,0c0-1.2-0.1-2.3,0-3.5c0.1-1.1,1-1.3,2-1.3c0.9,0.1,1.6,0.5,1.7,1.5
		C42.4,27.1,42.3,28.1,42.3,29.3z"/>
</g>
</svg>
