<?xml version="1.0" encoding="utf-8"?>
<!-- Generator: Adobe Illustrator 17.1.0, SVG Export Plug-In . SVG Version: 6.00 Build 0)  -->
<!DOCTYPE svg PUBLIC "-//W3C//DTD SVG 1.1//EN" "http://www.w3.org/Graphics/SVG/1.1/DTD/svg11.dtd">
<svg version="1.1" id="Layer_1" xmlns="http://www.w3.org/2000/svg" xmlns:xlink="http://www.w3.org/1999/xlink" x="0px" y="0px"
	 width="183.9px" height="33.2px" viewBox="0 0 183.9 33.2" enable-background="new 0 0 183.9 33.2" xml:space="preserve">
<g>
	<g>
		<path d="M88.1,14.9c-1.4-0.6-2.8-1-4.3-1.3c-1.6-0.3-3.3-0.5-4.8-1.1c-0.8-0.3-1.3-0.8-1.3-1.7c-0.1-0.7,0.2-1.3,0.9-1.7
			c2.1-1.5,5.6-0.5,6.5,1.9c0.2,0.5,0.4,0.6,0.8,0.5c1.8-0.2,3.6-0.4,5.4-0.5c0.6,0,0.7-0.2,0.6-0.8c-0.5-2.5-1.7-4.4-3.9-5.7
			c-1.4-0.8-2.9-1.2-4.5-1.4c-3-0.3-6-0.2-8.7,1.2c-2.8,1.4-3.9,3.8-3.9,6.9c0,3,1.4,5.1,4.1,6.4c1.1,0.5,2.3,0.9,3.6,1.2
			c1.8,0.4,3.5,0.7,5.3,1.1c1.2,0.3,1.8,1.1,1.8,2.1c0,1.1-0.7,2-2,2.2c-1.3,0.3-2.6,0.3-3.9-0.1c-0.9-0.3-1.7-0.8-1.9-1.6
			c-0.3-1.7-1.4-1.7-2.7-1.6c-0.4,0-0.8,0-1.2,0c-1,0-1.9,0-2.9,0c-0.4,0-0.6,0-0.6,0.6c0.4,3.2,1.6,5.9,4.7,7.2
			c4.4,1.9,8.9,1.9,13.3-0.1c3-1.4,4.2-4,4.1-7.2C92.4,18.4,90.9,16.2,88.1,14.9z"/>
		<path d="M138.1,12.9c0-3.2,0-5.9,0-8.5c0-0.6-0.1-0.7-0.7-0.7c-1.8,0-3.5,0.1-5.3,0c-0.9,0-1,0.3-1,1c0,4.7,0,9.4,0,14.1
			c0,1-0.1,2.1-0.4,3.1c-0.5,1.5-1.7,2.2-3.6,2.2c-1.9,0-3-0.7-3.5-2.3c-0.4-1-0.4-2.1-0.4-3.2c0-4.7,0-9.3,0-14c0-0.8-0.2-1-1-1
			c-1.7,0.1-3.3,0.1-5,0c-0.8,0-1,0.2-1,1c0,4.5,0,9.1,0,13.6c0,1.2,0.1,2.4,0.2,3.7c0.7,4.4,3.3,7.2,7.7,7.9c1.5,0.3,3,0.3,4.5,0.2
			c5.2-0.3,8.5-3.4,9.2-8.6C138.4,18.4,138,15.4,138.1,12.9z"/>
		<path d="M183.9,4.3c0-0.6-0.3-0.6-0.7-0.6c-6.8,0-13.6,0-20.4,0c-0.5,0-0.8,0.1-0.7,0.7c0,1.5,0,2.9,0,4.4c0,0.6,0.2,0.8,0.8,0.8
			c1.9,0,3.9,0,5.8,0c0.3,0,0.8-0.3,0.8,0.4c-0.1,0.1-0.1,0.1,0,0.2c0,0.3,0.1,0.6,0.1,1c0,5.8,0,11.6,0,17.3c0,0.8,0.2,1,1,1
			c1.6-0.1,3.3-0.1,5,0c0.9,0,1.1-0.2,1.1-1.1c0-5.9,0-11.7,0-17.6c0-0.9,0.1-1.3,1.1-1.2c1.9,0.1,3.7,0,5.6,0
			c0.5,0,0.7-0.1,0.7-0.6C183.8,7.4,183.8,5.8,183.9,4.3z"/>
		<path d="M68.9,16.7c0-4,0-8,0-12.1c0-0.7-0.1-0.9-0.9-0.9c-1.8,0.1-3.5,0-5.3,0c-0.6,0-0.9,0.1-0.9,0.8c0,8,0,16.1,0,24.1
			c0,0.7,0.3,0.8,0.9,0.8c1.7,0,3.4-0.1,5.1,0c0.8,0,1.1-0.2,1.1-1C68.8,24.5,68.9,20.6,68.9,16.7z"/>
		<path d="M49.8,3.9c-4.1-0.5-8.3-0.1-12.5-0.2c-0.8,0-0.5,0.5-0.5,0.9c0,3.8,0,7.7,0,11.5c0,4.3,0,8.5,0,12.8c0,0.1,0,0.1,0,0.2
			c0,0.3,0.2,0.3,0.4,0.3c3.8,0,7.7,0.1,11.5-0.1c4.3-0.3,7.9-2.2,9.9-6.3c1.3-2.7,1.5-5.7,1.3-8.6C59.3,8.3,55.8,4.6,49.8,3.9z
			 M52.3,19.6c-0.7,2.3-2.2,3.6-4.5,3.9c-1.2,0.1-2.4,0-3.5,0.1c-0.7,0-0.5-0.4-0.5-0.8c0-2.1,0-4.2,0-6.2s0-4.2,0-6.2
			c0-0.6,0.2-0.8,0.8-0.8c1,0.1,2.1,0,3.1,0c2.6,0.2,4.1,1.4,4.8,3.9C52.9,15.5,52.9,17.6,52.3,19.6z"/>
		<path d="M110.9,19.8c-0.2-0.4-0.4-0.7,0.1-1c3.3-2.4,3.8-5.7,3-9.4c-0.9-3.6-3.7-5-7-5.5c-4.2-0.5-8.4-0.1-12.6-0.2
			c-0.5,0-0.5,0.3-0.5,0.7c0,8.1,0,16.2,0,24.4c0,0.6,0.2,0.7,0.7,0.7c1.7,0,3.4,0,5.2,0c0.6,0,0.8-0.2,0.8-0.8c0-2.4,0-4.8,0-7.2
			c0-0.6,0.1-0.9,0.8-0.9c0.7,0.1,1.4,0.1,2,0c0.6-0.1,1,0.2,1.2,0.7c1.1,2.5,2.3,4.9,3.5,7.4c0.2,0.3,0.2,0.8,0.8,0.8
			c2.3,0,4.5,0,6.8,0c0.1-0.4-0.2-0.7-0.3-1C113.9,25.6,112.4,22.7,110.9,19.8z M104.7,15.1c-1.2,0.1-2.4,0-3.5,0
			c-0.6,0-0.6-0.2-0.6-0.7c0-0.8,0-1.6,0-2.4c0-0.8,0-1.6,0-2.5c0-0.5,0.2-0.6,0.6-0.6c1.2,0,2.4,0,3.6,0.1c1.9,0.1,2.9,1.3,2.9,3
			C107.7,14,106.7,15,104.7,15.1z"/>
		<path d="M153.3,3.9c-4-0.5-8-0.1-12-0.2c-0.8,0-0.5,0.5-0.5,0.9c0,4,0,8,0,12c0,3.9,0,7.9,0,11.8c0,0.9,0.3,1.1,1.1,1
			c1.6-0.1,3.2-0.1,4.8,0c0.7,0,0.8-0.2,0.8-0.8c0-2.2,0-4.4,0-6.6c0-0.7,0.2-1,0.9-1c1.5,0,2.9,0,4.4-0.1c2.7-0.3,5.1-1.1,6.6-3.5
			C163.1,11.9,159.9,4.7,153.3,3.9z M154.1,13.5c-0.3,1.1-1,1.7-2.1,1.9c-1.3,0.3-2.6,0.1-4,0.2c-0.5,0-0.6-0.2-0.6-0.7
			c0-0.9,0-1.7,0-2.6c0,0,0-0.1,0-0.1c0.1-1-0.5-2.2,0.3-2.9c0.7-0.7,5,0,5.7,0.7C154.4,11,154.4,12.2,154.1,13.5z"/>
	</g>
	<path fill="#5FA74B" d="M29.5,0.6c0-0.5-0.1-0.7-0.7-0.6c-2.2,0-4.5,0-6.7,0H15C13,0,10.9,0,8.8,0c-2.9,0-5.7,0-8.6,0
		C0.1,0.1,0,0.2,0,0.3v32.4c0,0.1,0.1,0.2,0.1,0.3l0,0c0.2,0,0.5,0.1,0.7,0.1c4.3,0,8.6,0,12.9,0c0.4,0,0.8,0,1.2,0
		c4.6,0,9.2,0,13.7,0c0.2,0,0.5,0.1,0.7-0.1C29.6,31,29.5,1.5,29.5,0.6z M11.8,7.2c-0.4,0-0.6,0.1-0.6,0.6c0,2.2,0,4.3,0,6.5H7.7
		c0-2.2,0-4.3,0-6.5c0-0.4-0.1-0.6-0.6-0.6c-1,0-2,0-3,0V3.7h10.6c0,1.2,0,2.4,0,3.5C13.7,7.2,12.8,7.2,11.8,7.2z M25,14.3
		c-3.4,0-6.8,0-10.3,0c0-2.3,0-4.6,0-6.9c0,0,0,0,0,0c0,0,0.1-0.1,0.1-0.1h3.4c0,1,0,2,0,3c0,0.4,0.1,0.6,0.6,0.6c2.2,0,4.3,0,6.5,0
		c0,1.1,0,2.1,0,3.2C25.4,14.3,25.3,14.3,25,14.3z M25.4,7.2c-2.3,0-4.6,0-6.9,0c0,0,0,0,0-0.1c0,0-0.1-0.1-0.1-0.1
		c0-1.1,0-2.3,0-3.4c2.2,0,4.5,0,6.7,0c0.3,0,0.4,0.1,0.4,0.4C25.4,5.1,25.4,6.2,25.4,7.2z"/>
</g>
</svg>
