<?xml version="1.0" encoding="utf-8"?>
<!-- Generator: Adobe Illustrator 17.1.0, SVG Export Plug-In . SVG Version: 6.00 Build 0)  -->
<!DOCTYPE svg PUBLIC "-//W3C//DTD SVG 1.1//EN" "http://www.w3.org/Graphics/SVG/1.1/DTD/svg11.dtd">
<svg version="1.1" id="Layer_1" xmlns="http://www.w3.org/2000/svg" xmlns:xlink="http://www.w3.org/1999/xlink" x="0px" y="0px"
	 width="159.9px" height="39.9px" viewBox="0 0 159.9 39.9" enable-background="new 0 0 159.9 39.9" xml:space="preserve">
<g>
	<path d="M90.9,0c-0.1,4.3-0.1,8.6-0.2,13c0.5-0.2,0.8-0.3,1.1-0.5c2.8-1.2,5.7-1.6,8.7-0.7c3.6,1.1,5.9,3.7,7.1,7.2
		c1.6,4.7,1.3,9.4-1.1,13.9c-2.2,4.1-5.9,6.1-10.3,6.8c-4.5,0.7-9,0-13.4-1c-0.2,0-0.4-0.4-0.4-0.6c0-8.2,0.1-16.3,0.2-24.5
		c0-2.2-0.1-4.4-0.2-6.6c0-0.2,0-0.4-0.1-0.6c-0.4-2-1-2.6-3-2.7c-0.6-0.1-0.7-0.3-0.7-0.8c0-0.5,0.3-0.5,0.7-0.6
		c2.7-0.5,5.4-1,8.2-1.6C88.6,0.4,89.7,0.2,90.9,0z M91,37.6c2.7,0.7,4.5,0,6.1-2.1c0.5-0.7,0.9-1.4,1.2-2.1
		c0.9-2.1,1.3-4.4,1.5-6.7c0.2-3,0-6-1.4-8.8c-1.4-2.9-3.7-4-6.9-3.2c-0.6,0.1-0.8,0.3-0.8,1c0.1,5.5,0.1,11.1,0.1,16.6
		C90.9,34,91,35.8,91,37.6z"/>
	<path d="M0.1,2.5c-0.2-1.6-0.2-1.6,1.3-1.6c10,0,20,0,30.1,0c1,0,1,0,1,1c0,3.1,0.1,6.1,0.2,9.2c0,0.6-0.2,0.8-0.7,0.9
		c-0.4,0.1-0.8,0.2-1.3,0.3c-0.5-1.3-1-2.5-1.6-3.7c-1.2-2.3-2.9-4.1-5.6-4.7c-0.3-0.1-0.7-0.2-1-0.2c-2.5,0-4.9,0-7.6,0
		c-0.1,5.1-0.2,10.2-0.4,15.4c1.9-0.1,3.6-0.1,5.4-0.4c1.3-0.2,2.1-1,2.6-2.1c0.3-0.7,0.7-1.5,0.8-2.3c0.1-0.6,0.4-0.8,1-0.7
		c0.3,0,0.5,0,0.9,0c0,4.4,0,8.7,0,13.1c-0.5,0-0.9,0-1.3,0c-0.2,0-0.4-0.3-0.4-0.5c-0.4-0.9-0.6-1.9-1.1-2.7c-0.7-1.4-2-2-3.5-2
		c-1.4,0-2.7,0-4.1,0c0,1.1,0,2.3,0,3.6c0.1,2.4,0.2,4.9,0.3,7.3c0.1,0.8,0.2,1.7,0.4,2.4c0.5,1.7,1.6,2.6,3.4,2.7
		c0.6,0.1,1.3,0.1,1.9,0.2c0,0.5,0,1,0,1.6c-6.9,0-13.8,0-20.7,0c-0.3-1.5-0.3-1.6,1-1.7c2.7-0.3,4-1.4,4.3-4.9
		C6,26.1,6,19.5,5.7,13c-0.1-2.1-0.2-4.2-0.5-6.3C5,4,3.8,2.9,1.1,2.6C0.8,2.6,0.5,2.5,0.1,2.5z"/>
	<path d="M56.7,25.3c-0.1,4-1.2,7.5-3.9,10.4c-3.2,3.3-7.3,4.3-11.8,4.1c-2.8-0.2-5.3-0.9-7.5-2.6c-2.7-2.1-4.1-4.9-4.7-8.2
		c-0.7-3.9-0.4-7.6,1.6-11.1c2.2-4,5.7-6.1,10.1-6.7c2.5-0.4,5.1-0.2,7.5,0.6c4.8,1.6,7.4,5.2,8.3,10C56.5,23,56.6,24.2,56.7,25.3z
		 M47.9,25.9c0.1,0,0.1,0,0.2,0c-0.3-2.3-0.4-4.5-0.8-6.8c-0.3-1.7-0.9-3.4-2-4.8c-1.7-2-4.5-1.9-5.9,0.2c-0.6,0.9-1,1.9-1.3,2.9
		c-1.1,4.7-1.1,9.5-0.2,14.2c0.3,1.8,0.9,3.6,2.2,5c1.6,1.8,4,1.8,5.5,0c0.6-0.7,1-1.6,1.3-2.5C47.8,31.5,47.9,28.7,47.9,25.9z"/>
	<path d="M136.1,34.7c-1.7,2.2-3.8,3.6-6.3,4.4c-5.4,1.6-10.5,0.9-14.8-3c-2.5-2.2-3.7-5.1-4.1-8.3c-0.5-4.1,0.3-8,2.7-11.4
		c2.2-3.1,5.3-4.7,9.1-5.3c2.5-0.3,5-0.2,7.4,0.8c3.3,1.5,5,4.2,5.8,7.5c0.4,1.5,0.5,3,0.7,4.6c-5.9,0-11.5,0-17.3,0
		c0,3.8,0.7,7.2,3.8,9.7c1.8,1.4,3.8,1.9,6.1,1.9c2.3,0,4.3-0.6,6.1-2C135.5,34.1,135.8,34.4,136.1,34.7z M128,22.1
		c-0.2-1.7-0.2-3.3-0.5-4.8c-0.2-1-0.5-1.9-0.9-2.8c-1-1.8-2.9-2.1-4.4-0.6c-0.4,0.4-0.8,0.9-1.1,1.4c-1.2,2.1-1.6,4.4-1.7,6.8
		C122.2,22.1,125,22.1,128,22.1z"/>
	<path d="M157,19.9c-0.3-0.8-0.5-1.6-1-2.3c-0.6-1-1.2-2.1-2.1-3c-1.5-1.5-3.3-1.9-5.3-1.3c-2.6,0.8-3.4,4.3-1.5,6.2
		c1.1,1.1,2.5,1.7,3.9,2.3c1.4,0.6,2.9,1.1,4.3,1.8c1.9,0.9,3.5,2.2,4.1,4.3c1,3.6,0,8.5-4.9,10.6c-2.4,1-5,1.3-7.6,1.2
		c-2.7-0.1-5.3-0.6-7.8-1.4c-0.6-0.2-0.9-0.5-0.9-1.2c0-2.1-0.1-4.2-0.2-6.2c0-0.8,0.2-1.2,0.9-1.2c0.2,0,0.3-0.1,0.5-0.1
		c0.4,0.9,0.7,1.8,1.2,2.6c0.7,1.1,1.4,2.2,2.2,3.1c1.7,1.7,3.9,2.3,6.2,1.6c1.6-0.5,2.6-1.6,2.9-3.3c0.3-1.7-0.3-3.1-1.9-3.9
		c-1.2-0.7-2.5-1.2-3.8-1.8c-1.3-0.6-2.7-1.1-3.9-1.8c-4.9-2.7-4.7-9.2-1.2-12.4c2-1.8,4.4-2.7,7-2.9c3.1-0.2,6.1,0.1,9.1,1.1
		c0.6,0.2,0.8,0.5,0.8,1.1c0,1.8,0.1,3.5,0.2,5.3c0,1,0,1-0.9,1.3C157.4,19.9,157.2,19.9,157,19.9z"/>
	<path d="M77.7,19.2c-1.4-0.4-2.7-0.9-4-1.2c-1.2-0.3-2.4,0-3.5,0.5c-0.7,0.3-1.2,0.8-1.1,1.7c0.1,4.5,0.1,9.1,0.1,13.6
		c0,0.5,0.1,1.1,0.3,1.6c0.3,1.2,1,1.9,2.2,2c0.8,0.1,1.5,0.1,2.3,0.2c0,0.5,0,1,0,1.6c-5.7,0-11.3,0-17.1,0c0-0.4,0-0.8,0-1.3
		c0-0.1,0.3-0.3,0.5-0.4c2.4-0.4,2.9-0.8,3.2-3.2c0.2-1.6,0.3-3.3,0.3-4.9c0-3.6-0.1-7.2-0.2-10.9c0-0.6-0.1-1.2-0.3-1.8
		c-0.3-1.3-1-1.9-2.4-2.1c-0.3,0-0.7-0.1-1-0.1c-0.2-1.1-0.2-1.2,0.8-1.4c3.6-0.7,7.2-1.4,10.8-2.1c0.2,0,0.3,0,0.5-0.1
		c0,1.9,0,3.8,0,5.8c2.6-4.5,6-7.2,11.6-5.2C79.6,14.3,78.6,16.8,77.7,19.2z"/>
</g>
</svg>
