<?xml version="1.0" encoding="utf-8"?>
<!-- Generator: Adobe Illustrator 17.1.0, SVG Export Plug-In . SVG Version: 6.00 Build 0)  -->
<!DOCTYPE svg PUBLIC "-//W3C//DTD SVG 1.1//EN" "http://www.w3.org/Graphics/SVG/1.1/DTD/svg11.dtd">
<svg version="1.1" id="Layer_1" xmlns="http://www.w3.org/2000/svg" xmlns:xlink="http://www.w3.org/1999/xlink" x="0px" y="0px"
	 width="160px" height="54.1px" viewBox="0 0 160 54.1" enable-background="new 0 0 160 54.1" xml:space="preserve">
<g>
	<path fill="#553388" d="M111.7,16c0,1.6,0,3.1,0,4.7c0.5,0,0.9,0,1.3,0c5.5,0,11.1,0,16.6,0c0.9,0,1.2,0.2,1.2,1.2
		c-0.1,3.7-0.1,7.5,0,11.2c0,1-0.3,1.2-1.2,1.2c-5.5,0-11.1,0-16.6,0c-0.4,0-0.8,0-1.3,0.1c0,1.6,0,3.1,0,4.8c0.5,0,1,0,1.5,0
		c6.3,0,12.6,0,18.8,0c1.1,0,1.3,0.3,1.3,1.4c-0.1,4,0,7.9,0,11.9c0,0.8-0.2,1-1,1c-15,0-30,0-44.9,0c-0.7,0-1-0.2-1-0.9
		c0-1.5,0-3.1,0-4.6c0-14.9,0-29.8,0-44.6c0-1.1,0.3-1.3,1.4-1.3c14.5,0,29.1,0,43.6,0c0.9,0,1.3,0.2,1.3,1.2c-0.1,4,0,7.9,0,11.9
		c0,0.9-0.2,1.2-1.2,1.2c-6.1,0-12.1,0-18.2,0C112.7,16,112.2,16,111.7,16z"/>
	<path fill="#553388" d="M81.8,22.8c-0.7-0.4-1.3-0.8-1.8-1.1c-4.3-2.6-8.9-4.3-14.1-3.9c-3.6,0.2-6.9,1.4-9.6,4
		c-3.7,3.8-3.4,8.9,0.7,12.3c2.9,2.3,6.2,3.4,9.9,3.5c4.9,0.1,9.3-1.1,13.4-3.8c0.4-0.3,0.9-0.5,1.4-0.9c0,0.3,0.1,0.5,0.1,0.7
		c-0.2,5.8-0.5,11.6-0.7,17.5c0,0.8-0.3,1.3-1.1,1.4c-10,2-20,2.8-29.9-0.2c-6.7-2-12.7-5.4-16.9-11.1c-6.8-9.1-5.9-20.7,2.1-29
		C40.6,6.7,47.2,3.6,54.5,2c8.7-1.8,17.3-1.1,25.8,0.9c0.6,0.1,0.8,0.5,0.8,1c0.1,2,0.2,4,0.2,6c0.2,4,0.3,8,0.5,11.9
		C81.8,22.1,81.8,22.3,81.8,22.8z"/>
	<path fill="#553388" d="M25.1,1.9c0,17.1,0,34.2,0,51.3c-8.3,0-16.5,0-24.8,0c0-17.1,0-34.1,0-51.3C8.5,1.9,16.8,1.9,25.1,1.9z"/>
	<g>
		<path fill="#553388" d="M146.2,11.9c-0.1,0.3-0.2,0.6-0.2,0.9c0,0.4,0.1,0.7,0.2,1c0.1,0.3,0.3,0.5,0.5,0.7
			c0.2,0.2,0.4,0.3,0.7,0.4c0.3,0.1,0.5,0.1,0.8,0.1c0.4,0,0.7,0,0.9-0.1s0.5-0.2,0.8-0.4l-3.4-3.2
			C146.4,11.4,146.3,11.6,146.2,11.9z"/>
		<path fill="#553388" d="M148.7,0c-6.2,0-11.2,5-11.2,11.2s5,11.2,11.2,11.2c6.2,0,11.2-5,11.2-11.2S155,0,148.7,0z M156.2,17h-3.8
			l-1.1-1.1c-0.6,0.5-1.2,0.8-1.8,1c-0.6,0.2-1.3,0.3-2,0.3c-1.5,0-2.6-0.4-3.5-1.1c-0.8-0.7-1.3-1.7-1.3-2.8c0-0.5,0.1-0.9,0.2-1.3
			c0.1-0.4,0.3-0.7,0.5-1c0.2-0.3,0.4-0.5,0.7-0.7c0.3-0.2,0.5-0.4,0.8-0.5c-0.2-0.2-0.5-0.4-0.7-0.6c-0.2-0.2-0.4-0.4-0.5-0.6
			c-0.1-0.2-0.3-0.5-0.3-0.7c-0.1-0.3-0.1-0.6-0.1-0.9c0-0.4,0.1-0.7,0.2-1.1c0.1-0.4,0.4-0.7,0.7-1c0.3-0.3,0.8-0.5,1.3-0.7
			c0.6-0.2,1.2-0.3,2-0.3c0.7,0,1.3,0.1,1.8,0.2c0.5,0.1,0.9,0.3,1.2,0.6c0.3,0.2,0.6,0.5,0.7,0.9c0.2,0.3,0.3,0.7,0.3,1.1
			c0,0.3,0,0.5-0.1,0.9c-0.1,0.3-0.2,0.6-0.4,0.9c-0.2,0.3-0.5,0.6-0.9,0.8c-0.4,0.2-0.8,0.5-1.4,0.6l2.4,2.4V9.6h3v0.9
			c0,0.2,0,0.5-0.1,0.9c0,0.3-0.1,0.6-0.2,0.9c-0.1,0.3-0.2,0.6-0.4,0.9c-0.2,0.3-0.3,0.6-0.6,0.8l3,2.8V17z"/>
		<path fill="#553388" d="M147.8,8.9c0.3-0.3,0.5-0.5,0.6-0.8c0.1-0.3,0.2-0.6,0.2-1c0-0.3,0-0.5-0.1-0.7c-0.1-0.2-0.2-0.3-0.3-0.4
			c-0.1-0.1-0.2-0.1-0.4-0.2c-0.1,0-0.2,0-0.3,0c-0.1,0-0.2,0-0.3,0c-0.1,0-0.2,0.1-0.3,0.2c-0.1,0.1-0.2,0.2-0.3,0.4
			c-0.1,0.2-0.1,0.4-0.1,0.6c0,0.3,0.1,0.6,0.3,0.9C147.1,8.3,147.4,8.6,147.8,8.9z"/>
	</g>
</g>
</svg>
