<?xml version="1.0" encoding="utf-8"?>
<!-- Generator: Adobe Illustrator 17.1.0, SVG Export Plug-In . SVG Version: 6.00 Build 0)  -->
<!DOCTYPE svg PUBLIC "-//W3C//DTD SVG 1.1//EN" "http://www.w3.org/Graphics/SVG/1.1/DTD/svg11.dtd">
<svg version="1.1" id="Слой_1" xmlns="http://www.w3.org/2000/svg" xmlns:xlink="http://www.w3.org/1999/xlink" x="0px" y="0px"
	 width="112px" height="36px" viewBox="-0.6 32 112 36" enable-background="new -0.6 32 112 36" xml:space="preserve">
<g>
	<g id="Прямоугольник_x2C__скругл._углы_1_копия_2_">
		<g>
			<path fill="#D0DEEF" d="M16.1,55.9c-0.3,0-0.6-0.1-0.8-0.2l-6.2-3.6c-0.4-0.2-0.7-0.6-0.8-1c-0.1-0.4-0.1-0.9,0.2-1.3l3.6-6.2
				c0.3-0.5,0.8-0.8,1.4-0.8c0.3,0,0.6,0.1,0.8,0.2l6.2,3.6c0.8,0.5,1.1,1.5,0.6,2.3L17.5,55C17.2,55.6,16.7,55.9,16.1,55.9
				L16.1,55.9z"/>
		</g>
		<g>
			<path fill="#0D0F0F" d="M13.5,43.4c0.2,0,0.4,0,0.6,0.2l6.2,3.6c0.5,0.3,0.7,1,0.4,1.5L17,54.8c-0.2,0.4-0.6,0.6-1,0.6
				c-0.2,0-0.4,0-0.6-0.2l-6.2-3.5c-0.5-0.3-0.7-1-0.4-1.5l3.6-6.2C12.7,43.6,13.1,43.4,13.5,43.4 M13.5,42.3
				c-0.8,0-1.5,0.4-1.9,1.1L8,49.6c-0.3,0.5-0.4,1.1-0.2,1.7c0.2,0.6,0.5,1,1,1.4l6.2,3.6c0.3,0.2,0.7,0.3,1.1,0.3
				c0.8,0,1.5-0.4,1.9-1.1l3.6-6.2c0.3-0.5,0.4-1.1,0.2-1.7c-0.2-0.6-0.5-1-1-1.4l-6.2-3.6C14.2,42.4,13.9,42.3,13.5,42.3L13.5,42.3
				z"/>
		</g>
	</g>
	<g id="Эллипс_1_копия_2_2_">
		<g>
			<ellipse fill="#0D0F0F" cx="18.4" cy="48.3" rx="0.9" ry="0.9"/>
		</g>
	</g>
	<g id="Эллипс_1_копия_6_2_">
		<g>
			<ellipse fill="#0D0F0F" cx="14.9" cy="49.3" rx="0.9" ry="0.9"/>
		</g>
	</g>
	<g id="Эллипс_1_копия_3_2_">
		<g>
			<ellipse fill="#0D0F0F" cx="11.3" cy="50.4" rx="0.9" ry="0.9"/>
		</g>
	</g>
	<g id="Эллипс_1_копия_4_2_">
		<g>
			<ellipse fill="#0D0F0F" cx="13.9" cy="45.8" rx="0.9" ry="0.9"/>
		</g>
	</g>
	<g id="Эллипс_1_копия_5_2_">
		<g>
			<ellipse fill="#0D0F0F" cx="15.8" cy="53" rx="0.9" ry="0.9"/>
		</g>
	</g>
	<g>
		<path fill="#FFFFFF" d="M4.2,56c-0.8,0-1.4-0.5-1.6-1.2l-1.8-6.9c-0.1-0.4-0.1-0.9,0.2-1.3c0.2-0.4,0.6-0.7,1-0.8L9,43.9
			c0.1,0,0.3-0.1,0.4-0.1c0.8,0,1.4,0.5,1.6,1.2l1.8,6.9c0.2,0.9-0.3,1.8-1.2,2l-7.1,1.9C4.5,56,4.3,56,4.2,56z"/>
	</g>
	<g id="Фигура_2_2_">
		<g>
			<path fill="#0D0F0F" d="M9.6,50.9c-0.1-0.2-0.3-0.4-0.5-0.3c-0.2,0-0.3,0.2-0.4,0.3c0,0-0.4,0.6-1.4,0.8c-0.9,0.2-1.5,0-1.6,0
				c-0.2-0.1-0.3-0.2-0.5-0.1c-0.2,0.1-0.4,0.3-0.3,0.5c0,0.2,0.2,0.3,0.3,0.4c0,0,1,0.4,2.3,0.1c1.3-0.3,2-1.2,2-1.2
				C9.7,51.2,9.7,51,9.6,50.9z"/>
		</g>
	</g>
	<g id="Фигура_4_2_">
		<g>
			<circle fill="#0D0F0F" cx="4.8" cy="49.2" r="0.9"/>
		</g>
	</g>
	<g id="Фигура_4_копия_3">
		<g>
			<circle fill="#0D0F0F" cx="8.4" cy="48.3" r="0.9"/>
		</g>
	</g>
	<g id="Прямоугольник_x2C__скругл._углы_3_2_">
		<path fill="#0D0F0F" d="M5.8,44.9l-0.5-1.7c-0.1-0.2-0.2-0.6-0.4-0.5c-0.2,0.1-0.3,0.2-0.2,0.5l0.5,1.9c0.1,0.2,0.2,0.2,0.5,0.1
			C5.9,45.1,5.9,45.1,5.8,44.9z"/>
	</g>
	<g>
		<path fill="#FFFFFF" d="M4.4,42.6c-0.8,0-1.4-0.5-1.6-1.2c-0.1-0.4-0.1-0.9,0.2-1.3c0.2-0.4,0.6-0.7,1-0.8c0.1,0,0.3-0.1,0.4-0.1
			c0.8,0,1.4,0.5,1.6,1.2c0.1,0.4,0.1,0.9-0.2,1.3c-0.2,0.4-0.6,0.7-1,0.8C4.7,42.6,4.6,42.6,4.4,42.6z"/>
	</g>
	<g>
		<path fill="none" d="M10.5,45.2c-0.1-0.5-0.6-0.8-1.1-0.8c-0.1,0-0.2,0-0.3,0L2,46.3c-0.6,0.2-1,0.8-0.8,1.4l1.8,6.9
			c0.1,0.5,0.6,0.8,1.1,0.8c0.1,0,0.2,0,0.3,0l7.1-1.9c0.6-0.2,1-0.8,0.8-1.4L10.5,45.2z"/>
		<path fill="#0D0F0F" d="M13.4,51.8l-1.8-6.9c-0.3-1-1.1-1.6-2.2-1.6c-0.2,0-0.4,0-0.6,0.1l-7.1,1.9c-0.6,0.2-1,0.5-1.4,1
			C0.1,46.8,0,47.4,0.2,48L2,54.9c0.3,1,1.1,1.6,2.2,1.6c0.2,0,0.4,0,0.6-0.1l7.1-1.9c0.6-0.2,1-0.5,1.4-1
			C13.5,53,13.6,52.4,13.4,51.8z M11.6,53.5l-7.1,1.9c-0.1,0-0.2,0-0.3,0c-0.5,0-0.9-0.3-1.1-0.8l-1.8-6.9c-0.2-0.6,0.2-1.2,0.8-1.4
			l7.1-1.9c0.1,0,0.2,0,0.3,0c0.5,0,0.9,0.3,1.1,0.8l1.8,6.9C12.5,52.7,12.1,53.3,11.6,53.5z"/>
	</g>
	<path fill="#0D0F0F" d="M4.4,43.1c0.2,0,0.4,0,0.6-0.1c1.2-0.3,1.9-1.5,1.6-2.7c-0.3-1-1.2-1.7-2.2-1.7c-0.2,0-0.4,0-0.6,0.1
		c-0.6,0.2-1,0.5-1.3,1s-0.4,1.1-0.2,1.7C2.5,42.5,3.4,43.1,4.4,43.1z M4.1,39.8c0.1,0,0.2,0,0.3,0c0.5,0,0.9,0.3,1.1,0.8
		c0.2,0.6-0.2,1.2-0.8,1.4c-0.1,0-0.2,0-0.3,0c-0.5,0-0.9-0.3-1.1-0.8C3.2,40.6,3.6,40,4.1,39.8z"/>
	<g id="Эллипс_4_копия_2_2_">
		<path fill="#495987" d="M82.5,43.3c0.4,0,0.7,0.3,0.7,0.7c0,0.4-0.3,0.7-0.7,0.7s-0.7-0.3-0.7-0.7C81.8,43.6,82.1,43.3,82.5,43.3
			 M82.5,42.4c-0.9,0-1.6,0.7-1.6,1.6s0.7,1.6,1.6,1.6s1.6-0.7,1.6-1.6S83.4,42.4,82.5,42.4L82.5,42.4z"/>
	</g>
</g>
<g>
	<path fill="#0E0F10" d="M30.7,44.3c0.8,0,1.5,0,2,0c0.6,0,1,0,1.3,0c1.1,0,2,0.2,2.6,0.7c0.6,0.5,0.9,1.2,0.9,2.1
		c0,0.5-0.1,0.9-0.4,1.3c-0.3,0.4-0.6,0.7-1,0.8c0.2,0.1,0.5,0.2,0.7,0.4c0.2,0.2,0.4,0.4,0.6,0.6c0.2,0.2,0.3,0.5,0.4,0.8
		c0.1,0.3,0.2,0.6,0.2,0.9c0,1-0.3,1.7-1,2.3c-0.6,0.5-1.6,0.8-2.8,0.8c-0.4,0-0.9,0-1.5,0c-0.6,0-1.3,0-2.1,0l-0.1-0.1L30.7,44.3
		L30.7,44.3z M32.6,45.8v2.8h1.3c1,0,1.5-0.5,1.5-1.4c0-0.4-0.1-0.7-0.2-0.9c-0.2-0.2-0.4-0.3-0.6-0.4c-0.3-0.1-0.6-0.1-0.9-0.1
		C33.3,45.8,33,45.8,32.6,45.8z M34.1,50.1h-1.5v3.3c0.2,0,0.4,0,0.7,0c0.2,0,0.5,0,0.7,0c0.2,0,0.5,0,0.7-0.1
		c0.2,0,0.4-0.1,0.6-0.2c0.2-0.1,0.3-0.3,0.4-0.5c0.1-0.2,0.2-0.5,0.2-0.8c0-0.2,0-0.4-0.1-0.6s-0.2-0.4-0.3-0.5
		c-0.1-0.2-0.3-0.3-0.6-0.4C34.7,50.1,34.4,50.1,34.1,50.1z"/>
	<path fill="#0E0F10" d="M44.8,47.9c0.7,0.7,1.1,1.8,1.1,3.2c0,0.6-0.1,1.2-0.2,1.7c-0.2,0.5-0.4,0.9-0.7,1.3
		c-0.3,0.4-0.6,0.6-1.1,0.8s-0.9,0.3-1.5,0.3c-0.5,0-1-0.1-1.4-0.3S40.3,54.3,40,54c-0.3-0.4-0.5-0.8-0.7-1.3
		c-0.2-0.5-0.2-1-0.2-1.7c0-1.2,0.3-2.2,0.9-2.9c0.6-0.7,1.4-1.1,2.5-1.1C43.4,47,44.2,47.3,44.8,47.9z M42.5,48.5
		c-0.9,0-1.4,0.8-1.4,2.5c0,1.7,0.4,2.5,1.4,2.5c0.9,0,1.4-0.8,1.4-2.5C43.8,49.4,43.4,48.5,42.5,48.5z"/>
	<path fill="#0E0F10" d="M51.4,47.2c0.1,0.2,0.1,0.5,0.1,0.7c0,0.2,0,0.5-0.1,0.7l-1.8,0v4c0,0.5,0.2,0.7,0.7,0.7h1
		c0.1,0.3,0.2,0.6,0.2,0.9c0,0.3,0,0.4,0,0.5c-0.6,0.1-1.2,0.1-1.8,0.1c-1.2,0-1.8-0.6-1.8-1.9v-4.4l-1.2,0c0-0.2-0.1-0.4-0.1-0.7
		s0-0.5,0.1-0.7l1.2,0v-1.1c0-0.4,0.1-0.8,0.2-1c0.2-0.2,0.4-0.3,0.8-0.3h0.8l0.1,0.1v2.2L51.4,47.2z"/>
	<path fill="#0E0F10" d="M57.1,49.6h2.3c0.3,0,0.6,0.1,0.7,0.2c0.1,0.1,0.2,0.3,0.2,0.6v4c-1.1,0.4-2.3,0.7-3.6,0.7
		c-0.8,0-1.4-0.2-2-0.4c-0.6-0.3-1-0.7-1.3-1.2c-0.6-1-0.9-2.2-0.9-3.7c0-1,0.1-1.8,0.4-2.5s0.6-1.3,1-1.7c0.8-0.8,1.8-1.2,3-1.2
		c0.6,0,1.2,0.1,1.9,0.3c0.6,0.2,1.2,0.5,1.6,0.8c-0.1,0.4-0.3,0.7-0.6,0.9c-0.8-0.7-1.8-1-2.9-1c-0.9,0-1.6,0.4-2.2,1.1
		s-0.9,1.8-0.9,3.4c0,2.9,1,4.3,3.1,4.3c0.8,0,1.6-0.1,2.3-0.4v-2.1c0-0.4,0-0.8,0-0.9h-1.7c-0.4,0-0.5-0.2-0.5-0.6
		C57,49.9,57.1,49.8,57.1,49.6z"/>
	<path fill="#0E0F10" d="M68.2,54.4c-0.1,0.3-0.3,0.5-0.5,0.6c-0.5-0.2-0.8-0.5-1-1.1c-0.8,0.8-1.6,1.2-2.3,1.2
		c-0.4,0-0.7-0.1-1-0.2c-0.3-0.1-0.5-0.3-0.7-0.5c-0.2-0.2-0.3-0.4-0.4-0.7c-0.1-0.3-0.2-0.6-0.2-0.8c0-0.4,0.1-0.8,0.2-1.1
		c0.1-0.3,0.3-0.6,0.6-0.8c0.2-0.2,0.5-0.4,0.8-0.5c0.3-0.1,0.7-0.2,1.1-0.2c0.8,0,1.4,0,1.9,0.1v-0.8c0-1-0.5-1.6-1.4-1.6
		c-0.7,0-1.5,0.2-2.5,0.6c-0.3-0.2-0.4-0.5-0.4-0.9c1.1-0.5,2.1-0.7,3-0.7c1.6,0,2.4,0.8,2.4,2.6v3.2c0,0.4,0,0.7,0.1,0.9
		C67.9,54,68.1,54.2,68.2,54.4z M66.7,52.8v-1.5c-0.2,0-0.5-0.1-0.8-0.1c-0.3,0-0.5,0-0.8,0c-0.6,0-1,0.1-1.3,0.4
		c-0.3,0.3-0.5,0.6-0.5,1.1c0,0.4,0.1,0.8,0.3,1c0.2,0.2,0.5,0.4,0.9,0.4c0.4,0,0.8-0.1,1.2-0.3C66,53.5,66.3,53.2,66.7,52.8z"/>
	<path fill="#0E0F10" d="M74.4,49.9c0-0.6-0.1-1-0.2-1.3c-0.2-0.3-0.4-0.4-0.8-0.4c-0.4,0-0.7,0.1-1.1,0.3c-0.4,0.2-0.7,0.5-1,0.9
		v5.4c-0.2,0-0.3,0-0.6,0c-0.2,0-0.4,0-0.6,0v-7.5l0.1-0.1h0.4c0.2,0,0.4,0.1,0.5,0.2c0.1,0.1,0.1,0.3,0.1,0.6v0.2
		c0.6-0.7,1.4-1.1,2.2-1.1s1.4,0.4,1.7,1.2c0.8-0.8,1.7-1.2,2.5-1.2c0.6,0,1.1,0.2,1.4,0.6s0.5,1,0.5,1.7v3.8c0,0.6,0.1,1,0.2,1.3
		c-0.2,0.2-0.4,0.2-0.7,0.2c-0.4,0-0.6-0.2-0.6-0.8v-4.2c0-0.6-0.1-1-0.2-1.3s-0.4-0.4-0.8-0.4c-0.4,0-0.7,0.1-1.1,0.3
		c-0.4,0.2-0.7,0.5-1,0.9v5.5c-0.2,0-0.3,0-0.6,0c-0.2,0-0.4,0-0.6,0L74.4,49.9L74.4,49.9z"/>
	<path fill="#0E0F10" d="M83.5,48.4v6.5c-0.2,0-0.3,0-0.6,0c-0.2,0-0.4,0-0.6,0v-5.9c0-0.3,0-0.5-0.1-0.6c-0.1-0.1-0.3-0.2-0.5-0.2
		h-0.1c0-0.1-0.1-0.2-0.1-0.4c0-0.2,0-0.3,0.1-0.4c0.2,0,0.4,0,0.5,0c0.1,0,0.2,0,0.3,0h0.1c0.3,0,0.6,0.1,0.7,0.3
		C83.4,47.8,83.5,48,83.5,48.4z"/>
	<path fill="#0E0F10" d="M91.8,49.6v3.8c0,0.6,0.1,1,0.2,1.3c-0.2,0.2-0.4,0.2-0.7,0.2c-0.4,0-0.6-0.2-0.6-0.8v-4.2
		c0-0.6-0.1-1.1-0.2-1.3c-0.2-0.3-0.4-0.4-0.9-0.4c-0.4,0-0.8,0.1-1.3,0.3c-0.4,0.2-0.8,0.5-1.1,0.8v5.5c-0.2,0-0.3,0-0.6,0
		c-0.2,0-0.4,0-0.6,0v-7.5l0.1-0.1h0.4c0.2,0,0.4,0.1,0.5,0.2c0.1,0.1,0.1,0.3,0.1,0.6v0.2c0.4-0.3,0.8-0.6,1.2-0.8s0.9-0.3,1.4-0.3
		c0.7,0,1.2,0.2,1.5,0.7C91.6,48.3,91.8,48.9,91.8,49.6z"/>
	<path fill="#0E0F10" d="M98.7,47.9c0.1-0.4,0.4-0.6,0.8-0.8c0.2,0.1,0.4,0.3,0.5,0.6c-0.3,0.3-0.4,0.8-0.4,1.6v4.8
		c0,0.7-0.1,1.3-0.2,1.8c-0.1,0.5-0.3,0.9-0.6,1.2c-0.2,0.3-0.6,0.6-0.9,0.7c-0.4,0.1-0.8,0.2-1.3,0.2c-1,0-1.8-0.2-2.6-0.5
		c0-0.4,0.1-0.6,0.3-0.9c0.7,0.3,1.4,0.5,2.1,0.5c0.4,0,0.8-0.1,1-0.2c0.3-0.1,0.5-0.3,0.6-0.5c0.2-0.2,0.3-0.5,0.3-0.8
		c0.1-0.3,0.1-0.6,0.1-1v-0.9c-0.7,0.7-1.4,1-2.2,1c-0.8,0-1.5-0.4-1.9-1c-0.4-0.7-0.7-1.6-0.7-2.9c0-0.6,0.1-1.2,0.2-1.7
		c0.2-0.5,0.4-0.9,0.6-1.2c0.3-0.3,0.6-0.6,0.9-0.8c0.4-0.2,0.7-0.3,1.1-0.3C97.3,47.1,98,47.4,98.7,47.9z M98.5,52.9v-4
		c-0.3-0.3-0.6-0.4-0.9-0.6s-0.6-0.2-0.9-0.2c-0.6,0-1,0.2-1.4,0.8c-0.4,0.5-0.5,1.2-0.5,2.2c0,1,0.2,1.7,0.4,2.2
		c0.3,0.5,0.7,0.7,1.1,0.7s0.8-0.1,1.2-0.3S98.2,53.2,98.5,52.9z"/>
</g>
<g>
	<path d="M106.2,44.7H105v3.4h-0.7v-3.4h-1.1v-0.6h2.9V44.7z"/>
	<path d="M111,48.1h-0.7v-2.6c0-0.2,0-0.5,0-0.8h0c0,0.2-0.1,0.3-0.1,0.4l-1.2,3h-0.5l-1.2-2.9c0-0.1-0.1-0.2-0.1-0.4h0
		c0,0.2,0,0.4,0,0.8v2.6h-0.6v-4h0.9l1,2.6c0.1,0.2,0.1,0.4,0.2,0.5h0c0.1-0.2,0.1-0.4,0.2-0.5l1.1-2.6h0.9V48.1z"/>
</g>
</svg>

