<?xml version="1.0" encoding="utf-8"?>
<!-- Generator: Adobe Illustrator 17.1.0, SVG Export Plug-In . SVG Version: 6.00 Build 0)  -->
<!DOCTYPE svg PUBLIC "-//W3C//DTD SVG 1.1//EN" "http://www.w3.org/Graphics/SVG/1.1/DTD/svg11.dtd">
<svg version="1.1" id="Layer_1" xmlns="http://www.w3.org/2000/svg" xmlns:xlink="http://www.w3.org/1999/xlink" x="0px" y="0px"
	 width="89.1px" height="70.8px" viewBox="60.3 2.3 89.1 70.8" enable-background="new 60.3 2.3 89.1 70.8" xml:space="preserve">
<g>
	<path fill="#64AEE7" d="M68.4,36.3c0,4.4-0.2,8.7,0.1,13.1c0.1,3-1.7,2.5-3.5,2.6c-1.9,0-3.5,0.3-3.4-2.6c0.2-7,0.2-13.9,0-20.9
		c-0.1-2.3,0.9-2.6,2.9-2.8c4.7-0.6,7.8,0.8,9.4,5.6c1.1,3.1,3,6,5,9.7c0.5-4.3,0.5-7.8,1.4-11.2c5.1-19.2,24.5-30.4,43.6-25
		c0.3,0.1,0.6,0.2,1,0.3c1.6,0.3,2,1.4,1.7,2.8c-0.4,2-1.7,0.8-2.6,0.5c-9.9-2.6-19.2-1.6-27.7,4.3C84.7,20.5,80.1,35,84.6,48.4
		c4.4,13.1,16.8,21.7,30.8,21.1c20.7-0.8,34.9-20.5,29.1-40.3c-0.3-1.1-2.2-2.7,0-3.5c2.1-0.8,2.8,0.8,3.4,2.6
		c5.6,17.8-4.8,37.6-22.7,43.1c-16.9,5.2-33.8-1.8-42.1-17.3c-0.6-1.1-0.9-2.5-2.6-2.2c-2.9,0.5-3.9-1.3-4.9-3.4
		c-2-4.2-4.3-8.3-6.5-12.5C68.9,36.1,68.6,36.2,68.4,36.3z"/>
	<path fill="#323032" d="M137.1,41.9c0,2.6-0.1,5.2,0,7.7c0.2,2.9-1.8,2.2-3.3,2.2c-1.5,0-3.4,0.7-3.3-2.2c0.2-5.1,0.2-10.3,0-15.5
		c-0.1-2.8,1.8-2.1,3.2-2c1.4,0.1,3.6-1.1,3.5,2C137,36.7,137.1,39.3,137.1,41.9z"/>
	<path fill="#323032" d="M69.4,63c-1.9,0-3.9-0.1-5.8,0c-2.2,0.2-1.7-1.3-1.7-2.5c0-1.2-0.5-2.6,1.7-2.5c3.8,0.1,7.7,0.1,11.6,0
		c2.1-0.1,1.5,1.3,1.5,2.4c-0.1,1,0.8,2.7-1.5,2.6C73.2,62.9,71.3,63,69.4,63z"/>
	<path fill="#64AEE7" d="M133.9,10.9c1.8-0.3,2.6,0.5,2.3,2.3c-0.3,2.2,0.6,3.2,2.8,2.8c2.1-0.3,2.3,0.9,2.3,2.6
		c0,1.8-0.5,2.5-2.3,2.3c-2.2-0.3-3.1,0.6-2.8,2.8c0.2,1.7-0.5,2.4-2.3,2.4c-1.9,0-2.8-0.5-2.5-2.5c0.4-2.4-0.8-3-2.9-2.7
		c-1.8,0.2-2.3-0.7-2.3-2.4c0-1.5,0.2-2.8,2.2-2.5c2.3,0.3,3.4-0.5,3-2.9C131.2,11.2,132.3,10.7,133.9,10.9z"/>
	<path fill="#323032" d="M122.8,50.5c0-7.9,0-15.7,0-23.6c0.2-0.9-0.3-1.2-1.1-1.2c-2.7,0-5.4,0-8.1,0c-0.8,0-1.3,0.4-1.3,1.2h0
		c-1.6,4.8-3.3,9.6-5.2,15.3c-1.7-5.2-3-9.4-4.4-13.5c-0.4-1.1-0.2-3-2.1-3c-2.9,0-5.8-0.4-8.7,0.3c-0.7,0.2-0.4,1.2-0.4,1.8
		c0,7.2,0.1,14.4-0.1,21.6c-0.1,3.2,2,2.3,3.6,2.4c1.8,0.1,3.3,0.2,3.1-2.5c-0.2-4.6-0.1-9.3-0.1-14.4c1.5,0.9,1.4,2.2,1.8,3.2
		c1.3,3.8,2.7,7.7,3.7,11.6c0.6,2.3,2.2,2.1,3.9,2.2c1.8,0.1,2.9-0.3,3.5-2.2c1.4-5,3.1-9.9,4.7-14.8c0.3,0,0.6,0,1,0
		c0.2-0.2,0.3-0.5,0.4-0.7c-0.1,0.2-0.2,0.5-0.4,0.7c0,5.2,0,10.4,0,15.6c-0.3,1,0,1.5,1.1,1.3c1.3,0,2.7,0,4,0
		C122.7,52,123.1,51.6,122.8,50.5z"/>
</g>
</svg>
