<?xml version="1.0" encoding="utf-8"?>
<!-- Generator: Adobe Illustrator 17.1.0, SVG Export Plug-In . SVG Version: 6.00 Build 0)  -->
<!DOCTYPE svg PUBLIC "-//W3C//DTD SVG 1.1//EN" "http://www.w3.org/Graphics/SVG/1.1/DTD/svg11.dtd">
<svg version="1.1" id="Layer_1" xmlns="http://www.w3.org/2000/svg" xmlns:xlink="http://www.w3.org/1999/xlink" x="0px" y="0px"
	 width="158.9px" height="30.2px" viewBox="0 0 158.9 30.2" enable-background="new 0 0 158.9 30.2" xml:space="preserve">
<g>
	<path fill="#B42E4A" d="M108.1,6.9c-1.1,0-2,0.1-2.8,0c-0.8-0.1-0.9,0.2-0.9,0.9c0,6.9,0,13.9,0,20.8c0,0.9-0.1,1.3-1.2,1.3
		c-1.5-0.1-3-0.1-4.4,0c-0.9,0.1-1-0.3-1-1.1c0-5.7,0-11.5,0-17.2c0-0.1,0-0.3,0-0.4c-0.4,0.2-0.4,0.5-0.5,0.8
		c-2.1,4.5-4.1,9-6.1,13.5c-0.3,0.6-0.6,0.9-1.3,0.9c-0.9-0.1-1.9-0.1-2.8,0c-0.8,0.1-1.2-0.2-1.6-1c-2-4.4-4-8.8-6-13.2
		c-0.1-0.3-0.3-0.5-0.4-0.8c-0.3,0.4-0.2,0.7-0.2,1.1c0,5.5,0,11,0,16.5c0,0.9-0.3,1.1-1.1,1c-1.6-0.1-3.2,0-4.8,0
		c-0.6,0-0.8-0.1-0.8-0.7c0-9.3,0-18.7,0-28c0-0.6,0.2-0.7,0.7-0.7c2.1,0,4.2,0,6.3,0c0.7,0,1,0.2,1.2,0.8
		c2.4,5.2,4.9,10.4,7.4,15.6c0.1,0.3,0.3,0.6,0.5,1.1c0.5-1,1-1.9,1.4-2.8c2.2-4.6,4.4-9.2,6.6-13.8c0.3-0.6,0.6-0.9,1.3-0.9
		c2,0.1,4,0,6,0c0.5,0,0.9,0.1,1.2,0.6C105.8,3,106.9,4.9,108.1,6.9z"/>
	<path fill="#B42E4A" d="M67.4,20.6c0,1.7,0,3.3,0,5c0,0.4-0.1,0.7-0.5,1C61.1,30,55,31.4,48.6,28.9c-6.1-2.4-9.6-8.3-9.1-15.1
		c0.4-6,5-11.3,11.3-12.9C56.6-0.7,62,0.4,67,4c0.6,0.4,0.7,0.7,0.2,1.3C66,6.4,65,7.6,64,8.9c-0.5,0.7-0.8,0.5-1.4,0.1
		c-2.6-2-5.6-3.1-8.9-2.4c-4.8,1-7.6,5.7-6.5,10.7c1.1,4.8,5.7,7.5,10.6,6.3c3-0.8,3-0.8,3-3.8c0-1.4,0-2.8,0-4.2
		c0-0.6,0.1-0.7,0.7-0.7c1.7,0,3.4,0,5.1,0c0.5,0,0.7,0.2,0.7,0.7C67.3,17.2,67.4,18.9,67.4,20.6z"/>
	<path fill="#B42E4A" d="M12.4,30c-2.4,0-4.8-0.3-7-1.2c-2.8-1.2-4.6-3.2-5.3-6.2c-0.1-0.5,0-0.6,0.4-0.7c1.8-0.4,3.5-0.9,5.3-1.4
		c0.4-0.1,0.5-0.1,0.7,0.4c0.5,1.8,1.7,2.8,3.4,3.3c1.5,0.4,3,0.5,4.6,0.1c1.5-0.4,2.3-1.3,2.4-2.6c0.1-1.5-0.5-2.4-2-3
		c-1.8-0.7-3.7-1-5.5-1.4c-1.6-0.4-3.3-0.7-4.8-1.5c-2.7-1.3-4-3.5-4.1-6.4C0.4,6,1.4,3.3,4.4,1.6c3-1.7,6.3-1.8,9.7-1.5
		c2.3,0.2,4.6,0.8,6.5,2.3C22,3.5,23,5,23.6,6.7c0.2,0.4,0.2,0.7-0.4,0.8c-1.7,0.4-3.4,0.9-5,1.3c-0.3,0.1-0.5,0.2-0.7-0.2
		C15.9,6,14,5.2,11,5.6c-0.8,0.1-1.5,0.3-2.1,0.7c-1.6,1.1-1.5,3.3,0.2,4.2c1.6,0.9,3.5,1.1,5.3,1.4c1.9,0.4,3.8,0.9,5.5,1.8
		c3.1,1.6,4.3,4.2,4.3,7.6c-0.1,3.3-1.5,5.8-4.5,7.2C17.3,29.7,14.9,30,12.4,30z"/>
	<path fill="#B42E4A" d="M116.6,11.8c1.8-3.1,3.6-6.2,5.4-9.2c0.4-0.6,0.8-1.3,1.2-2.1c1.2,2.1,2.4,4.1,3.5,6
		c3.6,6.2,7.2,12.3,10.7,18.5c0.9,1.6,1.8,3.2,2.8,4.9c-1.8,0-3.5-0.1-5.2,0c-1.7,0.2-2.7-0.3-3.4-1.9c-0.5-1.1-1.2-2.1-1.8-3.1
		c-0.1-0.2-0.2-0.4-0.3-0.6c-2-3.4-4-6.9-5.9-10.3c-0.1-0.2-0.1-0.5-0.5-0.5c-0.9,1.6-1.8,3.3-2.8,4.9c-2,3.5-4.1,7-6.1,10.5
		c-0.4,0.7-0.8,1-1.7,1c-2-0.1-4.1,0-6.3,0c0.6-1,1.1-1.9,1.6-2.7c2.8-4.9,5.6-9.7,8.4-14.6C116.4,12.3,116.5,12,116.6,11.8z"/>
	<path fill="#B42E4A" d="M32.1,6.9c1.1,1.9,2.2,3.8,3.3,5.7c0.3,0.4,0.4,0.9,0.4,1.4c0,5,0,10,0,15c0,0.7-0.1,1-0.9,0.9
		c-2-0.1-3.9-0.1-5.9-0.1c-0.6,0-0.9-0.1-0.9-0.9c0-7.1,0-14.2,0-21.3c0-0.7,0.2-0.8,0.8-0.8c1,0,2,0,3,0C32,6.9,32,6.9,32.1,6.9z"
		/>
	<path fill="#B42E4A" d="M153.9,4.6c1.4,0,2.9,0,4.3,0c0.6,0,0.7,0.2,0.7,0.7c0,0.9-0.1,1.7-0.5,2.6c-1.7,4-3.4,8-5.1,12
		c-0.3,0.7-0.7,1-1.4,0.9c-0.5-0.1-1.1-0.1-1.7,0c-0.8,0.1-0.7-0.2-0.5-0.8c1.6-3.8,3.2-7.7,4.9-11.5c0.3-0.7,0.2-0.9-0.5-0.9
		c-1.5,0-3.1,0-4.6,0c-0.5,0-0.7-0.1-0.7-0.6c-0.1-2.5-0.1-2.5,2.4-2.5C152.1,4.6,153,4.6,153.9,4.6z"/>
	<path fill="#B42E4A" d="M147,12.7c0,2.4,0,4.8,0,7.3c0,0.7-0.2,0.8-0.8,0.8c-2.4,0-2.4,0-2.4-2.4c0-4.3,0-8.6,0-13
		c0-0.7,0.2-0.9,0.9-0.9c2.3,0,2.3,0,2.3,2.3C147,8.8,147,10.8,147,12.7z"/>
	<path fill="#232323" d="M32.1,6.9c-0.1,0-0.1-0.1-0.2-0.1c-1.1-1.8-2.2-3.6-3.3-5.5c-0.1-0.2-0.5-0.5-0.3-0.8
		c0.1-0.3,0.5-0.2,0.8-0.2c2,0,3.9,0,5.9,0c0.5,0,0.8,0.1,0.7,0.7c0,1.7,0,3.3,0,5c0,0.7-0.3,0.8-0.8,0.7C34,6.9,33,6.9,32.1,6.9z"
		/>
	<path fill="#B42E4A" d="M140.3,6.2c0-0.2,0-0.4,0-0.6c0-0.9,0.8-1.4,1.6-1c0.2,0.1,0.2,0.3,0.2,0.5c0,0.5-0.1,1.1,0,1.6
		c0.1,0.9-0.2,1.1-1.1,1.1C139.6,7.7,140.6,6.6,140.3,6.2z"/>
</g>
</svg>
