<?xml version="1.0" encoding="utf-8"?>
<!-- Generator: Adobe Illustrator 17.1.0, SVG Export Plug-In . SVG Version: 6.00 Build 0)  -->
<!DOCTYPE svg PUBLIC "-//W3C//DTD SVG 1.1//EN" "http://www.w3.org/Graphics/SVG/1.1/DTD/svg11.dtd">
<svg version="1.1" id="Layer_1" xmlns="http://www.w3.org/2000/svg" xmlns:xlink="http://www.w3.org/1999/xlink" x="0px" y="0px"
	 width="165.4px" height="74.2px" viewBox="0 0 165.4 74.2" enable-background="new 0 0 165.4 74.2" xml:space="preserve">
<g>
	<g>
		<path fill="#6FB693" d="M0.4,28.6C1,26,2,23.6,4.1,21.8c0.1,0.2,0.1,0.4,0.2,0.5c-3.6,3.8-4.1,8.4-3.5,13.2c0.1-1,0.1-2,0.2-3
			c0.3-2.7,1-5.2,2.8-7.4c0,0.2,0.1,0.3,0.2,0.4c0,0.3-0.3,0.5-0.4,0.8C1.4,30,1.3,33.9,1.8,37.9c0.1-1.3,0-2.6,0.3-3.9
			c0.4-2.3,1-4.6,2.7-6.4c0.2,0.1,0.3,0.1,0.5,0.2c-1.9,2.5-2.6,5.4-2.7,8.5c0,1.1-0.1,2.1,0.3,3.2c0,0.3,0,0.7,0,1
			c0.1-0.3,0.3-0.7,0-1c0.1-0.8,0.1-1.7,0.2-2.5C3.2,34.5,3.8,32,5.6,30c0.1,0.2,0.2,0.3,0.2,0.5C3.4,34,3.1,37.9,3.7,42
			c0-1.5,0.1-3,0.4-4.4c0.5-2.6,1.6-4.9,3.7-6.6c0.1,0.2,0.1,0.3,0.2,0.5c-3.8,3.7-4,8.4-3.3,13.2c0.1-1,0-2.1,0.1-3.1
			c0.2-2.6,0.9-5,2.7-7c0.1,0.2,0.3,0.2,0.4,0.3C5.2,38.1,4.9,42,5.5,46c0.1-1,0.1-2.1,0.2-3.1c0.4-2.6,1.2-5,3.3-6.9
			c0.2,0.1,0.3,0.2,0.3,0.4c-0.5,0.6-1,1.1-1.4,1.8C6.2,41,6,44.1,6.3,47.3c0.1,0.5,0.1,1,0.2,1.5c0,0,0,0,0.1,0c0-0.5,0-1.1,0-1.6
			c0-0.5,0-0.9,0.1-1.4c0.3-2.6,1-5,2.9-7c0.2,0.1,0.4,0.1,0.5,0.2c-3,3.3-3.2,8.3-2.6,11.5c0-1.4,0.1-2.7,0.3-3.9
			c0.3-1.3,0.6-2.5,1.3-3.7c0.1,0.2,0.2,0.3,0.4,0.3c-1.4,2.7-1.6,5.6-1.3,8.6c0.2-2.3,0.5-4.5,1.7-6.6c0.1,0.2,0.2,0.3,0.4,0.3
			C9.1,47.8,8.7,50.3,9,53c0.3-1.7,0.6-3.5,1.4-5c0.2,0,0.4,0,0.5,0.2c-0.9,2.3-1.4,4.8-1,7.3c0.3-1.9,0.6-3.8,1.6-5.5
			c0.2,0,0.4,0.1,0.4,0.2c-1.1,2.4-1.6,4.9-1.2,7.6c0.2-1.5,0.4-3,1.1-4.4c0.2,0,0.4,0,0.5,0c-1,3.3-1.3,5.4-0.8,6.3
			c0.2-1.1,0.3-2.2,0.8-3.2c0.2,0,0.3,0,0.5,0c-0.8,2.9-0.8,3.7-0.5,4.9c0.1-0.6,0.3-1.1,0.4-1.6c0.2,0.1,0.3,0.1,0.5,0.2
			c0,0.2-0.1,0.5-0.1,0.7c-0.1,0.9-0.4,1.7-0.1,2.6c0.2,0.5,0.2,0.9,0.1,1.5c-0.7-0.6-0.6-1.3-1-2c-0.7-1.2-1.4-2.5-2-3.7
			C8.1,55,5.8,51,3.7,46.9c-0.1-0.3-0.3-0.5-0.6-0.4c-1.6-3.9-2.7-7.9-3-12.2C-0.1,32,0.2,29.6,0.4,28.6z M9.1,52.9
			c-0.3,0.7,0,1.1,0.1,1.5C9.2,54,9.3,53.6,9.1,52.9z M1,36.1C1,36.1,0.9,36.1,1,36.1c-0.1,0.2-0.1,0.4-0.1,0.6c0,0,0,0,0.1,0
			C1,36.6,1,36.4,1,36.1z"/>
		<path fill="#30495D" d="M60.8,21.3c1.2-2.5,2-5.2,1.9-8.1c0-3.3-0.9-6.5-2.3-9.5c-0.5-1-1-2-1.7-2.9c-0.2-0.3-0.3-0.5-0.1-0.8
			c0.1,0,0.2,0,0.3,0c1.8,2.8,3.3,5.8,3.9,9.1c0.8,4.3,0.5,8.5-1.6,12.4C61.2,21.4,61,21.4,60.8,21.3z"/>
		<path fill="#2D475A" d="M60.8,21.3c0.2,0.1,0.3,0.1,0.5,0.2c-1.5,2.9-3.5,5.2-6.6,6.5c-2.1,0.9-4,2.1-6,3.2
			c-2.3,1.2-4.6,2.4-6.9,3.7c-1.1,0.6-2.3,1.2-3.4,1.8c-1.4,0.8-2.9,1.6-4.3,2.4c-1.2,0.7-2.3,1.3-3.4,2c-0.4,0.3-0.8,0.6-1.3,0.7
			c0-0.1,0-0.3-0.2-0.3C29,41.6,29.1,41.8,29,42c-0.4,0.3-0.9,0.6-1.3,1c-0.2-0.4,0.2-0.7,0.3-1.1c0.3-0.2,0.5-0.4,0.6-0.7
			c0.2-0.1,0.3-0.3,0.3-0.5c0.3-0.2,0.4-0.6,0.5-0.9c0-0.2,0-0.4,0-0.5c0.3-0.3,0.3-0.7,0.3-1.1c0-0.2,0-0.4,0-0.6
			c0-0.4,0-0.8,0-1.2c0-0.2,0.1-0.4-0.1-0.6c0-0.5,0-1.1-0.4-1.5c0-0.2,0-0.4-0.1-0.6c-0.2-0.6-0.4-1.2-0.8-1.7
			c-0.1-0.3-0.2-0.5-0.3-0.8c-0.3-0.5-0.6-1-1-1.5c0.2,0,0.4,0,0.6,0c0.1,0.1,0.1,0.1,0.2,0.2c0.4,0.7,0.5,1.5,1.2,1.9
			c0,0.3,0.1,0.5,0.3,0.7c0.2,0.5,0.3,1,0.5,1.5c0.1,0.2,0.1,0.5,0.2,0.7c0.1,0.5,0.1,0.9,0.3,1.4c0,0.2,0,0.4,0,0.6
			c-0.3,0.4-0.3,0.8,0,1.2c0,0.2,0,0.3,0,0.5c-0.3,0.3-0.2,0.7-0.2,1c-0.2,0.1-0.1,0.3-0.1,0.5c-0.1,0.3-0.2,0.5-0.3,0.8
			c0,0.2-0.3,0.3,0,0.5c0.1,0.1,0.3,0,0.4-0.1c0.1-0.1,0.3-0.3,0.3-0.5c0.4-0.1,0.7-0.3,0.8-0.7c0.3-0.1,0.4-0.3,0.3-0.6
			c0.3-0.2,0.4-0.5,0.5-0.7c0.1-0.2,0.1-0.4,0.2-0.7c0.1-0.3,0.2-0.6,0.2-0.9c0-0.2,0.1-0.4,0.1-0.6c0-0.3,0.1-0.7,0.1-1
			c0-0.2,0-0.5,0-0.7c0-0.4,0-0.9-0.2-1.3c0-0.2,0.1-0.5-0.1-0.7c-0.1-0.5-0.2-1-0.5-1.4c-0.1-0.2-0.2-0.5-0.2-0.7
			c-0.2-0.6-0.4-1.3-0.9-1.8c0-0.4-0.3-0.7-0.6-0.9c0.1-0.3-0.2-0.5-0.3-0.8c-0.2-0.2-0.2-0.4,0.1-0.6c0.1,0,0.1,0,0.2,0
			c0.5,0.7,0.9,1.4,1.4,2c0,0.3,0.1,0.5,0.4,0.7c0,0.1,0,0.2,0.1,0.2l0,0c0,0.6,0.3,1.2,0.7,1.7c0,0.2,0,0.4,0.1,0.7
			c0.2,0.5,0.1,1,0.4,1.4c0,0.2,0,0.4,0,0.6c0,0.4,0,0.8,0,1.1c0,0.3,0,0.5,0,0.8c0.1,0.3-0.3,0.8,0,0.9c0.5,0.2,1.1,0.1,1.6,0
			c0.3-0.1,0.3-0.5,0.4-0.8c0-0.2,0-0.4,0-0.5c0.3-0.3,0.3-0.7,0.3-1.1c0-0.2,0-0.4,0-0.6c0.1-0.4,0.1-0.8,0-1.2c0-0.2,0-0.4,0-0.6
			c0-0.5-0.1-0.9-0.2-1.3c-0.1-0.2-0.1-0.5-0.2-0.7c-0.2-0.5-0.3-1-0.5-1.5c0-0.1-0.1-0.1-0.2-0.1l0,0c0.1-0.3-0.1-0.5-0.1-0.8
			c-0.3-0.6-0.5-1.3-1-1.8c-0.2-0.3-0.4-0.7-0.6-1c-0.1-0.1-0.1-0.1-0.2,0l0,0c0.1-0.2-0.2-0.6,0.1-0.7c0.4-0.1,0.4,0.3,0.6,0.5
			c0.3,0.3,0.5,0.7,0.8,1.1c0.1,0.3,0.3,0.6,0.4,0.9c0.4,0.5,0.5,1.2,0.9,1.7c0,0.2-0.1,0.5,0.2,0.7c0.1,0.5,0.2,1.1,0.5,1.5
			c0,0.2,0,0.4,0,0.6c0,0.4,0,0.9,0.2,1.3c-0.1,0.2-0.1,0.4-0.2,0.6c0.1,0.4-0.2,0.8,0.2,1.2c0,0.2,0,0.3,0,0.5
			c-0.1,0.3-0.5,0.7-0.2,1c0.5,0.5,1.7-0.1,1.8-0.8c0.2-0.1,0.2-0.3,0.2-0.5c0.3-0.3,0.2-0.6,0.3-1c0-0.2,0-0.4,0-0.6
			c0.2-0.4,0.2-0.7,0.1-1.1c0-0.2,0-0.4,0-0.6c0-0.4,0-0.8,0-1.2c0-0.2,0.1-0.5-0.1-0.7c-0.1-0.5-0.1-1-0.4-1.4
			c0-0.2,0.1-0.5-0.2-0.7c-0.3-1.6-1.1-3-1.9-4.3c-0.1-0.2-0.2-0.4-0.4-0.6c-0.2-0.2-0.3-0.5,0-0.6c0.3-0.2,0.4,0.1,0.5,0.3
			c0.7,0.9,1.3,1.9,1.7,3c0.4,0.8,0.7,1.7,1,2.6c0,0.2,0,0.5,0.2,0.7c0.1,0.4,0.1,0.9,0.2,1.3c0,0.2-0.1,0.5,0,0.7
			c0,0.4,0.1,0.8,0.1,1.2c0,0.2,0,0.4,0,0.5c-0.2,0.4-0.2,0.7-0.1,1.1c0,0.2,0,0.3,0,0.5c-0.2,0.2-0.2,0.6-0.3,0.9
			c0,0.2,0,0.4,0,0.6c-0.3,0.2-0.4,0.5-0.4,0.8c-0.2,0.1-0.3,0.3-0.3,0.5c-0.2,0.1-0.3,0.3-0.2,0.5c0.4-0.1,0.8-0.1,1-0.5
			c0.3-0.1,0.4-0.3,0.4-0.5c0.3-0.2,0.7-0.3,0.6-0.8c0.2-0.1,0.2-0.3,0.3-0.5c0.4-0.2,0.5-0.5,0.4-0.9c0.2-0.1,0.2-0.3,0.2-0.5
			c0.3-0.2,0.3-0.6,0.4-0.9c0.2-0.2,0.1-0.4,0.2-0.6c0.2-0.3,0.2-0.7,0.1-1.1c0.1-0.2,0.1-0.4,0.2-0.6c0-0.4,0-0.8,0-1.1
			c0-0.2,0-0.5,0-0.7c-0.2-3-1.3-5.7-2.9-8.2c-0.1-0.2-0.6-0.4-0.2-0.7c0.5-0.3,0.5,0.2,0.7,0.5c1.7,2.5,2.8,5.3,3,8.4
			c0,0.1,0.1,0.3,0.1,0.4c0,0.2,0,0.4,0,0.6c-0.1,0.4-0.1,0.7-0.1,1.1c0,0.2,0,0.4,0,0.6c-0.1,0.3-0.4,0.7,0,1
			c0.5,0.4,1.6-0.1,1.8-0.7c0-0.2,0-0.4,0-0.5c0.3-0.3,0.3-0.6,0.3-1c0.1-0.2,0.1-0.4,0.2-0.6c0.6-4.1-0.6-7.7-2.7-11.1
			c-0.1-0.2-0.2-0.3-0.3-0.5c-0.2-0.2-0.4-0.5-0.1-0.7c0.3-0.2,0.4,0.2,0.5,0.4c2.5,3.7,3.7,7.6,3.2,12.1c0,0.2-0.1,0.4-0.1,0.6
			c-0.2,0.3-0.3,0.6-0.1,1c-0.2,0.1-0.2,0.3-0.2,0.5c-0.2,0.2-0.4,0.5-0.3,0.9c-0.2,0.1-0.2,0.3-0.2,0.5c-0.3,0.2-0.4,0.4-0.3,0.7
			c-0.2,0.1-0.5,0.3-0.2,0.6c0.2,0.2,0.5,0,0.6-0.2c0.1-0.2,0.2-0.3,0.3-0.5c0.3-0.1,0.5-0.2,0.7-0.5c0.2-0.1,0.3-0.4,0.3-0.6
			c0.3-0.2,0.4-0.4,0.5-0.7c0.1-0.2,0.1-0.3,0.2-0.5c0.3-0.2,0.4-0.5,0.5-0.8c0.1-0.2,0.1-0.4,0.2-0.6c1.2-3.2,1-6.4,0-9.6
			c-0.6-1.8-1.4-3.4-2.4-4.9c-0.1-0.2-0.5-0.4,0-0.7c0.4-0.2,0.4,0.2,0.5,0.4c2.4,3.6,4.5,8.9,2.7,14.9c1.4,0.2,1.4,0.2,2-1.1
			c0.2-0.5,0.4-1,0.6-1.5c0.2,0,0.4,0,0.5,0c-0.2,0.9-0.6,1.7-1,2.6l0,0.1c-0.2,0.1-0.2,0.3-0.2,0.5c-0.2,0.1-0.4,0.3-0.4,0.6
			c-0.1,0.2-0.5,0.3-0.4,0.7c0,0.1,0.2,0.1,0.2,0.1c0.2-0.2,0.6-0.3,0.6-0.7c0-0.1,0-0.1,0-0.2c0.3-0.1,0.7-0.1,0.8-0.5
			c0.3-0.1,0.4-0.3,0.3-0.6c0.5-0.2,0.6-0.6,0.8-1c0.7-1.1,1.2-2.4,1.6-3.7c0.2,0,0.4,0,0.6,0c-0.2,0.8-0.4,1.5-0.8,2.2
			c-0.3,0.7-0.7,1.4-1.1,2.1c0.6,0.1,0.9-0.2,1.2-0.5c1.5-1.7,2.4-3.7,3.1-5.8c0.2,0,0.4,0,0.6,0.1c-0.5,2.1-1.5,3.9-2.6,5.7
			c1.8-1.1,2.9-2.8,3.9-4.5c0.2,0,0.4,0,0.6,0c-0.4,0.9-1,1.7-1.4,2.5c-0.1,0.1-0.2,0.2-0.3,0.3c-0.1,0.1-0.1,0.1-0.2,0.2
			c0.1,0.1,0.2,0.1,0.3-0.1c0.1-0.1,0.3-0.2,0.4-0.3C58.9,24.6,59.9,22.9,60.8,21.3z M47.2,30.8c0.3-0.1,0.5-0.2,0.6-0.5
			C48,30.2,48,30,48,29.7c0.3-0.1,0.6-0.2,0.5-0.5c-0.1-0.3-0.4-0.2-0.6-0.2c-0.6-0.1-0.9,0.2-0.9,0.8c-0.1,0.2-0.1,0.3-0.2,0.5
			c-0.3,0.1-0.3,0.4-0.4,0.6c-0.1,0.2-0.4,0.4-0.2,0.6c0.2,0.2,0.4-0.2,0.6-0.3C47,31.2,47.2,31.1,47.2,30.8z M35.6,36.8
			c-0.3,0.1-0.4,0.4-0.5,0.6c0,0.2-0.3,0.4,0,0.5c0.3,0.1,0.3-0.2,0.3-0.4c0.3-0.2,0.8-0.2,1-0.6c0.2-0.1,0.4-0.3,0.4-0.5
			c0.2-0.2,0.4-0.3,0.5-0.6c-1.3-0.2-1.3-0.2-1.6,0.6C35.6,36.5,35.6,36.7,35.6,36.8z M32.7,38.9c0.4-0.2,0.9-0.1,1-0.7
			c0.2-0.1,0.4-0.3,0.3-0.6c0.3-0.1,0.7-0.4,0.3-0.7c-0.3-0.2-0.9-0.4-1.3-0.2c-0.3,0.2-0.3,0.6-0.2,0.9c-0.2,0.1-0.2,0.3-0.2,0.5
			c-0.1,0.2-0.2,0.4-0.3,0.7c0,0.2-0.3,0.4,0,0.5C32.7,39.5,32.7,39.2,32.7,38.9z M41.5,32.9c-0.3,0.1-0.3,0.4-0.5,0.6
			c-0.2,0.3-0.4,0.7,0,0.9c0.3,0.1,0.7-0.2,0.8-0.6c0-0.1,0-0.2,0-0.2c0.3-0.1,0.7-0.2,0.7-0.6c0.3-0.1,0.3-0.3,0.3-0.6
			c0.3-0.1,0.4-0.4,0.5-0.7c-1.5-0.1-1.5-0.1-1.7,0.7C41.5,32.5,41.5,32.7,41.5,32.9z M51.7,28.8c0.1,0,0.3-0.1,0.3-0.3
			c0-0.1-0.1-0.2-0.2-0.2c-0.2,0-0.2,0.2-0.3,0.3C51.5,28.8,51.6,28.8,51.7,28.8z M45.9,31.8c0,0-0.1,0.1-0.1,0.1c0,0,0.1,0,0.1,0
			c0,0,0,0,0-0.1C45.9,31.8,45.9,31.8,45.9,31.8z M51.2,29.1C51.2,29.1,51.2,29.1,51.2,29.1C51.2,29.1,51.2,29.1,51.2,29.1
			C51.2,29.1,51.2,29.1,51.2,29.1C51.2,29,51.2,29,51.2,29.1z"/>
		<path fill="#314D5E" d="M26,43.8c-0.2,0.4-0.5,0.7-0.9,0.9c-1.1,0.6-1.9,1.5-2.8,2.3c-1.5,1.4-2.4,3.1-3,5.1
			c-0.4,1.5-0.7,3-0.8,4.5c-0.1,1.2-0.6,2.2-1.2,3.3c-0.2,0-0.4,0-0.6,0c0.6-1.4,1.3-2.8,1.3-4.4c0,0,0-0.1,0-0.1c0,0,0-0.1,0.1-0.1
			c0,0-0.1,0-0.1,0.1c-0.2-0.1-0.3-0.1-0.5-0.2c0.4-0.7,0.9-1.4,0.4-2.3c0-0.3,0-0.5,0-0.8c-0.2-0.5-0.1-1-0.5-1.4
			c0-0.2,0-0.4-0.2-0.5c-0.1-0.6-0.2-1.1-0.7-1.6c0-0.2,0-0.4-0.2-0.5c0.1-0.3-0.2-0.4-0.2-0.6c0.1-0.1,0.3-0.1,0.4-0.2
			c0.1,0.1,0.2,0.3,0.3,0.4c0,0.2,0.2,0.4,0.4,0.5c0.1,0.6,0.3,1.1,0.6,1.5c0,0.2,0,0.4,0.2,0.5c-0.1,0.5-0.1,1,0.3,1.3
			c0.1,0.4-0.2,0.9,0.2,1.3c0.3-0.6,0.3-1.2,0.3-1.8c0.2-0.4,0.2-0.9,0.2-1.3c0-0.2,0-0.5,0-0.7c0-0.5,0.1-1-0.1-1.5
			c0-0.2,0-0.4-0.2-0.5c0.2-0.6-0.1-1.1-0.3-1.7c0-0.2,0-0.4-0.2-0.5c0-0.6-0.4-1.1-0.5-1.6c0.1-0.2,0.3-0.2,0.5-0.2
			c0.2,0.5,0.4,1.1,0.6,1.6c0.1,0.2,0.1,0.4,0.2,0.6c0.1,0.5,0.2,0.9,0.3,1.4c0,0.2,0,0.4,0,0.6c0.1,0.4,0.2,0.7,0.3,1.1
			c0.7-0.4,1.3-0.8,1.3-1.7c0-0.2,0-0.4,0.1-0.6c0.3-0.4,0.2-0.9,0.1-1.3c0-0.2,0-0.4,0-0.6c0-0.5,0-1-0.3-1.4c0-0.2,0-0.4,0-0.6
			c-0.2-0.6-0.3-1.1-0.6-1.6c-0.1-0.2-0.2-0.3-0.3-0.5c0.1-0.5-0.4-0.9-0.5-1.3c0.1-0.1,0.3-0.1,0.4-0.2l0.1,0l0.1,0
			c0.4,0.5,0.3,1.2,0.9,1.5c0,0.2,0.1,0.4,0.3,0.5c0.1,0.6,0.3,1.1,0.6,1.6c0,0.2,0,0.4,0,0.6c0.1,0.4,0.1,0.8,0.2,1.3
			c0,0.2,0,0.4,0,0.6c0,0.2,0,0.5,0,0.7c0,0.3,0.1,0.5,0.4,0.3c0.6-0.2,1.2-0.4,1.2-1.1c0.1-0.2,0.1-0.4,0.2-0.6
			c0.3-0.3,0.2-0.7,0.3-1.1c0-0.2,0-0.4,0.1-0.6c0-0.4,0.2-0.9-0.1-1.3c0-0.2,0-0.4,0-0.7c-0.1-0.5-0.1-1.1-0.5-1.5
			c0-0.2,0-0.4-0.2-0.6c0-0.7-0.5-1.3-0.8-1.8c-0.2-0.3-0.3-0.6-0.5-0.8c-0.1-0.1-0.1-0.1-0.2,0l0,0c0.1-0.4-0.3-0.6-0.4-0.8
			c-0.3-0.4-0.1-0.5,0.2-0.6c0.6,0.6,0.9,1.4,1.5,1.9c0,0.2,0,0.5,0.2,0.6c0.3,0.6,0.5,1.1,0.8,1.7c0.1,0.2,0.1,0.5,0.2,0.7
			c0.1,0.5,0.2,0.9,0.3,1.4c0,0.2,0,0.5,0,0.7c0.1,1.2,0.1,1.2,1.2,1.1c0.2,0,0.4,0,0.6,0c-0.1,0.2-0.2,0.4-0.2,0.6
			c-0.4-0.2-0.8,0-1.2,0c-0.6,0-0.5,0.5-0.4,0.8c0,0.4,0.4,0.1,0.6,0.1c0.2,0,0.3,0,0.5-0.1C25.5,43.8,25.8,43.8,26,43.8z"/>
		<path fill="#68AB8C" d="M3,46.4c0.3,0,0.5,0.2,0.6,0.4C5.8,51,8.1,55,10.1,59.2c0.6,1.3,1.3,2.5,2,3.7c0.3,0.6,0.3,1.4,1,2
			c0.2-0.6,0.2-1-0.1-1.5c0.2-0.6,0.3-1.2,0.6-1.7c0.1,0.2,0.2,0.2,0.4,0.2c-0.3,1-0.7,2-0.6,3c-0.1,0.4,0.3,1-0.3,1.3
			c-2.2-3.2-4-6.6-5.8-10c-1.6-3.1-3.1-6.2-4.3-9.5C3.1,46.6,3.1,46.5,3,46.4z"/>
		<path fill="#2D475A" d="M26.1,42.7c0.1-0.2,0.2-0.4,0.2-0.6c0.1-0.3,0.2-0.6,0.3-1c0-0.2,0-0.4,0-0.6c0.2-0.3,0.1-0.7,0.2-1.1
			c0-0.2,0-0.5,0-0.7c-0.1-0.4-0.1-0.9-0.2-1.3c-0.1-0.2-0.1-0.5-0.2-0.7c-0.2-0.6-0.2-1.2-0.7-1.6c0-0.3-0.1-0.5-0.2-0.7
			c-0.1-0.3-0.3-0.7-0.4-1c0-0.2,0-0.3,0.2-0.4c0.1,0,0.1,0,0.2,0c0.4,0.6,0.5,1.3,1,1.8c-0.1,0.3,0.1,0.5,0.1,0.7
			c0.2,0.5,0.4,1,0.5,1.5c0,0.2,0,0.4,0,0.6c0.1,0.4,0.1,0.8,0.2,1.2c0,0.2,0,0.4,0,0.6c0,0.4,0,0.7,0,1.1c0,0.2,0,0.3,0,0.5
			c-0.2,0.2-0.2,0.6-0.3,0.8c-0.1,0.6-0.6,1.1-0.7,1.7c-0.1,0.1-0.2,0.1-0.3,0.2c-0.2,0-0.5,0-0.5-0.3C25.8,43.3,25.9,43,26.1,42.7z
			"/>
		<path fill="#578B80" d="M14.9,67.7c-0.1,0.2-0.2,0.4-0.4,0.6c-0.5-0.6-0.9-1.3-1.3-2c0.7-0.3,0.2-0.9,0.3-1.3
			c0.4-0.3,0.4-0.9,0.8-1.2c0.2,0.1,0.3,0.1,0.5,0.2c-0.1,0.2-0.1,0.4-0.3,0.5c-0.6,1-0.7,1.9,0.1,2.8
			C14.8,67.4,14.8,67.6,14.9,67.7z"/>
		<path fill="#314D5E" d="M26.3,43.7c0.1-0.6,0.6-1.1,0.7-1.7c0.3,0.1,0.7-0.2,1-0.1c-0.1,0.4-0.5,0.7-0.3,1.1
			C27.3,43.3,26.9,43.6,26.3,43.7z"/>
		<path fill="#4D7C79" d="M14.8,63.9c-0.2-0.1-0.3-0.1-0.5-0.2c0.3-0.8,0.9-1.5,1.4-2.2c0.1,0.2,0.2,0.2,0.4,0.2
			C15.9,62.6,15.1,63.2,14.8,63.9z"/>
		<path fill="#466D72" d="M16.1,61.8c-0.2,0-0.3,0-0.4-0.2c0.4-0.6,0.7-1.1,1.1-1.7c0.2,0,0.4,0,0.6,0
			C17.1,60.6,16.6,61.2,16.1,61.8z"/>
		<path fill="#578B80" d="M16.8,71.8c0.2,0,0.5,0,0.7,0c0.1,0.1,0.2,0.3,0.3,0.4c0.1,0.2,0,0.4-0.2,0.5c-0.2,0.1-0.3,0-0.4-0.2
			C17.1,72.3,17,72.1,16.8,71.8z"/>
		<path fill="#314D5E" d="M29,42c0-0.1-0.1-0.4,0.1-0.4c0.2-0.1,0.2,0.1,0.2,0.3C29.3,42,29.2,42,29,42z"/>
		<g>
			<polygon fill="#578B80" points="16.8,71.8 16.8,71.8 16.8,71.8 			"/>
			<path fill="#578B80" d="M14.9,67.7c-0.1,0.2-0.2,0.4-0.4,0.6c0.1,0.1,0.1,0.2,0.2,0.3c0.1,0.1,0.1,0.2,0.2,0.2
				c0.1,0.1,0.1,0.2,0.2,0.3c0,0.2,0.1,0.4,0.3,0.5c0,0.2,0.1,0.4,0.3,0.5c0.1,0.1,0.1,0.2,0.2,0.3c0,0.2,0.1,0.3,0.3,0.4
				c0.2,0.2,0.2,0.6,0.5,0.8c0,0.1,0.1,0.1,0.1,0.2c0.2,0,0.5,0,0.7,0C16.9,70.3,15.9,69,14.9,67.7z"/>
		</g>
		<path fill="#578B80" d="M16.7,71.6c0,0.1,0.1,0.1,0.1,0.2C16.8,71.8,16.7,71.7,16.7,71.6z"/>
		<path fill="#578B80" d="M14.7,68.6c0.1,0.1,0.1,0.2,0.2,0.2C14.8,68.8,14.7,68.7,14.7,68.6z"/>
		<path fill="#30495D" d="M58.5,23c-0.2,0-0.4,0-0.6,0c0.8-1.9,1.5-3.8,1.7-5.8c0.4-3.8-0.5-7.4-2.1-10.9c-0.5-1.1-1.1-2.1-1.8-3
			c-0.1-0.2-0.2-0.3,0-0.5c0.2-0.2,0.4,0,0.5,0.1C60.2,8.5,62,16.3,58.5,23z"/>
		<path fill="#30495D" d="M56.7,21.8c-0.2,0-0.4,0-0.6-0.1c1.4-5.6,0-10.7-2.9-15.5C53.1,6.1,53,6,52.9,5.9c-0.2-0.2-0.3-0.5,0-0.6
			c0.3-0.2,0.4,0.2,0.5,0.3c1.6,2.4,2.8,5,3.4,7.8C57.5,16.2,57.5,19,56.7,21.8z"/>
		<path fill="#30495D" d="M53.7,23.8c-0.2,0-0.4,0-0.6,0c1.4-5.3,0.1-10.1-2.7-14.7c-0.1-0.1-0.1-0.2-0.2-0.3
			c-0.1-0.3-0.7-0.5-0.2-0.8c0.5-0.3,0.5,0.3,0.7,0.5c1.1,1.7,2,3.5,2.6,5.5C54.4,17.2,54.7,20.5,53.7,23.8z"/>
		<path fill="#30495D" d="M50.7,25.8c-0.2,0-0.4,0-0.5,0c1.4-5.2,0-10-2.8-14.4c-0.1-0.1-0.2-0.3-0.3-0.4c-0.1-0.1-0.1-0.3,0.1-0.4
			c0.2-0.1,0.3-0.1,0.4,0c0.1,0.2,0.2,0.3,0.3,0.5c2.2,3.4,3.5,7.1,3.3,11.3C51.2,23.6,51,24.7,50.7,25.8z"/>
		<path fill="#578B80" d="M9.8,18.8c2.8-0.8,5.7-0.8,8.5-0.2c1.5,0.3,3,0.6,4.5,1.1c0.3,0.1,0.6,0.3,0.9,0.4c0,0.2,0,0.4,0,0.6
			c-4.5-1.8-9.1-2.4-13.9-1.3C9.8,19.1,9.8,18.9,9.8,18.8z"/>
		<path fill="#4D7C79" d="M23.7,20.6c0-0.2,0-0.4,0-0.6c2.8,1.4,5.7,2.8,8.5,4.1c0.1,0.1,0.3,0,0.4,0.1l0,0c0,0,0,0.1,0.1,0.1
			c0.1,0,0.2,0,0.2-0.1c0.2,0.3,0.4,0.7,0.6,1c-0.3-0.1-0.5-0.2-0.8-0.3C29.6,23.7,26.7,22.1,23.7,20.6z"/>
		<path fill="#69A990" d="M9.8,18.8c0,0.2,0,0.3,0,0.5c-2.1,0.6-3.9,1.6-5.5,3.1c-0.1-0.2-0.1-0.4-0.2-0.5
			C5.7,20.2,7.6,19.2,9.8,18.8z"/>
		<path fill="#466D72" d="M34.5,25.9c-0.1-0.3-0.3-0.6-0.4-0.9c1.3,0.5,2.6,0.9,3.8,1.4c0.2,0.2,0.1,0.4,0.2,0.7
			C36.9,26.8,35.8,26.1,34.5,25.9z"/>
		<path fill="#466D72" d="M39,27.4c-0.1-0.2-0.2-0.4-0.2-0.7c1,0.2,1.8,0.6,2.8,0.7c0,0.2,0,0.5,0,0.7C40.8,27.9,39.9,27.7,39,27.4z
			"/>
		<path fill="#466D72" d="M42.3,28.3c0-0.2,0-0.4,0-0.6c0.7,0.1,1.4,0.4,2.2,0.3c-0.1,0.2-0.1,0.4-0.2,0.6
			C43.7,28.5,43,28.4,42.3,28.3z"/>
		<path fill="#466D72" d="M46.9,28.4c-0.1,0.2-0.1,0.4-0.2,0.6c-0.6-0.1-1.1-0.1-1.7-0.2c0-0.2,0.1-0.4,0.1-0.6
			C45.7,28.4,46.3,28.3,46.9,28.4z"/>
		<path fill="#314D5E" d="M49.5,29c0-0.2,0-0.4,0.2-0.5c0.1,0,0.1,0,0.2,0c0.3,0,0.6,0,0.8-0.1c0,0.3-0.1,0.5-0.3,0.6
			C50.1,29,49.8,29,49.5,29z"/>
		<path fill="#30495D" d="M49.9,28.5c-0.1,0-0.1,0-0.2,0l0-0.1C49.8,28.4,49.8,28.4,49.9,28.5z"/>
		<path fill="#65A18B" d="M15.7,33.4c-1.5,0.4-3,0.8-4.4,1.6c-0.7,0.4-1.3,0.9-2,1.4c0-0.2-0.1-0.4-0.3-0.4c1.8-1.9,4.1-2.7,6.7-3
			C15.7,33.1,15.7,33.3,15.7,33.4z"/>
		<path fill="#65A18B" d="M14,28.7c-1.8,0.4-3.6,1-5.1,2c-0.3,0.2-0.5,0.6-0.9,0.7c-0.1-0.2-0.1-0.3-0.2-0.5
			c1.8-1.6,3.9-2.4,6.2-2.7C14,28.4,14,28.5,14,28.7z"/>
		<path fill="#69A990" d="M13.8,39.1c-1.8,1-3.3,2.2-4.4,4c-0.2,0-0.3-0.1-0.4-0.3c1-1.9,2.6-3.3,4.6-4.1
			C13.6,38.9,13.6,39,13.8,39.1z"/>
		<path fill="#69A990" d="M9,22.2c-1.9,0.8-3.5,2-4.9,3.5c-0.2-0.1-0.2-0.2-0.2-0.4c1.3-1.7,2.9-2.8,4.9-3.5
			C8.8,21.9,8.9,22.1,9,22.2z"/>
		<path fill="#69A990" d="M10.4,27.1c-1.4,0.6-2.7,1.5-3.9,2.5c-0.3,0.2-0.5,0.6-0.7,0.9c-0.1-0.2-0.2-0.3-0.2-0.5
			c1.1-1.6,2.7-2.6,4.5-3.3C10.1,26.8,10.2,27,10.4,27.1z"/>
		<path fill="#69A990" d="M14.3,36.3c-1.6,0.6-3.1,1.4-4.4,2.6c-0.2-0.1-0.4-0.1-0.5-0.2c1.3-1.5,2.9-2.5,4.9-2.9
			C14.3,36,14.3,36.2,14.3,36.3z"/>
		<path fill="#69A990" d="M13.4,43.3c-0.5-0.7-0.9-0.5-1.5,0c-0.6,0.7-1.2,1.4-1.7,2.1c-0.2,0-0.3-0.1-0.4-0.3
			c0.7-1.4,1.7-2.4,3-3.3c0.2,0.1,0.4,0.2,0.6,0.2c-0.2,0.3,0.1,0.4,0.1,0.6C13.6,42.9,13.5,43.1,13.4,43.3z"/>
		<path fill="#69A990" d="M9.1,24.9c-1.3,0.7-2.5,1.5-3.6,2.5c-0.2,0.2-0.2,0.4-0.4,0.5c-0.2-0.1-0.3-0.1-0.5-0.2
			c1.1-1.6,2.6-2.6,4.4-3.3C9.1,24.5,9.1,24.7,9.1,24.9z"/>
		<path fill="#69A990" d="M11.3,32.1c-1.3,0.7-2.5,1.5-3.5,2.6c-0.2,0-0.3-0.1-0.4-0.3c1-1.4,2.4-2.3,3.9-2.9
			C11.3,31.7,11.3,31.9,11.3,32.1z"/>
		<path fill="#69A990" d="M10.4,48c0.6-1.3,1.5-2.5,2.7-3.3c0,0.2,0.2,0.3,0.4,0.3c-1,0.9-1.9,2-2.6,3.2C10.8,48,10.6,48,10.4,48z"
			/>
		<path fill="#69A990" d="M14.4,53.5c-0.5,1-1,2-1.5,3c-0.2,0-0.3,0-0.5,0c0.3-1.2,0.8-2.3,1.7-3.2C14.1,53.5,14.3,53.5,14.4,53.5z"
			/>
		<path fill="#65A18B" d="M11.5,50c0.5-1.1,1.2-2,2.2-2.7c0.1,0.1,0.2,0.2,0.3,0.3c-0.7,0.8-1.6,1.6-2.1,2.6
			C11.8,50,11.6,50,11.5,50z"/>
		<path fill="#69A990" d="M13.8,51c-0.5,0.8-0.9,1.6-1.4,2.4c-0.2,0-0.4,0-0.5,0c0.3-1,0.9-1.9,1.6-2.7C13.6,50.7,13.7,50.8,13.8,51
			z"/>
		<path fill="#69A990" d="M14.1,57.9c-0.2,0.8-0.5,1.5-0.8,2.2c-0.2-0.1-0.3-0.1-0.5-0.2c0.3-0.7,0.4-1.4,0.8-2
			C13.7,57.9,13.9,57.9,14.1,57.9z"/>
		<path fill="#4D7C79" d="M30.9,28.5c-1.9-0.7-3.7-1.5-5.4-2.4c-1.9-1-3.9-1.6-5.9-2.1c0-0.2,0-0.3,0-0.5c3.6,0.5,6.6,2.4,9.8,3.8
			c0.3,0.1,0.5,0.3,0.9,0.3C30.6,27.8,30.8,28.1,30.9,28.5z"/>
		<path fill="#4D7C79" d="M30,26.2c0-0.4-0.4-0.4-0.7-0.5c-2-1-4.1-2-6.1-3c0-0.2,0.1-0.3,0.3-0.4c3.3,1.5,6.6,3.2,10,4.5
			c0.3,0.1,0.6,0.3,0.9,0.2c0,0.3,0.2,0.5,0.1,0.8c-0.4-0.2-0.9-0.3-1.3-0.5c-1-0.3-1.9-1-3-1.1C30.1,26.2,30.1,26.2,30,26.2z"/>
		<path fill="#4D7C79" d="M28.4,31.8c-1.9-0.7-3.7-1.5-5.6-2.2c-0.7-0.3-1.4-0.5-2.1-0.7c0-0.2,0-0.3,0-0.5c2,0.4,3.9,1.4,5.8,2.1
			c0.5,0.2,1,0.5,1.6,0.5C28.2,31.3,28.3,31.5,28.4,31.8z"/>
		<path fill="#4D7C79" d="M32,31c-1.4-0.5-2.8-1-4.1-1.5c-0.1-0.1-0.1-0.1-0.2-0.2c-0.2-0.2-0.3-0.5-0.5-0.7c0.1,0,0.1,0,0.2,0
			c1.5,0.5,2.8,1.3,4.4,1.6C31.9,30.5,32,30.8,32,31z"/>
		<path fill="#4D7C79" d="M29.2,34.1c-1-0.2-1.8-0.6-2.8-0.9c-0.3-0.1-0.6-0.3-0.9-0.2c-0.1,0-0.1,0-0.2,0c-0.1-0.3-0.1-0.5-0.2-0.8
			c1.4,0.3,2.6,1,4,1.2C29.2,33.7,29.2,33.9,29.2,34.1z"/>
		<path fill="#466D72" d="M35.4,30.1c-1.1-0.4-2.2-0.7-3.3-1.1l0,0c0-0.1-0.1-0.1-0.1-0.2c-0.3-0.2-0.3-0.4-0.4-0.7
			c1.2,0.3,2.4,1,3.7,1.2C35.3,29.7,35.4,29.9,35.4,30.1z"/>
		<path fill="#466D72" d="M32.6,33.2c-1.1-0.3-2.1-0.6-3.2-0.9c-0.2-0.2-0.3-0.5-0.3-0.7c1.1,0.3,2.2,0.9,3.4,1
			C32.6,32.7,32.6,32.9,32.6,33.2z"/>
		<path fill="#466D72" d="M38.6,29.2c-1-0.3-2-0.6-3-0.9c-0.3-0.2-0.1-0.4-0.2-0.7c1,0.2,2,0.8,3.1,0.8
			C38.7,28.7,38.6,28.9,38.6,29.2z"/>
		<path fill="#466D72" d="M29.7,36.3c-1-0.2-2-0.5-3-0.7c0-0.2-0.2-0.4-0.1-0.7c1,0.3,2,0.5,3,0.8C29.8,35.9,29.7,36.1,29.7,36.3z"
			/>
		<path fill="#466D72" d="M35.6,32.1c-0.9-0.2-1.9-0.5-2.8-0.7c0-0.2,0-0.4-0.1-0.7c1,0.1,1.9,0.6,2.8,0.7
			C35.6,31.7,35.6,31.9,35.6,32.1z"/>
		<path fill="#466D72" d="M32.7,35.2c-0.9-0.2-1.8-0.4-2.7-0.7C30,34.2,30,34,29.9,33.8c0.9,0.3,1.9,0.6,2.8,0.7
			C32.7,34.7,32.7,34.9,32.7,35.2z"/>
		<path fill="#466D72" d="M38.6,31c-0.8-0.2-1.7-0.4-2.5-0.5c0-0.2,0-0.4,0-0.6c0.9,0.1,1.7,0.5,2.5,0.5
			C38.6,30.6,38.6,30.8,38.6,31z"/>
		<path fill="#466D72" d="M41.5,29.8c-0.8-0.1-1.5-0.3-2.3-0.4c-0.1-0.2,0-0.5,0-0.7c0.8,0.2,1.6,0.3,2.5,0.5
			C41.6,29.4,41.5,29.6,41.5,29.8z"/>
		<path fill="#466D72" d="M29.7,38c-0.8-0.1-1.6-0.3-2.5-0.4c0-0.2,0-0.4,0-0.6c0.8,0.1,1.6,0.3,2.5,0.4
			C29.7,37.7,29.7,37.9,29.7,38z"/>
		<path fill="#466D72" d="M35.6,33.8c-0.8-0.1-1.5-0.3-2.3-0.4c0-0.2,0-0.4,0-0.6c0.8,0.2,1.6,0.3,2.3,0.5
			C35.6,33.5,35.6,33.7,35.6,33.8z"/>
		<path fill="#466D72" d="M38.4,32.7c-0.8-0.1-1.5-0.4-2.3-0.4c0.1-0.2,0.1-0.4,0.2-0.6c0.7,0.1,1.4,0.3,2.2,0.4
			C38.5,32.3,38.4,32.5,38.4,32.7z"/>
		<path fill="#466D72" d="M32.5,36.8c-0.7-0.1-1.4-0.2-2.1-0.3c0-0.2,0-0.4,0-0.6c0.7,0.1,1.5,0.2,2.2,0.3
			C32.6,36.4,32.5,36.6,32.5,36.8z"/>
		<path fill="#466D72" d="M35.2,35.5c-0.7,0-1.3-0.3-2-0.2c0-0.3,0-0.5,0-0.8c0.7,0.1,1.3,0.3,2,0.4C35.3,35.2,35.3,35.3,35.2,35.5z
			"/>
		<path fill="#466D72" d="M41.2,31.5c-0.6-0.1-1.2-0.2-1.9-0.3c0-0.2,0-0.4,0-0.5c0.7,0.1,1.3,0.2,2,0.3
			C41.3,31.1,41.4,31.3,41.2,31.5z"/>
		<path fill="#466D72" d="M29.3,39.7c-0.6-0.1-1.3-0.1-1.9-0.2c0-0.2,0-0.4,0-0.6c0.7,0.1,1.3,0.2,2,0.3
			C29.4,39.3,29.4,39.5,29.3,39.7z"/>
		<path fill="#466D72" d="M32,38.4c-0.6-0.1-1.1-0.1-1.7-0.2c0-0.2,0-0.3,0-0.5c0.6,0,1.2,0,1.9,0C32.2,37.9,32.1,38.1,32,38.4z"/>
		<path fill="#466D72" d="M37.9,34.2c-0.5-0.1-1.1-0.1-1.6-0.2c0-0.2,0-0.3,0-0.5c0.6-0.1,1.2,0.1,1.8,0.2
			C38.1,33.8,38.1,34,37.9,34.2z"/>
		<path fill="#466D72" d="M44,30.2c-0.6-0.1-1.2-0.2-1.8-0.2c0-0.2,0-0.4,0-0.6c0.6,0.1,1.2,0.2,1.8,0.3C44,29.8,44,30,44,30.2z"/>
		<path fill="#314D5E" d="M40.6,32.8c-0.5,0-1-0.1-1.5-0.1c0-0.2,0-0.3,0-0.5c0.6,0,1.1,0.1,1.7,0.1C40.8,32.6,40.8,32.8,40.6,32.8z
			"/>
		<path fill="#466D72" d="M42.5,33c-0.3,0-0.7,0-1-0.1c0-0.2,0.1-0.4,0.1-0.6c0.4,0,0.8,0,1.3,0C42.8,32.6,42.8,32.9,42.5,33z"/>
		<path fill="#314D5E" d="M46,30.3c-0.4,0-0.9-0.1-1.3-0.1c0-0.2,0-0.4,0.2-0.5c0.4,0,0.9,0,1.3,0C46.1,30,46.1,30.2,46,30.3z"/>
		<path fill="#314D5E" d="M31.2,39.7c-0.4,0-0.8,0-1.1,0c0-0.2,0-0.4,0.1-0.5c0.4,0,0.9-0.1,1.3-0.1C31.6,39.4,31.5,39.6,31.2,39.7z
			"/>
		<path fill="#314D5E" d="M28.6,41.1c-0.4,0-0.8,0-1.2,0c0-0.2,0-0.3,0-0.5c0.5,0,1,0,1.5,0C28.9,40.8,28.8,41,28.6,41.1z"/>
		<path fill="#314D5E" d="M33,37.8c0.4,0,0.7-0.1,1.1-0.1c0.1,0.3-0.1,0.4-0.3,0.6c-0.3,0-0.7,0-1,0C32.7,38.1,32.7,37.9,33,37.8z"
			/>
		<path fill="#314D5E" d="M44.4,31.1c0.4,0,0.7,0,1.1-0.1c-0.1,0.2-0.1,0.5-0.3,0.6c-0.3,0-0.7,0-1,0C44.2,31.4,44.2,31.2,44.4,31.1
			z"/>
		<path fill="#314D5E" d="M41,33.6c0.3,0.1,0.5,0,0.8,0c0,0.1,0,0.2,0,0.2c-0.1,0.4-0.5,0.8-0.8,0.6C40.7,34.3,40.9,33.9,41,33.6z"
			/>
		<path fill="#314D5E" d="M36.4,36.8c-0.3,0-0.5,0-0.8,0c0-0.2,0-0.4,0-0.5c0.4,0,0.8,0,1.2,0C36.8,36.6,36.6,36.8,36.4,36.8z"/>
		<path fill="#314D5E" d="M43.8,32.3c0.2,0,0.4-0.1,0.7-0.1c-0.1,0.2-0.2,0.3-0.3,0.5c-0.1,0.3-0.4,0.4-0.6,0.2
			C43.3,32.6,43.6,32.5,43.8,32.3z"/>
		<path fill="#314D5E" d="M38.4,35c0.3,0,0.6,0,0.9,0c0,0.3-0.1,0.5-0.4,0.5c-0.3,0-0.5,0-0.8,0C38.1,35.3,38.2,35.1,38.4,35z"/>
		<path fill="#314D5E" d="M47,29.8c0.3,0,0.7,0,1,0c0,0.2-0.1,0.4-0.3,0.6c-0.3,0-0.6,0-0.9,0C46.9,30.1,47,29.9,47,29.8z"/>
		<path fill="#314D5E" d="M46.5,30.9c0.2,0,0.5,0,0.7-0.1c0,0.2-0.2,0.3-0.3,0.4c-0.2,0.1-0.3,0.5-0.6,0.3
			C46,31.3,46.4,31.1,46.5,30.9z"/>
		<path fill="#314D5E" d="M49.2,29.6c0.1,0,0.3,0,0.4,0c0,0.1,0,0.1,0,0.2c0,0.4-0.4,0.4-0.6,0.7c0,0-0.2-0.1-0.2-0.1
			C48.7,29.9,49.1,29.8,49.2,29.6z"/>
		<path fill="#314D5E" d="M27.2,28.7c0.2,0.2,0.3,0.5,0.5,0.7c-0.2,0-0.4,0-0.6,0c-0.1-0.1-0.2-0.2-0.2-0.3
			C26.9,28.9,27,28.8,27.2,28.7z"/>
		<path fill="#314D5E" d="M29.7,40.4c0.2,0,0.4-0.1,0.6-0.1c0,0.2-0.1,0.3-0.3,0.5c-0.1,0.1-0.3,0.2-0.4,0.1
			C29.5,40.8,29.7,40.6,29.7,40.4z"/>
		<path fill="#314D5E" d="M51.7,28.8c-0.1,0-0.2,0-0.2-0.1c0-0.1,0.1-0.3,0.3-0.3c0.1,0,0.2,0,0.2,0.2C52,28.7,51.9,28.8,51.7,28.8z
			"/>
		<path fill="#314D5E" d="M35.1,37.4c0.1,0,0.2,0,0.3,0c0,0.2-0.1,0.5-0.3,0.4C34.8,37.8,35.1,37.6,35.1,37.4z"/>
		<path fill="#314D5E" d="M32.4,38.9c0.1,0,0.2,0,0.3,0c0,0.2,0,0.5-0.3,0.5C32.1,39.3,32.4,39.1,32.4,38.9z"/>
		<path fill="#314D5E" d="M45.9,31.8c0,0,0.1,0.1,0.1,0.1c0,0,0,0.1,0,0.1c0,0-0.1,0-0.1,0C45.8,31.8,45.8,31.8,45.9,31.8z"/>
		<path fill="#30495D" d="M51.2,29.1C51.2,29,51.2,29,51.2,29.1C51.2,29.1,51.2,29.1,51.2,29.1C51.2,29.1,51.2,29.1,51.2,29.1
			C51.2,29.1,51.2,29.1,51.2,29.1z"/>
		<path fill="#4D7C79" d="M34.8,27.9c-0.1,0-0.1-0.1-0.2-0.1C34.7,27.8,34.7,27.8,34.8,27.9z"/>
		<path fill="#578B80" d="M14.3,36.3c0-0.2,0-0.3,0-0.5c2-0.7,4.1-0.7,6.2-0.5c0.4,0,0.8,0.2,1.2,0.1l0,0c0,0,0,0.1,0,0.1
			c0.1,0,0.1-0.1,0.2-0.1c0.2,0.3,0.3,0.6,0.5,0.8C19.7,35.6,17,35.6,14.3,36.3z"/>
		<path fill="#578B80" d="M14.4,53.5c-0.2,0-0.3-0.1-0.4-0.2c0.8-1.3,2-2.3,3.2-3.1c0.2,0.1,0.1,0.3,0.2,0.5
			C16.4,51.6,15.3,52.5,14.4,53.5z"/>
		<path fill="#578B80" d="M23.3,38.7c-0.9-0.1-1.8-0.3-2.7-0.4c-0.2,0-0.6-0.2-0.7,0.2l-0.1,0l-0.1,0c-0.1-0.3-0.2-0.5-0.3-0.8
			c1.2,0,2.5,0.2,3.7,0.5C23.4,38.2,23.3,38.5,23.3,38.7z"/>
		<path fill="#4D7C79" d="M26.7,37.5c-1.1-0.3-2.3-0.6-3.4-0.9C23,36.4,23,36.2,23,35.9c1.2,0.1,2.3,0.7,3.5,0.8
			C26.6,37,26.6,37.2,26.7,37.5z"/>
		<path fill="#4D7C79" d="M17.9,52.9c-0.8,0.9-1.8,1.7-2.5,2.8c-0.1-0.2-0.2-0.3-0.2-0.5c0.7-1.1,1.7-2.1,2.7-3
			C17.9,52.4,17.9,52.6,17.9,52.9z"/>
		<path fill="#578B80" d="M13.8,51c-0.1-0.1-0.2-0.2-0.3-0.3c0.8-1,1.8-1.9,2.9-2.5c0.2,0.1,0.2,0.3,0.2,0.5
			C15.6,49.3,14.5,49.9,13.8,51z"/>
		<path fill="#578B80" d="M20.3,40.4c-1.1,0.1-2.2,0-3.3,0.5c-0.1-0.2-0.3-0.4-0.4-0.6c1.1-0.2,2.2-0.4,3.4-0.4
			C20.1,40.1,20.2,40.3,20.3,40.4z"/>
		<path fill="#4D7C79" d="M23.8,40.8c-0.9-0.1-1.8-0.2-2.8-0.3c-0.1-0.2-0.3-0.3-0.3-0.5c1-0.1,2,0.3,3,0.2
			C23.8,40.4,23.8,40.6,23.8,40.8z"/>
		<path fill="#466D72" d="M18.1,55.5c-0.6,0.9-1.2,1.7-1.9,2.6c-0.1-0.2-0.1-0.4-0.2-0.6c0.5-0.8,1-1.5,1.5-2.3
			c0.2,0.1,0.3,0.1,0.5,0.2l0,0C18.1,55.4,18.1,55.5,18.1,55.5z"/>
		<path fill="#466D72" d="M16.6,40.3c0.1,0.2,0.3,0.4,0.4,0.6c0.4,0.5,0.6,1.1,1.1,1.5c0.1,0.2,0.1,0.3,0.2,0.5l0,0
			c-0.2,0-0.4,0-0.5,0.2c-0.1,0-0.1,0-0.1-0.1c-0.1-0.2-0.2-0.3-0.3-0.5c-0.1-0.7-0.6-1.2-1-1.7c0-0.3,0.1-0.5,0.2-0.7
			C16.5,40.3,16.6,40.3,16.6,40.3z"/>
		<path fill="#466D72" d="M26.9,39.5c-0.9-0.2-1.8-0.4-2.7-0.5c-0.1-0.2-0.1-0.5-0.2-0.7c1,0.1,1.9,0.5,2.8,0.5
			C26.9,39,26.9,39.2,26.9,39.5z"/>
		<path fill="#466D72" d="M16.2,46.1c0,0.5,0.4,0.7,0.4,1.1c-0.1,0.1-0.3,0.1-0.4,0.2c-0.2-0.3-0.4-0.6-0.7-1c0-0.2-0.2-0.3-0.3-0.4
			c0-0.4-0.4-0.7-0.5-1.1c0.1-0.2,0.2-0.3,0.3-0.5c0.4,0.3,0.4,1,0.9,1.2C16,45.9,16.1,46,16.2,46.1z"/>
		<path fill="#4D7C79" d="M18.3,43c-0.1-0.2-0.1-0.3-0.2-0.5c0.9-0.3,1.9-0.3,2.8-0.4c0,0.2,0,0.4,0,0.6
			C20.1,42.7,19.2,42.9,18.3,43z"/>
		<path fill="#578B80" d="M16.2,46.1c-0.2-0.1-0.3-0.2-0.3-0.4c0.7-0.4,1.5-0.7,2.3-0.9c0.2,0.1,0.2,0.3,0.2,0.5
			C17.7,45.6,17,45.9,16.2,46.1z"/>
		<path fill="#4D7C79" d="M21.3,44.7c-0.7,0.2-1.4,0.3-2.2,0.5c-0.1-0.2-0.1-0.4-0.2-0.6c0.8-0.2,1.5-0.3,2.3-0.5
			C21.3,44.3,21.3,44.5,21.3,44.7z"/>
		<path fill="#466D72" d="M19.5,37.6c0.1,0.3,0.2,0.5,0.3,0.8c-0.1,0.1-0.3,0.1-0.4,0.2c-0.2-0.2-0.3-0.3-0.5-0.5
			c-0.1-0.2-0.2-0.4-0.4-0.5c-0.1-0.1-0.2-0.3-0.3-0.4c-0.2-0.2-0.1-0.3,0.1-0.5c0.2-0.2,0.3,0,0.4,0.1C19,37.1,19.3,37.3,19.5,37.6
			z"/>
		<path fill="#466D72" d="M26.7,41.2c-0.7-0.1-1.4-0.3-2.1-0.2c0-0.2,0-0.5,0-0.7c0.7,0.1,1.5,0.2,2.2,0.2
			C26.7,40.8,26.7,41,26.7,41.2z"/>
		<path fill="#4D7C79" d="M19,47.5c-0.6,0.2-1.1,0.5-1.7,0.7c-0.2-0.1-0.3-0.2-0.4-0.5c0.6-0.2,1.2-0.5,1.8-0.7
			C19,47.1,18.9,47.3,19,47.5z"/>
		<path fill="#466D72" d="M23.9,42.8c-0.8-0.1-1.5-0.1-2.3-0.1c0-0.2,0-0.4,0-0.6c0.8,0,1.6,0,2.3,0C24,42.3,24,42.5,23.9,42.8z"/>
		<path fill="#466D72" d="M21.1,46.6c-0.5,0.2-1.1,0.4-1.6,0.6c0-0.2,0-0.4,0-0.7c0.6-0.2,1.1-0.4,1.7-0.5
			C21.1,46.2,21.1,46.4,21.1,46.6z"/>
		<path fill="#466D72" d="M23.5,44.5c-0.6,0-1.1,0-1.7,0.1c0-0.2,0-0.4,0-0.6c0.6,0.1,1.2-0.1,1.8-0.1C23.6,44,23.6,44.3,23.5,44.5z
			"/>
		<path fill="#466D72" d="M19.1,49.7c-0.4,0-0.6,0.4-1,0.5c-0.2-0.1-0.2-0.3-0.2-0.5c0.4-0.3,0.8-0.5,1.2-0.8
			C19.1,49.2,19.1,49.4,19.1,49.7z"/>
		<path fill="#466D72" d="M18.4,51.5c0.2-0.2,0.3-0.3,0.5-0.5c0,0.6,0,1.2-0.3,1.8C18.3,52.4,18.5,51.9,18.4,51.5z"/>
		<path fill="#466D72" d="M18.1,55.4C18.1,55.3,18.1,55.3,18.1,55.4C18.2,55.3,18.1,55.4,18.1,55.4L18.1,55.4z"/>
		<path fill="#65A18B" d="M15,60.1c-0.3,0.6-0.6,1.2-0.9,1.9c-0.2,0-0.3-0.1-0.4-0.2c0.2-0.6,0.5-1.2,0.9-1.8
			C14.7,59.9,14.9,60,15,60.1z"/>
		<path fill="#578B80" d="M25.8,35.2c-1.2-0.4-2.3-0.7-3.5-1.1c-0.3-0.1-0.5-0.3-0.8,0c-0.6-0.6-1.5-0.5-2.2-0.6
			c-1.2-0.2-2.4-0.1-3.6,0c0-0.2,0-0.3,0-0.5c2.5-0.4,5-0.1,7.4,0.7c0.8,0.3,1.7,0.5,2.5,0.8C25.8,34.7,25.9,34.9,25.8,35.2z"/>
		<path fill="#314D5E" d="M25.2,32.3c0.1,0.3,0.1,0.5,0.2,0.8c-0.2,0.1-0.2,0.2-0.2,0.4c-0.3-0.3-0.6-0.7-0.8-1
			c-0.1-0.3-0.2-0.5-0.3-0.8c0.2-0.2,0.3-0.3,0.5,0C24.8,31.8,25,32,25.2,32.3z"/>
		<path fill="#578B80" d="M23.5,22.3c-0.2,0.1-0.3,0.2-0.3,0.4c-1.7-0.5-3.4-1.1-5.2-1.3c-0.9-0.1-1.8-0.2-2.7-0.3
			c0-0.2,0-0.3,0-0.5C18.1,20.8,20.9,21.1,23.5,22.3z"/>
		<path fill="#65A18B" d="M15.4,20.7c0,0.2,0,0.3,0,0.5c-2.2,0-4.3,0.3-6.3,1c-0.2-0.1-0.2-0.2-0.2-0.4
			C10.9,20.9,13.1,20.6,15.4,20.7z"/>
		<path fill="#578B80" d="M19.5,23.5c0,0.2,0,0.3,0,0.5c-2.2-0.3-4.3-0.5-6.5-0.2c0-0.2,0-0.3,0-0.5C15.2,23.1,17.4,23,19.5,23.5z"
			/>
		<path fill="#65A18B" d="M13,23.3c0,0.2,0,0.3,0,0.5c-1.3,0.3-2.6,0.5-3.9,1.1c0-0.2,0-0.4,0-0.5C10.3,23.7,11.6,23.4,13,23.3z"/>
		<path fill="#578B80" d="M27.2,28.7c-0.2,0.1-0.3,0.2-0.4,0.4c-3.2-1.7-6.6-2.9-10.3-3c0-0.2,0-0.3,0-0.5c1.5,0.2,3,0.2,4.4,0.6
			c2.3,0.6,4.4,1.6,6.5,2.6C27.4,28.7,27.3,28.7,27.2,28.7z"/>
		<path fill="#65A18B" d="M16.5,25.5c0,0.2,0,0.3,0,0.5c-2.1,0.1-4.1,0.3-6.1,1c-0.2-0.1-0.3-0.3-0.3-0.5
			C12.2,25.8,14.3,25.4,16.5,25.5z"/>
		<path fill="#578B80" d="M20.7,28.4c0,0.2,0,0.3,0,0.5c-2.2-0.4-4.4-0.5-6.7-0.3c0-0.2,0-0.3,0-0.5C16.2,27.7,18.5,27.9,20.7,28.4z
			"/>
		<path fill="#578B80" d="M24,31.6c0.1,0.3,0.2,0.5,0.3,0.8c-1.5-0.5-3-1.1-4.6-1.3c-1.1-0.2-2.3-0.1-3.4-0.2c0-0.2,0-0.3,0-0.5
			c2.2,0,4.5,0.1,6.6,0.9C23.3,31.5,23.6,31.7,24,31.6z"/>
		<path fill="#65A18B" d="M16.3,30.4c0,0.2,0,0.3,0,0.5c-1.2,0.2-2.5,0.3-3.7,0.7c-0.4,0.2-0.9,0.3-1.3,0.5c0-0.2,0-0.4,0-0.6
			C12.9,30.8,14.6,30.5,16.3,30.4z"/>
		<path fill="#578B80" d="M18.6,37.6c0.1,0.2,0.2,0.4,0.4,0.5c-1.8,0.1-3.5,0.4-5.2,1c-0.2-0.1-0.2-0.2-0.2-0.4
			C15.2,38,16.9,37.7,18.6,37.6z"/>
		<path fill="#65A18B" d="M13.5,42.1C13.3,42,13,42,12.8,41.9c0.7-0.5,1.4-0.8,2.2-1.1c0.3-0.1,0.6-0.1,0.9,0c0,0.1,0,0.2,0,0.2
			C15.1,41.4,14.3,41.7,13.5,42.1z"/>
		<path fill="#4D7C79" d="M16,41c0-0.1,0-0.2,0-0.2c0.1-0.4-0.2-0.6-0.4-0.9c-0.1-0.1-0.3-0.3-0.1-0.5c0.3-0.2,0.4,0,0.5,0.1
			c0.2,0.2,0.5,0.4,0.5,0.7c-0.1,0.2-0.2,0.4-0.2,0.7C16.2,40.9,16.1,41,16,41z"/>
		<path fill="#578B80" d="M15.2,46.1c0.2,0.1,0.3,0.2,0.3,0.4c-0.7,0-1,0.8-1.6,1.1c-0.1-0.1-0.2-0.2-0.3-0.3
			C14.1,46.8,14.6,46.4,15.2,46.1z"/>
		<path fill="#578B80" d="M15.2,55.2c0.1,0.2,0.2,0.3,0.2,0.5c-0.5,0.7-0.9,1.5-1.4,2.2c-0.2,0-0.3,0-0.5,0
			C13.9,56.9,14.5,56,15.2,55.2z"/>
		<path fill="#578B80" d="M15,44.5c-0.1,0.2-0.2,0.3-0.3,0.5c-0.4-0.6-0.8-0.5-1.3,0c-0.2,0-0.4-0.1-0.4-0.3
			c0.4-0.4,1.1-0.7,0.3-1.4c0.1-0.2,0.1-0.4,0.2-0.6c0.5,0.7,1,1.1,1.8,0.5c0.5-0.4,1.2-0.5,1.9-0.6c0.1,0.2,0.2,0.3,0.3,0.5
			c-0.8,0.2-1.6,0.5-2.3,0.8C15,44,14.8,44.2,15,44.5z"/>
		<path fill="#578B80" d="M15,60.1c-0.2-0.1-0.3-0.1-0.5-0.2c0.3-0.9,0.9-1.6,1.5-2.4c0.1,0.2,0.1,0.4,0.2,0.6
			C15.8,58.7,15.4,59.4,15,60.1z"/>
	</g>
	<g>
		<path d="M66,50.2c0,0.7,0,1.5,0,2.4c-0.5,0-1,0-1.5,0c-0.8,0-1.2,0.4-1.2,1.2c0,0.7,0,1.3,0,2.1c1.2,0,2.4,0,3.6,0
			c0.2,0,0.4-0.3,0.5-0.4c0.2-0.6,0.3-1.2,0.3-1.8c0.1-0.6,0.3-0.8,0.9-0.8c0.4,0,0.8,0,1.4,0c0,1,0,2,0,3c1.1,0,2.2,0,3.2,0
			c0,0.8,0,1.5,0,2.3c-1,0-2.1,0-3.2,0c0,1,0,2,0,2.9c0,1.1,0,2.1,0,3.2c0.1,1.4,0.6,1.8,2,1.8c0,0,0.1,0,0.1,0c2-0.1,2.1,0,2,2.2
			c-1.6,0.4-3.1,0.6-4.7,0.1c-1.4-0.5-2.1-1.6-2.1-3.5c0-1.9,0-3.8,0-5.7c0-0.3,0-0.6,0-1c-1.3,0-2.5,0-3.9,0c0,3.4,0,6.8,0,10.2
			c-0.9,0-1.7,0-2.7,0c0-3.4,0-6.8,0-10.2c-0.6-0.1-1-0.1-1.5-0.1c0-0.7,0-1.4,0-2.2c0.5,0,0.9,0,1.5-0.1c0-0.5,0-1.1,0-1.6
			c0-2.4,0.5-3.1,2.7-4C64.2,50.2,65.1,50.2,66,50.2z"/>
		<path d="M146.9,74.2c-0.7-0.2-1.4-0.3-2-0.5c-0.8-0.3-1.5-0.8-2.4-1.3c0.7-0.7,1.2-1.3,1.8-2c1.6,1.1,3.2,1.7,4.9,0.7
			c1.2-0.7,1.1-2,1-3.1c-1.2,0.3-2.2,0.7-3.4,0.9c-2.6,0.3-4.4-1.3-4.6-3.9c-0.1-1.4,0-2.9,0-4.4c0-3.5,2.6-5.3,6-4.2
			c0.7,0.2,1.3,0.6,2,0.9c0.4-1.1,0.9-1.3,2.8-0.9c0,0.3,0,0.6,0,0.9c0,3.9,0,7.8,0,11.6c0,3-1.5,4.7-4.5,5.2
			c-0.2,0-0.4,0.1-0.5,0.2C147.7,74.2,147.3,74.2,146.9,74.2z M150.4,62.6c0-0.7,0-1.3,0-2c0-0.2-0.1-0.6-0.3-0.7
			c-1-0.4-2-0.9-3.1-1.1c-0.9-0.2-1.7,0.4-1.7,1.4c-0.1,1.6-0.1,3.1,0,4.7c0.1,1,0.8,1.5,1.7,1.4c0.7-0.1,1.4-0.2,2.1-0.5
			c1.3-0.5,1.3-0.5,1.3-1.9C150.4,63.4,150.4,63,150.4,62.6z"/>
		<path d="M31.4,66.2c0.5-0.7,1.1-1.3,1.6-1.9c1.3,0.5,2.5,1.1,3.8,1.4c0.8,0.2,1.8,0.2,2.6,0c1.3-0.2,2-1,2.1-2.1
			c0.1-1.2-0.4-1.9-1.7-2.3c-0.9-0.3-1.9-0.5-2.9-0.8c-0.6-0.2-1.3-0.4-1.9-0.7c-1.7-0.8-2.8-2-2.8-3.9c-0.1-2,0.7-3.6,2.5-4.6
			c1.7-1,3.6-0.9,5.5-0.7c1.4,0.2,2.7,0.6,4,1.4c-0.4,0.8-0.9,1.6-1.3,2.4c-1.5-0.9-3-1.3-4.7-1.2c-0.7,0-1.4,0.2-2,0.6
			c-1.4,0.9-1.4,2.8,0.1,3.6c0.7,0.4,1.5,0.6,2.3,0.8c1,0.3,2,0.5,3,0.9c2.3,0.9,3.3,2.4,3.2,4.6c-0.1,2.1-1.3,3.8-3.5,4.4
			c-3.2,1-6.2,0.6-9-1.3c-0.2-0.2-0.5-0.3-0.8-0.4C31.4,66.3,31.4,66.3,31.4,66.2z"/>
		<path d="M165.4,66c-1,2.3-2.9,3-5.2,3c-2,0-3.8-0.4-5.3-1.8c0.5-0.6,1-1.3,1.5-2c1.2,1,2.5,1.4,4,1.4c0.5,0,1.1-0.1,1.5-0.4
			c0.4-0.2,0.7-0.8,0.7-1.2c0-0.4-0.4-0.9-0.8-1c-0.9-0.3-1.8-0.5-2.8-0.7c-0.4-0.1-0.8-0.2-1.1-0.3c-1.2-0.4-2.2-1.1-2.3-2.6
			c-0.2-1.6,0.5-2.8,1.8-3.7c2-1.2,5.7-0.9,7.7,0.7c-0.4,0.6-0.8,1.3-1.1,1.7c-1.4-0.3-2.6-0.6-3.8-0.7c-0.5-0.1-1.1,0.2-1.4,0.5
			c-0.8,0.6-0.6,1.5,0.3,1.8c0.8,0.3,1.7,0.4,2.5,0.6c1,0.3,2,0.7,2.9,1.2c0.5,0.3,0.7,1,1,1.5C165.4,64.8,165.4,65.4,165.4,66z"/>
		<path d="M105.9,68.7c-1,0-1.8,0-2.7,0c0-4.2,0-8.3,0-12.5c0.8,0,1.6,0,2.4,0c0.1,0.3,0.1,0.7,0.2,1.1c2.4-1.5,4.8-2.3,6.8,0.3
			c0.8-0.5,1.6-1,2.4-1.3c2.8-1.1,5.3,0.4,5.4,3.3c0.1,3,0,6,0,9.1c-0.9,0-1.8,0-2.7,0c0-0.3,0-0.6,0-0.9c0-2.4,0-4.7,0-7.1
			c0-1.7-1.1-2.5-2.7-1.9c-0.6,0.2-1.1,0.6-1.7,0.9c-0.2,0.1-0.3,0.5-0.3,0.8c0,2.4,0,4.8,0,7.2c0,0.3,0,0.6,0,0.9
			c-0.9,0-1.8,0-2.7,0c0-0.5,0-1,0-1.4c0-2.2,0-4.5,0-6.7c0-1.5-0.9-2.2-2.4-1.8c-0.7,0.2-1.3,0.5-1.9,0.9c-0.2,0.1-0.3,0.6-0.3,0.9
			c0,2.4,0,4.8,0,7.2C105.9,68,105.9,68.3,105.9,68.7z"/>
		<path d="M87.4,52.6c-0.5,0.8-0.9,1.5-1.4,2.2c-1.3-0.9-2.7-1.4-4.3-1.2c-2,0.2-3.2,1.5-3.3,3.5c-0.1,1.8-0.1,3.6,0,5.4
			c0,1.4,0.5,2.5,1.8,3.1c1.4,0.6,2.8,0.6,4.2-0.3c0.2-0.1,0.4-0.4,0.4-0.7c0-1,0-2,0-3c-0.9,0-1.7,0-2.6,0c0-0.9,0-1.7,0-2.6
			c1.8,0,3.6,0,5.5,0c0,1.2,0,2.5,0,3.7c0,0.9-0.1,1.8,0,2.7c0,0.7-0.2,1.2-0.8,1.6c-2.4,2-6.5,2.2-9.1,0.4
			c-1.6-1.1-2.4-2.5-2.4-4.4c0-2,0.1-4.1,0-6.1c-0.1-3.5,2.3-5.4,4.7-5.9c2.3-0.5,4.5-0.2,6.6,1C87,52.2,87.1,52.4,87.4,52.6z"/>
		<path d="M98.1,61.1c0.2-2.1-0.6-3-2.6-2.8c-1.1,0.1-2.2,0.5-3.5,0.8c-0.3-0.4-0.7-1.1-1.1-1.8c0.5-0.3,0.9-0.6,1.4-0.8
			c1.9-0.8,3.8-0.9,5.8-0.4c1.6,0.4,2.7,1.5,2.7,3.1c0.1,3.1,0,6.2,0,9.3c-1.7,0.4-2.3,0.2-2.7-1c-0.3,0.1-0.6,0.3-1,0.4
			c-1.3,0.6-2.7,0.9-4.1,0.6c-1.5-0.3-2.5-1.3-2.8-2.7c-0.3-1.7,0.1-3,1.4-3.9c1-0.7,2.1-0.9,3.3-0.9C96,61.1,97,61.1,98.1,61.1z
			 M98,63.3c-1.1,0-2.2-0.1-3.3,0c-0.6,0.1-1.2,0.4-1.6,0.8c-0.5,0.7-0.1,1.7,0.7,2c1.5,0.5,2.8-0.1,3.9-0.9
			c0.3-0.2,0.2-1.2,0.3-1.8C98.1,63.4,98.1,63.4,98,63.3z"/>
		<path d="M57.3,62.2c0,0.5,0,1,0,1.5c0,2.5-1.3,4.1-3.7,4.7c-1.4,0.3-2.7,0.3-4-0.2c-1.9-0.6-3.1-2.2-3.1-4.2c0-1.1,0-2.2,0-3.3
			c0-2.9,1.8-4.8,4.7-5c0.8,0,1.7,0,2.5,0.2c2.3,0.5,3.6,2.2,3.6,4.5C57.3,61,57.3,61.6,57.3,62.2z M54.6,62.2
			C54.6,62.2,54.6,62.2,54.6,62.2c0-0.6,0-1.1,0-1.7c-0.1-1.3-1.1-2.2-2.5-2.3c-1.4,0-2.5,0.8-2.7,2.1c-0.1,1.1-0.1,2.2,0,3.3
			c0.1,1.6,1.1,2.4,2.6,2.4c1.6,0,2.6-1,2.6-2.5C54.6,63.1,54.6,62.7,54.6,62.2z"/>
		<path d="M140.2,68.8c-0.9,0-1.8,0-2.7,0c0-0.3,0-0.6,0-0.9c0-2.3,0-4.5,0-6.8c0-2-1-2.8-3-2.2c-0.1,0-0.2,0-0.2,0.1
			c-2,0.6-2.1,0.8-2.1,2.9c0,2,0,4.1,0,6.1c0,0.3,0,0.5,0,0.9c-0.9,0-1.8,0-2.7,0c0-4.2,0-8.3,0-12.6c0.7,0,1.4,0,2,0
			c0.2,0,0.4,0.2,0.5,0.4c0.1,0.2,0.1,0.5,0.1,0.6c1.3-0.4,2.5-1,3.7-1.1c2.7-0.2,4.2,1,4.3,3.7C140.3,62.7,140.2,65.7,140.2,68.8z"
			/>
		<path d="M123.7,56.1c0.9,0,1.7,0,2.6,0c0,4.2,0,8.3,0,12.5c-0.9,0-1.7,0-2.6,0C123.7,64.5,123.7,60.4,123.7,56.1z"/>
		<path d="M125.1,54.1c-0.9,0-1.6-0.7-1.6-1.6c0-0.9,0.6-1.5,1.5-1.6c0.9,0,1.6,0.6,1.6,1.5C126.7,53.3,126,54.1,125.1,54.1z"/>
	</g>
</g>
</svg>
