<?xml version="1.0" encoding="utf-8"?>
<!-- Generator: Adobe Illustrator 17.1.0, SVG Export Plug-In . SVG Version: 6.00 Build 0)  -->
<!DOCTYPE svg PUBLIC "-//W3C//DTD SVG 1.1//EN" "http://www.w3.org/Graphics/SVG/1.1/DTD/svg11.dtd">
<svg version="1.1" id="Layer_1" xmlns="http://www.w3.org/2000/svg" xmlns:xlink="http://www.w3.org/1999/xlink" x="0px" y="0px"
	 width="70.3px" height="35.2px" viewBox="0 0 70.3 35.2" enable-background="new 0 0 70.3 35.2" xml:space="preserve">
<g>
	<path fill="#599B25" d="M35.2,0c0,3.9,0,7.8,0,11.7c-3.3,0-6.6,0.1-9.9,0c-1.5,0-1.9,0.5-1.9,1.9c0.1,7.2,0,14.4,0,21.6H11.7
		c0-7.2,0-14.4,0-21.6c0-1.4-0.3-1.9-1.8-1.9c-3.3,0.1-6.6,0-9.9,0V0H35.2z"/>
	<path fill="#599B25" d="M70.3,34c0,1-0.2,1.2-1.2,1.2c-11.3,0-22.7,0-34,0c0-7.6,0-15.3,0-22.9c0.1,0,0.1,0,0.2-0.1
		c0.1-0.1,0.2-0.2,0.3-0.4h11.2c0,3.3,0.1,6.6,0,9.9c0,1.5,0.5,1.9,1.9,1.9c7.2-0.1,14.4,0,21.6,0C70.3,27,70.3,30.5,70.3,34z"/>
	<path fill="#599B25" d="M70.3,11.7c-7.6,0-15.3,0-22.9,0c0-0.1-0.1-0.1-0.1-0.2c-0.1-0.1-0.2-0.2-0.4-0.3c0-3.7,0-7.5,0-11.2
		c7.4,0,14.8,0,22.3,0c1,0,1.2,0.2,1.2,1.2C70.3,4.7,70.3,8.2,70.3,11.7z"/>
</g>
</svg>
