<?xml version="1.0" encoding="UTF-8" standalone="no"?>
<svg
   xmlns:dc="http://purl.org/dc/elements/1.1/"
   xmlns:cc="http://creativecommons.org/ns#"
   xmlns:rdf="http://www.w3.org/1999/02/22-rdf-syntax-ns#"
   xmlns:svg="http://www.w3.org/2000/svg"
   xmlns="http://www.w3.org/2000/svg"
   xmlns:sodipodi="http://sodipodi.sourceforge.net/DTD/sodipodi-0.dtd"
   xmlns:inkscape="http://www.inkscape.org/namespaces/inkscape"
   width="127.72108"
   height="80"
   viewBox="0 0 127.72107 80"
   version="1.1"
   id="svg12"
   sodipodi:docname="ventureclub.svg"
   inkscape:version="0.92.1 r15371">
  <metadata
     id="metadata16">
    <rdf:RDF>
      <cc:Work
         rdf:about="">
        <dc:format>image/svg+xml</dc:format>
        <dc:type
           rdf:resource="http://purl.org/dc/dcmitype/StillImage" />
      </cc:Work>
    </rdf:RDF>
  </metadata>
  <sodipodi:namedview
     pagecolor="#ffffff"
     bordercolor="#666666"
     borderopacity="1"
     objecttolerance="10"
     gridtolerance="10"
     guidetolerance="10"
     inkscape:pageopacity="0"
     inkscape:pageshadow="2"
     inkscape:window-width="1920"
     inkscape:window-height="983"
     id="namedview14"
     showgrid="false"
     inkscape:zoom="5.9230769"
     inkscape:cx="53.477038"
     inkscape:cy="39.228712"
     inkscape:window-x="0"
     inkscape:window-y="27"
     inkscape:window-maximized="1"
     inkscape:current-layer="svg12" />
  <!-- Generator: Sketch 39.1 (31720) - http://www.bohemiancoding.com/sketch -->
  <title
     id="title2">Group 3</title>
  <desc
     id="desc4">Created with Sketch.</desc>
  <defs
     id="defs6" />
  <g
     id="Page-1"
     style="fill:#000000;fill-rule:evenodd;stroke:none;stroke-width:1"
     transform="matrix(2.4965027,0,0,2.4965027,-0.461853,-2.3845904)">
    <g
       id="Group-3"
       style="fill:#000000">
      <path
         d="m 9.105,0.95517235 h 0.407 c 0.066,0 0.1228331,0.0238331 0.1705,0.0714998 0.047667,0.047667 0.0715,0.1044998 0.0715,0.1705001 0,0.036667 -0.00733,0.073333 -0.022,0.1100001 L 7.356,8.2151724 c -0.044,0.1393339 -0.1154995,0.2474995 -0.2145,0.3245 -0.099,0.077 -0.2218326,0.1155 -0.3685,0.1155 h -0.44 c -0.2860014,0 -0.4766662,-0.1466652 -0.572,-0.44 l -2.387,-6.908 C 3.3593333,1.2705055 3.352,1.2338392 3.352,1.1971723 c 0,-0.066 0.023833,-0.1228331 0.0715,-0.1705 C 3.471167,0.9790054 3.5279997,0.9551724 3.594,0.9551724 h 0.407 c 0.2200011,0 0.3629997,0.0916657 0.429,0.2749999 L 6.553,7.5551724 8.676,1.2301723 C 8.742,1.0468381 8.8849989,0.95517235 9.105,0.95517235 Z m 3.003,4.30099995 h 3.366 c 0.08067,0 0.150333,-0.029333 0.209,-0.088 0.05867,-0.058667 0.088,-0.1283329 0.088,-0.209 V 4.5631724 c 0,-0.080667 -0.02933,-0.1503331 -0.088,-0.2090001 -0.05867,-0.058667 -0.128333,-0.088 -0.209,-0.088 h -3.366 v -2.321 h 3.608 c 0.08067,0 0.150333,-0.029333 0.209,-0.088 0.05867,-0.058667 0.088,-0.1283329 0.088,-0.209 v -0.396 c 0,-0.080667 -0.02933,-0.150333 -0.088,-0.209 C 15.86633,0.9845054 15.796667,0.9551724 15.716,0.9551724 H 11.36 c -0.08067,0 -0.150333,0.029333 -0.209,0.0879999 -0.05867,0.058667 -0.088,0.128333 -0.088,0.209 v 7.1060001 c 0,0.080667 0.02933,0.150333 0.088,0.209 0.05867,0.058667 0.128333,0.088 0.209,0.088 h 4.444 c 0.08067,0 0.150333,-0.029333 0.209,-0.088 0.05867,-0.058667 0.088,-0.128333 0.088,-0.209 v -0.396 c 0,-0.080667 -0.02933,-0.1503331 -0.088,-0.2090001 -0.05867,-0.058667 -0.128333,-0.088 -0.209,-0.088 h -3.696 z m 10.285,3.3110001 c -0.066,-0.058667 -0.132,-0.1393329 -0.198,-0.242 l -3.575,-5.379 v 5.412 c 0,0.080667 -0.02933,0.150333 -0.088,0.209 -0.05867,0.058667 -0.128333,0.088 -0.209,0.088 h -0.451 c -0.08067,0 -0.150333,-0.029333 -0.209,-0.088 -0.05867,-0.058667 -0.088,-0.128333 -0.088,-0.209 V 1.2521723 c 0,-0.080667 0.02933,-0.150333 0.088,-0.209 0.05867,-0.0586669 0.128333,-0.0879999 0.209,-0.0879999 h 0.385 c 0.09533,0 0.176,0.029333 0.242,0.0879999 0.066,0.058667 0.132,0.1393329 0.198,0.242 l 3.575,5.379 v -5.412 c 0,-0.080667 0.02933,-0.150333 0.088,-0.209 0.05867,-0.0586669 0.128333,-0.0879999 0.209,-0.0879999 h 0.451 c 0.08067,0 0.150333,0.029333 0.209,0.0879999 0.05867,0.058667 0.088,0.128333 0.088,0.209 v 7.1060001 c 0,0.080667 -0.02933,0.150333 -0.088,0.209 -0.05867,0.058667 -0.128333,0.088 -0.209,0.088 h -0.385 c -0.09533,0 -0.176,-0.029333 -0.242,-0.088 z m 7.788,-7.5240001 c 0.05867,0.058667 0.088,0.128333 0.088,0.209 v 0.396 c 0,0.080667 -0.02933,0.1503331 -0.088,0.209 -0.05867,0.058667 -0.128333,0.088 -0.209,0.088 h -2.057 v 6.4130001 c 0,0.080667 -0.02933,0.150333 -0.088,0.209 -0.05867,0.058667 -0.128333,0.088 -0.209,0.088 h -0.451 c -0.08067,0 -0.150333,-0.029333 -0.209,-0.088 -0.05867,-0.058667 -0.088,-0.128333 -0.088,-0.209 V 1.9451723 h -2.057 c -0.08067,0 -0.150333,-0.029333 -0.209,-0.088 -0.05867,-0.058667 -0.088,-0.1283329 -0.088,-0.209 v -0.396 c 0,-0.080667 0.02933,-0.150333 0.088,-0.209 0.05867,-0.0586669 0.128333,-0.0879999 0.209,-0.0879999 h 5.159 c 0.08067,0 0.150333,0.029333 0.209,0.0879999 z m 7.051,0 c 0.05867,0.058667 0.088,0.128333 0.088,0.209 v 4.4 c 0,0.9533381 -0.243831,1.7104972 -0.7315,2.2715001 -0.487669,0.5610027 -1.230162,0.8415 -2.2275,0.8415 -1.012005,0 -1.758164,-0.2804973 -2.2385,-0.8415 C 31.642164,7.3626695 31.402,6.6055104 31.402,5.6521723 v -4.4 c 0,-0.080667 0.02933,-0.150333 0.088,-0.209 0.05867,-0.0586669 0.128333,-0.0879999 0.209,-0.0879999 h 0.451 c 0.08067,0 0.150333,0.029333 0.209,0.0879999 0.05867,0.058667 0.088,0.128333 0.088,0.209 v 4.455 c 0,0.7040036 0.166832,1.2338316 0.5005,1.5895 0.333668,0.3556685 0.80483,0.5335 1.4135,0.5335 0.60867,0 1.081665,-0.1778315 1.419,-0.5335 0.337335,-0.3556684 0.506,-0.8854964 0.506,-1.5895 v -4.455 c 0,-0.080667 0.02933,-0.150333 0.088,-0.209 0.05867,-0.0586669 0.128333,-0.0879999 0.209,-0.0879999 h 0.44 c 0.08067,0 0.150333,0.029333 0.209,0.0879999 z m 6.776,0.4785 c 0.498669,0.3776686 0.748,0.9478296 0.748,1.7105001 0,0.5720028 -0.142999,1.0376648 -0.429,1.3969999 -0.286001,0.3593352 -0.670998,0.6159993 -1.155,0.77 l 1.661,2.8930001 c 0.022,0.044 0.033,0.084333 0.033,0.121 0,0.066 -0.02383,0.122833 -0.0715,0.1705 -0.04767,0.047667 -0.1045,0.0715 -0.1705,0.0715 h -0.473 c -0.205334,0 -0.362999,-0.098999 -0.473,-0.297 L 42.083,5.5531723 h -1.892 v 2.8050001 c 0,0.080667 -0.02933,0.150333 -0.088,0.209 -0.05867,0.058667 -0.128333,0.088 -0.209,0.088 h -0.451 c -0.08067,0 -0.150333,-0.029333 -0.209,-0.088 -0.05867,-0.058667 -0.088,-0.128333 -0.088,-0.209 V 1.2521723 c 0,-0.080667 0.02933,-0.150333 0.088,-0.209 0.05867,-0.0586669 0.128333,-0.0879999 0.209,-0.0879999 h 2.662 c 0.770004,0 1.404331,0.1888314 1.903,0.5664999 z M 42.05,4.5631724 c 1.107339,0 1.661,-0.4436623 1.661,-1.331 0,-0.454669 -0.139332,-0.7828324 -0.418,-0.9845 C 43.014332,2.0460047 42.600003,1.9451723 42.05,1.9451723 h -1.859 v 2.6180001 z m 5.302,0.6929999 h 3.366 c 0.08067,0 0.150333,-0.029333 0.209,-0.088 0.05867,-0.058667 0.088,-0.1283329 0.088,-0.209 V 4.5631724 c 0,-0.080667 -0.02933,-0.1503331 -0.088,-0.2090001 -0.05867,-0.058667 -0.128333,-0.088 -0.209,-0.088 h -3.366 v -2.321 h 3.608 c 0.08067,0 0.150333,-0.029333 0.209,-0.088 0.05867,-0.058667 0.088,-0.1283329 0.088,-0.209 v -0.396 c 0,-0.080667 -0.02933,-0.150333 -0.088,-0.209 C 51.11033,0.9845054 51.040667,0.9551724 50.96,0.9551724 h -4.356 c -0.08067,0 -0.150333,0.029333 -0.209,0.0879999 -0.05867,0.058667 -0.088,0.128333 -0.088,0.209 v 7.1060001 c 0,0.080667 0.02933,0.150333 0.088,0.209 0.05867,0.058667 0.128333,0.088 0.209,0.088 h 4.444 c 0.08067,0 0.150333,-0.029333 0.209,-0.088 0.05867,-0.058667 0.088,-0.128333 0.088,-0.209 v -0.396 c 0,-0.080667 -0.02933,-0.1503331 -0.088,-0.2090001 -0.05867,-0.058667 -0.128333,-0.088 -0.209,-0.088 H 47.352 Z M 5.2715,19.219672 c 0.3556684,0.370335 0.8524968,0.5555 1.4905,0.5555 0.6453366,0 1.1219985,-0.139332 1.43,-0.418 0.3080015,-0.278668 0.5133328,-0.637998 0.616,-1.078 0.014667,-0.07333 0.0495,-0.131999 0.1045,-0.176 0.055,-0.044 0.1154997,-0.066 0.1815,-0.066 H 9.6 c 0.066,0 0.1228331,0.02383 0.1705,0.0715 0.047667,0.04767 0.0715,0.1045 0.0715,0.1705 -0.014667,0.359335 -0.1319989,0.731498 -0.352,1.1165 -0.2200011,0.385002 -0.5591644,0.709499 -1.0175,0.9735 -0.4583356,0.264002 -1.0284966,0.396 -1.7105,0.396 -0.6160031,0 -1.1549977,-0.128332 -1.617,-0.385 C 4.6829977,20.123504 4.3255013,19.769675 4.0725,19.318672 3.8194987,18.86767 3.6820001,18.356175 3.66,17.784172 c -0.00733,-0.220001 -0.011,-0.546331 -0.011,-0.979 0,-0.432669 0.00367,-0.758999 0.011,-0.979 0.022,-0.572002 0.1594987,-1.083497 0.4125,-1.5345 0.2530013,-0.451002 0.6104977,-0.804832 1.0725,-1.0615 0.4620023,-0.256668 1.0009969,-0.385 1.617,-0.385 0.6820034,0 1.2521644,0.131999 1.7105,0.396 0.4583356,0.264002 0.7974989,0.588498 1.0175,0.9735 0.2200011,0.385002 0.3373333,0.757165 0.352,1.1165 0,0.066 -0.023833,0.122833 -0.0715,0.1705 -0.047667,0.04767 -0.1044997,0.0715 -0.1705,0.0715 H 9.094 c -0.066,0 -0.1264997,-0.022 -0.1815,-0.066 -0.055,-0.044 -0.089833,-0.102666 -0.1045,-0.176 -0.1026672,-0.440002 -0.3079985,-0.799332 -0.616,-1.078 -0.3080015,-0.278668 -0.7846634,-0.418 -1.43,-0.418 -0.6380032,0 -1.1348316,0.185165 -1.4905,0.5555 -0.3556685,0.370336 -0.5444999,0.867164 -0.5665,1.4905 -0.00733,0.220001 -0.011,0.527998 -0.011,0.924 0,0.396002 0.00367,0.703999 0.011,0.924 0.022,0.623337 0.2108315,1.120165 0.5665,1.4905 z m 10.9945,0.5335 c 0.05867,0.05867 0.088,0.128333 0.088,0.209 v 0.396 c 0,0.08067 -0.02933,0.150333 -0.088,0.209 -0.05867,0.05867 -0.128333,0.088 -0.209,0.088 H 11.58 c -0.08067,0 -0.150333,-0.02933 -0.209,-0.088 -0.05867,-0.05867 -0.088,-0.128333 -0.088,-0.209 v -7.106 c 0,-0.08067 0.02933,-0.150333 0.088,-0.209 0.05867,-0.05867 0.128333,-0.088 0.209,-0.088 h 0.451 c 0.08067,0 0.150333,0.02933 0.209,0.088 0.05867,0.05867 0.088,0.128333 0.088,0.209 v 6.413 h 3.729 c 0.08067,0 0.150333,0.02933 0.209,0.088 z m 6.798,-6.71 c 0.05867,0.05867 0.088,0.128333 0.088,0.209 v 4.4 c 0,0.953338 -0.243831,1.710497 -0.7315,2.2715 -0.487669,0.561003 -1.230162,0.8415 -2.2275,0.8415 -1.012005,0 -1.758164,-0.280497 -2.2385,-0.8415 -0.480336,-0.561003 -0.7205,-1.318162 -0.7205,-2.2715 v -4.4 c 0,-0.08067 0.02933,-0.150333 0.088,-0.209 0.05867,-0.05867 0.128333,-0.088 0.209,-0.088 h 0.451 c 0.08067,0 0.150333,0.02933 0.209,0.088 0.05867,0.05867 0.088,0.128333 0.088,0.209 v 4.455 c 0,0.704004 0.166832,1.233832 0.5005,1.5895 0.333668,0.355669 0.80483,0.5335 1.4135,0.5335 0.60867,0 1.081665,-0.177831 1.419,-0.5335 0.337335,-0.355668 0.506,-0.885496 0.506,-1.5895 v -4.455 c 0,-0.08067 0.02933,-0.150333 0.088,-0.209 0.05867,-0.05867 0.128333,-0.088 0.209,-0.088 h 0.44 c 0.08067,0 0.150333,0.02933 0.209,0.088 z m 1.914,0.209 c 0,-0.08067 0.02933,-0.150333 0.088,-0.209 0.05867,-0.05867 0.128333,-0.088 0.209,-0.088 h 2.948 c 0.579336,0 1.048665,0.111833 1.408,0.3355 0.359335,0.223668 0.615999,0.493165 0.77,0.8085 0.154001,0.315335 0.231,0.623332 0.231,0.924 0,0.410669 -0.099,0.742499 -0.297,0.9955 -0.198001,0.253002 -0.392332,0.438166 -0.583,0.5555 0.308001,0.205335 0.559166,0.467499 0.7535,0.7865 0.194334,0.319002 0.2915,0.672832 0.2915,1.0615 0,0.381336 -0.0935,0.742499 -0.2805,1.0835 -0.187001,0.341002 -0.463832,0.617833 -0.8305,0.8305 -0.366669,0.212668 -0.802998,0.319 -1.309,0.319 h -3.102 c -0.08067,0 -0.150333,-0.02933 -0.209,-0.088 -0.05867,-0.05867 -0.088,-0.128333 -0.088,-0.209 z m 1.045,2.915 h 2.09 c 0.484002,0 0.850665,-0.09533 1.1,-0.286 0.249335,-0.190667 0.374,-0.465664 0.374,-0.825 0,-0.359335 -0.124665,-0.634332 -0.374,-0.825 -0.249335,-0.190667 -0.615998,-0.286 -1.1,-0.286 h -2.09 z m 0,3.498 h 2.244 c 0.469336,0 0.834165,-0.119165 1.0945,-0.3575 0.260335,-0.238334 0.3905,-0.533498 0.3905,-0.8855 0,-0.359335 -0.124665,-0.659998 -0.374,-0.902 -0.249335,-0.242001 -0.619664,-0.363 -1.111,-0.363 h -2.244 z m -20.988,11.857 c 0.3813352,0.388669 0.9166632,0.583 1.606,0.583 0.6233364,0 1.1183315,-0.128332 1.485,-0.385 0.3666685,-0.256668 0.619666,-0.696663 0.759,-1.32 0.029333,-0.154 0.1099993,-0.231 0.242,-0.231 h 0.22 c 0.066,0 0.1228331,0.02017 0.1705,0.0605 0.047667,0.04033 0.067833,0.0935 0.0605,0.1595 -0.022,0.381336 -0.137499,0.753498 -0.3465,1.1165 -0.2090011,0.363002 -0.5298312,0.663666 -0.9625,0.902 -0.4326688,0.238335 -0.9753301,0.3575 -1.628,0.3575 -0.9533381,0 -1.6683309,-0.269497 -2.145,-0.8085 -0.4766691,-0.539002 -0.7333331,-1.263162 -0.77,-2.1725 -0.00733,-0.198001 -0.011,-0.520664 -0.011,-0.968 0,-0.454669 0.00367,-0.784665 0.011,-0.99 0.036667,-0.909338 0.2933309,-1.633497 0.77,-2.1725 0.4766691,-0.539002 1.1916619,-0.8085 2.145,-0.8085 0.6526699,0 1.1953312,0.119166 1.628,0.3575 0.4326688,0.238335 0.7534989,0.538999 0.9625,0.902 0.209001,0.363002 0.3244999,0.735165 0.3465,1.1165 v 0.022 c 0,0.05867 -0.022,0.106333 -0.066,0.143 -0.044,0.03667 -0.099,0.055 -0.165,0.055 h -0.22 c -0.1320007,0 -0.2126665,-0.077 -0.242,-0.231 -0.139334,-0.623336 -0.3923315,-1.063332 -0.759,-1.32 -0.3666685,-0.256668 -0.8616636,-0.385 -1.485,-0.385 -0.6893368,0 -1.2246648,0.194332 -1.606,0.583 -0.3813352,0.388669 -0.5866665,0.98633 -0.616,1.793 -0.00733,0.198001 -0.011,0.502332 -0.011,0.913 0,0.410669 0.00367,0.722333 0.011,0.935 0.029334,0.806671 0.2346648,1.404332 0.616,1.793 z m 11.693,-2.717 c 0,0.176001 -0.0073,0.483998 -0.022,0.924 -0.05133,2.02401 -1.019324,3.036 -2.904,3.036 -1.884676,0 -2.852666,-1.01199 -2.904,-3.036 -0.0073,-0.220001 -0.011,-0.527998 -0.011,-0.924 0,-0.396002 0.0037,-0.703999 0.011,-0.924 0.02933,-0.997338 0.300664,-1.752664 0.814,-2.266 0.513336,-0.513336 1.209996,-0.77 2.09,-0.77 0.880004,0 1.576664,0.256664 2.09,0.77 0.513336,0.513336 0.784666,1.268662 0.814,2.266 0.01467,0.440003 0.022,0.748 0.022,0.924 z m -5.148,0 c 0,0.359335 0.0037,0.648999 0.011,0.869 0.02933,0.821338 0.240165,1.431832 0.6325,1.8315 0.392335,0.399669 0.918497,0.5995 1.5785,0.5995 0.660003,0 1.186165,-0.199831 1.5785,-0.5995 0.392335,-0.399668 0.603167,-1.010162 0.6325,-1.8315 0.01467,-0.440002 0.022,-0.729666 0.022,-0.869 0,-0.139334 -0.0073,-0.428998 -0.022,-0.869 -0.02933,-0.821337 -0.241998,-1.431831 -0.638,-1.8315 -0.396002,-0.399668 -0.92033,-0.5995 -1.573,-0.5995 -0.65267,0 -1.176998,0.199832 -1.573,0.5995 -0.396002,0.399669 -0.608667,1.010163 -0.638,1.8315 -0.0073,0.220001 -0.011,0.509665 -0.011,0.869 z"
         id="VENTURE-CLUB-CO"
         style="fill:#000000"
         inkscape:connector-curvature="0" />
      <path
         d="M 1.1365,32.934 C 1.0888331,32.978 1.0283337,33 0.955,33 H 0.427 C 0.3536663,33 0.29500022,32.978 0.251,32.934 0.20699978,32.89 0.185,32.831334 0.185,32.758 V 32.23 c 0,-0.07333 0.0219998,-0.133833 0.066,-0.1815 0.0440002,-0.04767 0.1026663,-0.0715 0.176,-0.0715 h 0.528 c 0.0733337,0 0.1338331,0.02383 0.1815,0.0715 0.047667,0.04767 0.0715,0.108166 0.0715,0.1815 v 0.528 c 0,0.07333 -0.023833,0.132 -0.0715,0.176 z"
         id="."
         style="fill:#000000"
         inkscape:connector-curvature="0" />
    </g>
  </g>
</svg>
