<?xml version="1.0" encoding="utf-8"?>
<!-- Generator: Adobe Illustrator 17.1.0, SVG Export Plug-In . SVG Version: 6.00 Build 0)  -->
<!DOCTYPE svg PUBLIC "-//W3C//DTD SVG 1.1//EN" "http://www.w3.org/Graphics/SVG/1.1/DTD/svg11.dtd">
<svg version="1.1" id="Layer_1" xmlns="http://www.w3.org/2000/svg" xmlns:xlink="http://www.w3.org/1999/xlink" x="0px" y="0px"
	 width="212.2px" height="57.4px" viewBox="0.7 10 212.2 57.4" enable-background="new 0.7 10 212.2 57.4" xml:space="preserve">
<g>
	<path fill="#B72762" d="M33.2,62.9c0.8-0.6,1.8-0.9,2.7-1.4c0-0.1,0-0.1,0-0.2c-0.1-0.8-0.3-1.6-0.5-2.5c-0.9,0.5-1.8,1-2.8,1.5
		c-0.2,0.2-0.3,0.3-0.5,0.4c-2.5,1.3-5,2.5-7.6,3.7c-1.8,0.9-1.8,0.8-2.7-1.1c-1.5-3-3-5.9-4.5-8.8c-1.1-2.1-2-4.2-3.1-6.3
		c-1.2-2.3-2.3-4.6-3.5-6.9c-1.3-2.5-2.6-4.9-3.8-7.4c-1.3-2.5-2.5-5-3.7-7.5c-0.4-0.8-0.2-1.3,0.6-1.7c3.2-1.6,6.5-3.2,9.7-4.9
		c3.4-1.7,6.8-3.5,10.2-5.3c1.4-0.7,2.8-1.5,4.3-2.2c1.1-0.5,1.5-0.4,2.1,0.6c0.3,0.5,0.7,1.1,0.9,1.7c0,0.1,0,0.1,0,0.2
		c0.7,0.9,1.2,1.9,1.7,3c0.1,0,0.1,0.1,0.2,0.1c0.8-0.3,1.6-0.4,2.5-0.6c-0.5-1-1.1-1.9-1.7-2.8c-0.2-0.2-0.4-0.4-0.6-0.7
		c-0.5-1-1-2.1-1.6-3c-0.6-1-2.7-1.5-3.8-0.9c-3.8,2-7.6,4-11.4,5.9c-4.7,2.4-9.4,4.7-14.1,7.1c-0.9,0.5-1.4,1.2-1.5,2.4
		c-0.1,1.8,1.1,3.1,1.8,4.6c1.2,2.6,2.5,5.1,3.8,7.6c1.3,2.5,2.6,5,3.8,7.5c1,2,2,4,3,6c1.3,2.5,2.5,5,3.7,7.6
		c1.1,2.1,2.2,4.2,3.2,6.3c1,2.2,3.1,2.9,5.3,1.7c2.4-1.3,4.8-2.5,7.2-3.7C32.8,63,33,62.9,33.2,62.9z"/>
	<path fill="#254151" d="M67.7,55.5c-0.1-0.7-0.5-2.2-0.7-3.6c-0.3-1.8-0.6-3.5-0.9-5.3c-0.2-1.2-0.4-2.5-0.7-3.7
		c-0.4-1.8-0.8-3.7-1.2-5.5c-0.3-1.7-0.6-3.4-0.9-5.1c-0.6-2.9-1.2-5.9-1.8-8.8c-0.6-3-1-6-1.6-9c-0.6-2.6-1.1-3.9-4.8-3.3
		c-1.8,0.3-3.5,0.6-5.3,0.9c-1.5,0.3-2.9,0.6-4.4,0.9c-1.7,0.4-3.5,0.7-5.2,1c-1.8,0.3-3.7,0.6-5.5,1c-0.9,0.2-4.1,0.9-4.7,1
		c-1,0.2-2,0.4-2.9,0.7c-1,0.4-1.7,1.3-1.5,2.4c0.2,1.9,0.5,3.9,0.9,5.8c0.3,1.6,0.7,3.3,1.1,4.9c0.3,1.8,0.6,3.6,0.9,5.4
		c0.3,1.6,0.7,3.3,1.1,4.9c0.3,1.3,0.5,2.7,0.8,4c0.3,1.8,0.6,3.5,0.9,5.3c0.3,1.7,0.7,3.5,1.1,5.2c0.3,1.6,1.3,8.2,1.7,8.7
		c1.3,1.7,2.6,2,4.7,1.4c0.7-0.2,1.4-0.3,2.1-0.4c1.7-0.3,3.4-0.6,5.2-1c1.8-0.3,3.6-0.7,5.3-1.1c1.6-0.3,3.3-0.5,5-0.9
		c2.9-0.6,5.9-1.2,8.8-1.8C67,59.2,67.8,58.3,67.7,55.5z M40.6,61.8c-1.1,0.2-2.3,0.5-3.4,0.6c-0.8,0.1-1.2-0.3-1.3-1.1
		c-0.4-2.1-0.8-4.2-1.2-6.3c-0.3-1.8-0.6-3.5-0.9-5.3c-0.3-1.8-0.7-3.6-1.1-5.3c-0.3-1.3-0.5-2.6-0.8-3.9c-0.3-1.7-0.6-3.4-0.9-5.2
		c-0.3-1.7-0.7-3.4-1.1-5.1c-0.3-1.4-0.6-2.7-0.8-4.1C28.7,24.1,28.4,22,28,20c-0.1-0.7,0.1-1.1,0.8-1.2c1.1-0.2,2.2-0.5,3.6-0.8
		c0.3,0.3,0.7,0.5,0.8,0.8c0.3,0.9,0.4,1.8,0.6,2.7c0.4,1.8,0.7,3.7,1.1,5.5c0.3,1.3,0.5,2.7,0.8,4c0.3,1.7,0.6,3.4,0.9,5.2
		c0.3,1.8,0.7,3.6,1.1,5.3c0.3,1.5,0.6,3.1,0.9,4.6c0.7,3.4,1.3,6.8,2,10.2c0.3,1.4,0.5,2.8,0.8,4.2C41.5,61.2,41.4,61.7,40.6,61.8z
		 M64.2,57.5c-2.9,0.5-5.8,1-8.7,1.5c-1.7,0.3-3.4,0.7-5.1,1.1c-0.4,0.1-0.8,0.2-1.5,0.3c-0.2-0.2-0.6-0.4-0.8-0.7
		c-0.2-0.4-0.3-0.8-0.4-1.3c-0.7-3.5-1.4-7.1-2-10.6c-0.3-1.8-0.6-3.5-0.9-5.3c-0.3-1.8-0.7-3.5-1.1-5.2c-0.3-1.3-0.5-2.5-0.7-3.8
		c-0.3-1.8-0.6-3.6-0.9-5.4c-0.3-1.7-0.7-3.5-1.1-5.2c-0.3-1.7-0.6-3.4-1-5c-0.2-0.9,0.3-1.4,1.1-1.6c1.7-0.3,3.4-0.6,5.1-0.9
		c1.9-0.4,3.7-0.8,5.5-1.1c1.4-0.3,2.8-0.6,4.2-0.8c0.8-0.1,1.3,0.3,1.4,1.2c0.6,3.1,1.2,6.2,1.8,9.2c0.3,1.8,0.6,3.6,0.9,5.4
		c0.3,1.8,0.7,3.5,1.1,5.2c0.3,1.3,0.6,2.7,0.8,4c0.3,1.7,0.6,3.4,0.9,5.2c0.3,1.7,0.8,3.5,1.1,5.2c0.3,1.8,0.6,3.5,0.9,5.3
		c0.1,0.5,0.1,1,0.3,1.5C65.5,56.6,65.2,57.3,64.2,57.5z"/>
	<path fill="#254151" d="M79,36.8c0.9-0.8,1-1.7,1.2-2.6c0.4-2.1,0.8-4.1,1.2-6.2c0.3-1.8,0.7-3.5,0.9-5.3c0.1-1,0.5-1.4,1.5-1.3
		c0.4,0,0.7-0.1,1,0c0.3,0.2,0.8,0.5,0.9,0.8c0.7,3.3,1.4,6.6,2,10c0.3,1.4,0.6,2.9,0.8,4.3c0,0.2,0.2,0.3,0.4,0.7
		c0.2-0.4,0.3-0.7,0.3-0.9c0.3-2.5,0.5-5,0.8-7.4c0.2-2.2,0.5-4.3,0.7-6.5c0-0.3,0.3-0.8,0.6-0.9c1-0.1,2-0.1,2.9-0.1
		c0.2,0,0.5,0.4,0.5,0.7c0,0.5,0,1-0.1,1.5c-0.4,2.8-0.9,5.5-1.3,8.3c-0.6,3.5-1.2,7-1.8,10.4c-0.1,0.8-0.2,1.7-0.3,2.5
		c-0.2,1.5-0.6,1.8-2,1.8c-0.4,0-0.7,0.1-1,0c-0.4-0.1-0.8-0.4-0.9-0.7c-0.5-2.6-1-5.2-1.5-7.8c-0.4-2.3-0.9-4.5-1.4-6.8
		c0-0.1-0.1-0.2-0.4-0.6c-0.3,1.5-0.7,2.8-0.9,4.1c-0.4,2.2-0.8,4.5-1.2,6.7c-0.3,1.4-0.5,2.8-0.8,4.2c-0.1,0.7-0.4,0.9-1.1,0.9
		c-2.5,0-2.7-0.2-3-2.6c-0.4-2.7-0.9-5.4-1.3-8.1c-0.3-2-0.5-4-0.9-5.9c-0.3-2.1-0.7-4.3-1.1-6.4c0-0.2-0.1-0.5-0.1-0.7
		c-0.2-1.4-0.1-1.5,1.3-1.5c2.5,0,2.5,0,2.7,2.5c0.3,2.7,0.7,5.3,1.1,8c0.1,1.1,0.2,2.2,0.3,3.2C78.8,35.7,78.9,36.2,79,36.8z"/>
	<path fill="#254151" d="M151.4,34.1c0-3.8,0-7.6,0-11.4c0-1,0.3-1.3,1.3-1.3c2.1,0.1,4.3,0.1,6.4,0.1c3.3,0.1,4.8,2.4,5.3,4.9
		c0.3,1.9,0.6,3.9-0.5,5.7c-0.5,0.9-1.4,1.7-2,2.6c-0.2,0.3-0.6,0.8-0.5,1.1c0.7,2,1.4,3.9,2.2,5.9c0.5,1.4,1.1,2.7,1.5,4.1
		c0.1,0.2-0.3,0.6-0.6,0.8c-0.2,0.1-0.6,0-0.8,0c-1.6,0.3-2.6-0.3-3-1.9c-0.7-2.4-1.5-4.8-2.3-7.2c-0.3-0.8-0.5-1.7-1.6-1.7
		c-1.4,0-1.7,0.3-1.7,1.6c0,2.6,0,5.3,0,7.9c0,1-0.3,1.3-1.3,1.3c-2.4-0.1-2.3,0.4-2.3-2.3C151.4,40.9,151.4,37.5,151.4,34.1z
		 M155,28.7c0,1,0,2,0,2.9c0,0.3,0.3,0.9,0.6,1c2.3,1,4.6-0.1,5.1-2.6c0.4-2.1,0.1-4.9-2.4-5.4c-0.6-0.1-1.2-0.1-1.8-0.1
		c-1.1,0-1.5,0.4-1.5,1.4C154.9,26.9,155,27.8,155,28.7z"/>
	<path fill="#254151" d="M116.1,34c0-2.3,0.1-4.6,0-6.8c-0.2-4.5,4.9-6.8,8.2-5.8c1.5,0.5,2.8,1,3.7,2.3c0.8,1.2,1.3,2.6,1.1,4
		c0,0.3-0.4,0.6-0.7,0.7c-0.3,0.1-0.7,0-1,0c-1.9,0-1.9,0-2.2-1.9c-0.2-1.2-1.5-2.1-2.8-2.1c-1.5,0.1-2.7,1.2-2.7,2.7
		c-0.1,1.4,0,2.8,0,4.2c0,3,0,6,0,9.1c0,1.2,0.4,2.2,1.7,2.8c1.9,0.8,3.8-0.2,3.9-2.3c0.1-1.3,0-2.6,0-3.9c0-0.8-0.4-1.2-1.1-1.1
		c-0.4,0-0.7,0.1-1,0c-0.3-0.1-0.7-0.4-0.8-0.7c-0.4-2.2-0.1-2.4,2-2.4c1.3,0,2.6,0,3.9,0c0.6,0,0.9,0.2,0.9,0.9
		c0,2.7,0.1,5.3-0.1,8c-0.2,2.1-1.5,4.1-4.3,5c-3,0.9-5.5,0.2-7.5-2.1c-0.7-0.8-1.1-1.9-1.1-2.9C116,39.1,116.1,36.5,116.1,34
		C116.1,34,116.1,34,116.1,34z"/>
	<path fill="#254151" d="M110.2,46.7c-1.9,0-2.1-0.3-2.3-2.2c0-0.1,0-0.2,0-0.3c-0.3-2.7-0.6-3-3.3-3c-0.2,0-0.4,0-0.6,0
		c-2.4,0-2.6,0.2-3,2.6c0,0.1,0,0.3,0,0.4c-0.3,2.4-1.1,3-3.5,2.4c-0.3-0.1-0.6-0.7-0.5-1c0.5-2.2,1.1-4.4,1.6-6.6
		c0.3-1.1,0.6-2.2,0.8-3.4c0.6-2.4,1.1-4.8,1.6-7.1c0.5-2,0.9-4.1,1.4-6.1c0.3-1.2,1.4-1,2.3-1c0.9,0,1.4,0.3,1.6,1.2
		c0.5,2.4,1,4.8,1.6,7.2c0.8,3.3,1.7,6.6,2.5,9.8c0.5,2,0.9,3.9,1.4,5.9c0.2,0.8,0,1.3-0.9,1.2C110.7,46.7,110.4,46.7,110.2,46.7z
		 M104.2,38.1C104.2,38.1,104.2,38.1,104.2,38.1c0.4,0,0.7,0,1.1,0c1-0.1,1.2-0.4,1-1.4c-0.4-2-0.8-4.1-1.3-6.1
		c-0.1-0.4-0.5-0.7-0.7-1.1c-0.2,0.4-0.5,0.7-0.6,1.1c-0.4,1.8-0.6,3.7-1.1,5.4c-0.5,1.8-0.4,2.1,1.4,2.1
		C104.1,38.1,104.1,38.1,104.2,38.1z"/>
	<path fill="#254151" d="M134.8,34c0-3.8,0-7.5,0-11.3c0-1,0.3-1.4,1.3-1.4c3.1,0.1,6.1,0,9.2,0c0.9,0,1.3,0.3,1.2,1.2
		c0,0.2,0,0.5,0,0.7c0.1,0.9-0.3,1.2-1.1,1.2c-1.8,0-3.6,0-5.4,0c-0.9,0-1.3,0.4-1.3,1.2c0,1.8,0,3.6,0,5.5c0,0.8,0.4,1.1,1.2,1.1
		c1.4,0,2.9,0,4.3,0c1.1,0,1.3,0.3,1.3,1.8c0,1-0.3,1.4-1.3,1.4c-1.4,0-2.9,0-4.3,0c-0.8,0-1.1,0.3-1.1,1.1c0,1.9,0,3.9,0,5.8
		c0,0.8,0.5,1,1.2,1c1.8,0,3.6,0,5.5,0c0.8,0,1.1,0.3,1.1,1c0,3,0,2.4-2.2,2.4c-2.7,0-5.5,0-8.2,0c-1,0-1.3-0.3-1.3-1.3
		C134.8,41.6,134.8,37.8,134.8,34z"/>
	<path fill="#254151" d="M184.2,34c0-3.7,0-7.4,0-11.2c0-1.2,0.2-1.4,1.4-1.4c2.9,0,5.9,0,8.8,0c1.2,0,1.2,0.1,1.3,1.7
		c0,1-0.3,1.4-1.3,1.4c-1.8-0.1-3.5,0-5.3,0c-0.8,0-1.2,0.3-1.2,1.1c0,1.9,0,3.8,0,5.7c0,0.8,0.4,1.1,1.1,1.1c1.5,0,3,0,4.5,0
		c0.9,0,1.3,0.3,1.3,1.2c0,0.3,0,0.6,0,0.8c0.1,0.8-0.3,1.1-1.1,1.1c-1.5,0-3.1,0-4.6,0c-0.8,0-1.2,0.3-1.2,1.1c0,1.9,0,3.8,0,5.7
		c0,0.8,0.4,1,1.1,1c1.8,0,3.6,0,5.4,0c0.8,0,1.2,0.3,1.2,1.1c0.1,2.3,0.1,2.3-2.2,2.3c-2.6,0-5.2,0-7.8,0c-1.4,0-1.5-0.2-1.5-1.5
		C184.2,41.5,184.2,37.7,184.2,34z"/>
	<path fill="#254151" d="M200.4,34.1c0-2.4,0-4.8,0-7.2c0-2.9,1.5-4.5,4.2-5.5c2.7-1,6.8,0.3,7.8,3.2c0.4,1,0.7,2.3,0.4,3.3
		c-0.4,1.3-1.8,0.4-2.7,0.6c-0.6,0.1-0.8-0.2-0.8-0.8c0-1.1-0.4-2-1.3-2.6c-2-1.2-3.9-0.1-4,2.6c-0.1,2.5,0,5,0,7.5
		c0,1.8-0.1,3.6,0.1,5.4c0.1,0.9,0.5,1.8,1,2.5c0.7,0.8,1.7,0.7,2.7,0.3c1-0.5,1.5-1.4,1.5-2.3c0-1.2,0.5-1.4,1.5-1.3
		c2.2,0.1,2.2,0,2.1,2.2c-0.1,2-1.9,4-3.8,4.7c-2.4,1-4.6,0.5-6.7-0.9c-1.2-0.8-2-2.1-2-3.6C200.4,39.4,200.5,36.8,200.4,34.1
		C200.5,34.1,200.4,34.1,200.4,34.1z"/>
	<path fill="#254151" d="M175.5,35.8c0,3.2,0,6.4,0,9.6c0,1-0.3,1.4-1.3,1.3c-2.3-0.1-2.3,0-2.3-2.3c0-6,0-11.9,0-17.9
		c0-1.7-0.3-2-1.9-2c-0.4,0-0.7,0-1.1,0c-1.6,0-2.3-1.1-1.6-2.6c0.1-0.2,0.5-0.5,0.8-0.5c3.7,0,7.4,0,11.2,0c0.7,0,0.9,0.3,0.9,1
		c0.1,2.1,0.1,2.1-2,2.1c-2.9,0-2.7-0.2-2.7,2.8C175.5,30.1,175.5,33,175.5,35.8z"/>
	<path fill="#B72762" d="M20.5,41.4c0,0.2-0.2,0.2-0.3,0.2c-1.3-0.8-2.5-1.5-3.7-2.3c-0.1-0.1-0.1-0.2-0.1-0.4
		c0.1-1.4,0.3-2.9,0.5-4.4c0-0.1,0.1-0.2,0.3-0.1c1.3,0.7,2.6,1.5,3.8,2.2c0.3,0.2,0.3,0.5,0.3,0.8C21,38.6,20.7,39.9,20.5,41.4z"/>
	<path fill="#B72762" d="M16.8,30.8c-0.7-0.6-1.5-1.3-2.2-1.9c-0.2-0.2-0.4-0.2-0.7-0.4c-0.1,0.4-0.3,0.6-0.2,1c0,1,0,2,0.1,3
		c-0.2,0.1-0.2,0.1-0.4,0.2c-1.4-1.6-2.8-3.1-4.4-4.8c0.5-0.3,1.1-0.6,1.4-0.8c0.6,0.9,1,1.8,1.6,2.6c0,0,0.1,0.1,0.1,0.1
		c0.4,0.2,0.8-0.1,0.7-0.5C12.7,28,12.5,27,12.4,26c0.2-0.1,0.2-0.1,0.4-0.2c0.6,0.6,1.2,1.1,1.9,1.7c0.2,0.1,0.4,0.3,0.6,0.4
		c0.2,0.1,0.4,0,0.5-0.2c0.1-0.3,0.2-0.5,0.2-0.8c0.1-0.9-0.2-1.7-1.4-2.1c0.7-0.3,1.2-0.6,1.7-0.9c0.3,2.2,0.6,4.5,1,6.7
		C17,30.7,17,30.7,16.8,30.8z"/>
</g>
</svg>
