<?xml version="1.0" encoding="utf-8"?>
<!-- Generator: Adobe Illustrator 17.1.0, SVG Export Plug-In . SVG Version: 6.00 Build 0)  -->
<!DOCTYPE svg PUBLIC "-//W3C//DTD SVG 1.1//EN" "http://www.w3.org/Graphics/SVG/1.1/DTD/svg11.dtd">
<svg version="1.1" id="Layer_1" xmlns="http://www.w3.org/2000/svg" xmlns:xlink="http://www.w3.org/1999/xlink" x="0px" y="0px"
	 width="129.2px" height="56.8px" viewBox="0 0 129.2 56.8" enable-background="new 0 0 129.2 56.8" xml:space="preserve">
<g>
	<path fill="#27294C" d="M43.1,46.1c0-2.1,0-4.2,0-6.3c0-3.7,2.3-5.4,5.5-3.5c1.2,0.8,1.7,0.7,2.8,0.3c2.9-1.2,5.8-1.4,8.4,0.8
		c1,0.8,1.6,0.8,2.7,0.2c3.6-2.1,7.3-2.8,10.8,0.2c1,0.8,1.6,0.3,2.4-0.2c3.6-2.1,7.3-2.8,10.8,0.1c1.3,1.1,1.9,0,2.7-0.4
		c7.3-3.7,12.4-0.7,12.5,7.4c0,2.6,0,5.2,0,7.8c0,3.8-1.8,5-5.5,3.9C94.6,56,95,54.9,95,53.9c-0.1-3,0-6,0-9c0-2-0.2-3.9-2.8-3.7
		c-2.3,0.2-3.9,1.1-3.7,3.9c0.2,3-0.1,6,0.1,9c0.2,2.6-1.4,2.2-3,2.2c-1.6,0-3.1,0.2-2.9-2.3c0.2-2.9,0-5.7,0-8.6
		c0-2.3-0.6-4.3-3.4-4.3c-2.7,0-3.9,1.4-3.7,4.2c0.2,2.9-0.1,5.7,0.1,8.6c0.2,2.9-1.7,2.2-3.3,2.3c-1.8,0.2-2.9-0.2-2.8-2.5
		c0.2-2.9,0.1-5.7,0-8.6c0-2.4-0.9-4.2-3.6-4.1c-2.5,0.1-4.2,1.1-4,4.1c0.2,2.6-0.1,5.2,0.1,7.8c0.2,2.4-0.5,3.3-3.2,3.4
		c-2.7,0-2.9-1.2-2.8-3.3c0.1-2.7,0-5.5,0-8.2c0-2.2-0.9-3.9-3.4-3.8c-2.2,0.1-4,1-3.8,3.8c0.2,3-0.1,6,0.1,9
		c0.2,2.9-1.7,2.2-3.3,2.4c-1.8,0.1-3-0.2-2.8-2.5C43.3,51.4,43.1,48.8,43.1,46.1z"/>
	<path fill="#CE3766" d="M94,5.8c0.8-1,1.5-2,2.5-3.4c5.6,9.6,11,18.8,16.7,28.7c-11.6,0-22.6,0-33.7,0c3.1-6.5,7.6-12.2,10.4-18.9
		C91.9,10.4,92.9,8.1,94,5.8z"/>
	<path fill="#63ADAF" d="M90,12.2c-2.8,6.7-7.3,12.4-10.4,18.9c-3.4,0-6.8,0.1-10.1,0.1c-1.8,0-2.4-0.6-1.4-2.3
		c4.9-8.3,9.6-16.6,14.5-24.9c1.6-2.7,2,0.3,2.9,0.8C86.8,7.3,88,10.1,90,12.2z"/>
	<path fill="#27294C" d="M39.8,46.4c0,1.9,0.1,3.9,0,5.8c-0.1,1.3,0.8,3.4-0.7,3.8c-1.7,0.5-4,1.3-5.6-0.7c-1.1-1.4-1.8,0-2.6,0.3
		c-6.4,2.2-10.5-0.6-10.6-7.4c0-2.9,0-5.7,0-8.6c0-2.1-0.2-3.7,2.9-3.6c2.9,0.1,3.5,1.1,3.3,3.7c-0.2,2.7,0,5.5,0,8.2
		c0,2,1,3.2,3.1,3.1c2.1-0.1,3.9-0.7,3.9-3.4c0-2.9,0.2-5.7-0.1-8.6c-0.2-2.6,0.9-3,3.2-3c2.2,0,3.5,0.3,3.2,2.9
		C39.6,41.5,39.8,43.9,39.8,46.4z"/>
	<path fill="#27294C" d="M0.3,49.8c3.3,0.8,5.7,1.4,8.1,1.8c1.1,0.2,2.3,0,2.5-1.2c0.3-1.4-1.1-1.5-2.1-1.8
		c-1.6-0.4-3.3-0.7-4.9-1.3C1.7,46.6,0.1,45,0,42.5c-0.1-2.6,1.2-4.5,3.5-5.6c3.8-1.8,7.6-1.4,11.4-0.1c2.6,1,0.9,3.3,1.6,5.5
		c-3-0.6-5.5-2-8.2-1.6c-0.8,0.1-1.7,0.1-1.8,1c-0.1,1,0.7,1.3,1.5,1.5c1.8,0.5,3.5,0.8,5.3,1.4c2.3,0.7,3.9,2,4.1,4.6
		c0.2,2.8-1,4.8-3.4,6.1c-3.9,2-7.9,1.5-11.8,0.1C-0.6,54.4,1.5,51.9,0.3,49.8z"/>
	<path fill="#27294C" d="M124.5,56.4c-3.9,0-6.4-2.1-6.8-6c-0.2-2.2-0.1-4.4-0.1-6.6c0-1.2,0-2.3-1.8-2.3c-2.1,0-1.6-1.6-1.6-2.8
		c-0.1-1.2-0.1-2.5,1.6-2.4c1.8,0.1,1.8-1.1,1.7-2.3c-0.3-2.3,0.7-3.1,3-3.4c2.3-0.3,3.5-0.2,3.1,2.5c-0.4,2.4,0.5,3.7,3.1,3.2
		c2.1-0.3,2.2,0.9,2.3,2.6c0.1,1.9-0.3,3-2.5,2.7c-2.1-0.3-3.3,0.4-2.8,2.7c0.5,2.4-1.6,5.9,2.4,6.8c1.6,0.4,3.1-0.5,3.1,2.3
		c-0.1,2.7-1.7,2.8-3.5,3.1C125.3,56.4,124.9,56.4,124.5,56.4z"/>
	<path fill="#27294C" d="M7.9,27.9c1.7-5,3.2-9,4.5-13c0.3-0.8,0.5-1.6,1.4-1.6c1.1-0.1,1,1,1.3,1.7c1.5,4,2.9,8,4.6,12.8
		c1.7-4.9,3.1-8.9,4.4-12.9c0.3-0.9,0.6-1.9,1.8-1.6c1.5,0.4,0.5,1.5,0.2,2.2c-1.4,4.3-2.8,8.6-4.3,12.9c-0.4,1-0.3,2.5-1.9,2.6
		c-1.6,0-1.6-1.4-2-2.5c-1.2-3.5-2.5-7-4.1-11.4c-1.6,4.5-2.9,8.1-4.2,11.7c-0.3,0.9-0.4,2.2-1.8,2.2c-1.4,0-1.5-1.1-1.8-2.1
		c-1.5-4.5-3.1-9.1-4.6-13.6c-0.2-0.6-1.1-1.5,0.1-1.9c1.1-0.4,1.6,0.4,1.9,1.3C4.8,18.8,6.2,22.9,7.9,27.9z"/>
	<path fill="#27294C" d="M111.2,46.3c0,2.2,0,4.4,0,6.6c0,2,0.4,3.7-2.8,3.6c-2.9-0.1-3.4-1-3.3-3.6c0.2-4.7,0.2-9.3,0-14
		c-0.1-2.7,1.3-2.8,3.3-2.8c2.2-0.1,3,0.6,2.8,2.8C111.1,41.4,111.2,43.8,111.2,46.3z"/>
	<path fill="#27294C" d="M51.5,14.7c3-1.2,5.7-2.1,8.6-0.9c4,1.7,6,6,4.8,10.7c-0.9,4-4.7,6.6-9,6.5c-1.9,0-3.6-1.3-5.7-0.7
		c-1.2,0.4-0.9-0.9-0.9-1.5c0-7.7,0-15.3,0-23c0-0.7-0.2-1.7,0.9-1.8C51.5,4,51.5,5.1,51.5,6C51.5,8.7,51.5,11.4,51.5,14.7z
		 M51.5,22.6c0.7,1.8-1.5,4.8,1.6,5.9c2.9,1.1,6,1.1,8.2-1.6c2.3-2.8,2.5-6,0.5-9.1c-1.7-2.6-4.1-3.2-7.2-2.4
		C50.4,16.5,51.7,19.7,51.5,22.6z"/>
	<path fill="#27294C" d="M44,27.5c-0.2,1-0.1,1.7-0.4,1.9c-2.1,1.9-7.3,2.1-10.3,0.4c-3.3-1.8-5.1-5.7-4.2-9.7
		c0.8-3.8,3.1-6.2,7-6.9c3-0.5,5.7,0.3,7.5,3c1.1,1.6,2,3.7,1.3,5.5c-0.7,1.9-3,0.8-4.5,0.9c-2.3,0.2-4.7,0.1-7,0
		c-2.6-0.1-2.4,1.1-1.5,2.8C33.8,29.3,37.8,30.1,44,27.5z M36.8,21c0.6,0,1.3,0.1,1.9,0c1.4-0.3,3.6,1,4-0.9
		c0.4-2.2-1.3-3.8-3.4-4.7c-2.1-0.9-4.1-0.3-5.8,0.9c-1.3,0.9-2.5,2.4-2.1,3.9c0.4,1.6,2.2,0.5,3.4,0.7C35.5,21.2,36.2,21,36.8,21z"
		/>
	<path fill="#27294C" d="M90,12.2c-2-2.1-3.1-4.9-4.5-7.4c0.5-0.4,1.1-0.7,1.4-1.2c3.5-4.9,3.5-4.9,6.2,0.4c0.3,0.6,0.6,1.1,0.9,1.7
		C92.9,8.1,91.9,10.4,90,12.2z"/>
</g>
</svg>
